<?xml version="1.0" encoding="utf-8"?>
<!-- Generator: Adobe Illustrator 19.0.0, SVG Export Plug-In . SVG Version: 6.00 Build 0)  -->
<svg version="1.1" id="图层_1" xmlns="http://www.w3.org/2000/svg" xmlns:xlink="http://www.w3.org/1999/xlink" x="0px" y="0px"
	 viewBox="0 0 50 50" style="enable-background:new 0 0 50 50;" xml:space="preserve">
<style type="text/css">
	.st0{fill-rule:evenodd;clip-rule:evenodd;fill:#03D893;}
</style>
<path id="XMLID_10_" class="st0" d="M30.1,25.5c0.4-0.1,0.8-0.1,1.2-0.1h-4.4l-0.2,1c0.2,0.2,0.3,0.3,0.5,0.5
	C27.9,26.1,28.9,25.7,30.1,25.5L30.1,25.5z"/>
<path id="XMLID_9_" class="st0" d="M19.8,31.2c2.6-1.8,4.1-3.7,4.4-5.9h-4.4V31.2L19.8,31.2z"/>
<path id="XMLID_4_" class="st0" d="M25,0C11.2,0,0,11.2,0,25c0,13.8,11.2,25,25,25c13.8,0,25-11.2,25-25C50,11.2,38.8,0,25,0L25,0z
	 M11.2,16.1c0.1,0.5,0.4,1.2,0.6,2.2c0.5,1.6,0.9,2.9,1.1,3.7L11,22.6c-0.1-0.4-0.2-0.7-0.2-0.9c-0.7-2.4-1.2-4.1-1.5-5.1L11.2,16.1
	L11.2,16.1z M11.9,36.6c-0.3-0.2-0.7-0.6-1.4-1.1c-0.4-0.4-0.6-0.6-0.9-0.7c2.2-2.4,3.4-5.2,3.5-8.3c-0.9,0.6-2.1,1.4-3.5,2.1
	l-0.5-2.9c0.6-0.3,1.7-0.8,3.2-1.5c0.4-0.3,0.7-0.5,1-0.5v-0.5v-9.5H23l-0.9-2.5l3.3-0.3c0.3,1,0.6,1.9,0.9,2.8h8.6v2.5h-19v6.8
	C16.1,28.8,14.8,33.4,11.9,36.6L11.9,36.6z M40.7,38.5c-0.4,0.6-1.3,0.8-2,0.4l-2.9-2c-0.9,0.8-2,1.4-3.3,1.7
	c-3.6,0.7-7.1-1.7-7.7-5.4c-0.2-1.1-0.1-2.2,0.2-3.2c0,0,0,0,0,0c-0.8,1.1-1.9,2.1-3.3,3.1c-0.6-0.6-1.2-1.2-1.8-1.8v5h-2.7V23.1
	h7.3l0.1-2.6h-7.7v-2.3h17.8v2.3H27c0,0.9,0,1.7,0,2.6h7V26c0,0,0,0,0,0c1.9,0.9,3.3,2.6,3.7,4.8c0.2,1.3,0.1,2.6-0.4,3.7l2.9,2
	C41,37,41.1,37.9,40.7,38.5L40.7,38.5z"/>
<path id="XMLID_3_" class="st0" d="M30.5,28.2c-2.1,0.4-3.5,2.4-3.1,4.5c0.4,2.1,2.4,3.5,4.5,3.1c2.1-0.4,3.5-2.4,3.1-4.5
	C34.7,29.2,32.7,27.8,30.5,28.2L30.5,28.2z"/>
</svg>
