<?xml version="1.0" encoding="utf-8"?>
<!-- Generator: Adobe Illustrator 19.0.0, SVG Export Plug-In . SVG Version: 6.00 Build 0)  -->
<svg version="1.1" id="图层_1" xmlns="http://www.w3.org/2000/svg" xmlns:xlink="http://www.w3.org/1999/xlink" x="0px" y="0px"
	 viewBox="0 0 50 50" style="enable-background:new 0 0 50 50;" xml:space="preserve">
<style type="text/css">
	.st0{fill-rule:evenodd;clip-rule:evenodd;fill:#03d893;}
</style>
<path class="st0" d="M22.4,15.3c-0.4,0-0.6-0.3-0.6-0.6v-1.3c0-0.4,0.3-0.6,0.6-0.6h5.1c0.4,0,0.6,0.3,0.6,0.6v0.4v0.9
	c0,0.4-0.3,0.6-0.6,0.6H22.4L22.4,15.3z M25,0c13.8,0,25,11.2,25,25c0,13.8-11.2,25-25,25C11.2,50,0,38.8,0,25C0,11.2,11.2,0,25,0
	L25,0z M19.9,12.7v2.6c0,1.1,0.9,1.9,1.9,1.9h6.4c1.1,0,1.9-0.9,1.9-1.9v-2.6c0-1.1-0.9-1.9-1.9-1.9h-6.4
	C20.7,10.8,19.9,11.7,19.9,12.7L19.9,12.7z M24,26.3h-5.1c-0.5,0-1,0.4-1,1c0,0.5,0.4,1,1,1H24v5.1c0,0.5,0.4,1,1,1
	c0.5,0,0.7-0.5,1-1v-5.1h5.1c0.5,0,1-0.4,1-1c0-0.5-0.4-1-1-1H26v-5.1c0-0.5-0.4-1-1-1c-0.5,0-1,0.4-1,1V26.3L24,26.3z M37.2,37.2
	 M25,37.3C25,37.3,17.8,37.3,25,37.3l-9.6,0c-0.4,0-0.6-0.3-0.6-0.6l0-20.7c0-0.4,0.3-0.6,0.6-0.6l3.1,0v-1.9l-3.9,0
	c-1.1,0-1.9,0.9-1.9,1.9l0,21.9c0,1.1,0.9,2,2.1,2l10.5,0l0,0l0,0 M37.2,32.6v-0.5l0-16.7c0-1.1-0.9-2-2.1-2h-3.4h-0.2v1.9h0.2h3.4
	c0.1,0,0.2,0.1,0.2,0.1l0,15.8 M25.3,34.9C25.3,34.9,25.3,34.9,25.3,34.9c-0.2,0.8-0.4,1.6-0.3,2.4c0.1,0.7,0.2,1.4,0.4,2
	c0.8,2.5,3.3,4.2,5.9,4.3c1.9,0.1,3.6-0.6,4.8-1.8l2.9,2c0.6,0.4,1.5,0.3,2-0.4l0,0c0.4-0.6,0.3-1.5-0.4-2l-2.9-2
	c0.5-1.1,0.6-2.4,0.4-3.7c-0.4-2.4-0.7-3.1-2-4C31.5,28.7,26.2,31,25.3,34.9c0,0-1-4.3-1-4.3 M31,33c-2,0.4-3.3,2.1-3.2,4.1
	c0,0.2,0,0.3,0.1,0.5c0.4,2.1,2.4,3.5,4.5,3.1c2.1-0.4,3.5-2.4,3.1-4.5C35.1,34.1,33.1,32.7,31,33L31,33z"/>
</svg>
