<?xml version="1.0" encoding="utf-8"?>
<!-- Generator: Adobe Illustrator 19.0.0, SVG Export Plug-In . SVG Version: 6.00 Build 0)  -->
<svg version="1.1" id="图层_1" xmlns="http://www.w3.org/2000/svg" xmlns:xlink="http://www.w3.org/1999/xlink" x="0px" y="0px"
	 viewBox="0 0 50 50" style="enable-background:new 0 0 50 50;" xml:space="preserve">
<style type="text/css">
	.st0{fill-rule:evenodd;clip-rule:evenodd;fill:#03D893;}
</style>
<g>
	<path class="st0" d="M26.3,28.5l0.2,0.8c0-0.1,0.1-0.3,0.1-0.4C26.5,28.8,26.4,28.6,26.3,28.5z"/>
	<path class="st0" d="M32.1,27.4c-0.4,0.1-0.7,0.2-1,0.3c0.8,0.9,1.4,1.7,1.8,2.3c-0.2,0.2-0.5,0.4-1.2,0.8
		c-0.9,0.7-1.7,1.3-2.2,1.6c-0.2-0.2-0.4-0.5-0.5-0.8c0,0.1,0,0.1,0,0.2c0.1,0.4,0.2,0.8,0.4,1.2h5.7v1.2c1.2-0.9,1.8-2.3,1.5-3.8
		C36.3,28.4,34.3,27,32.1,27.4z"/>
	<path class="st0" d="M25,0C11.2,0,0,11.2,0,25c0,13.8,11.2,25,25,25c13.8,0,25-11.2,25-25C50,11.2,38.8,0,25,0z M42.3,37.8
		c-0.4,0.6-1.3,0.8-2,0.4l-2.9-2c-1.2,1.1-2.9,1.9-4.8,1.8c-1.5-0.1-2.9-0.6-4.1-1.6h-17V11.6h22.3v3.2H15.2v18.4h11.3
		c-0.1-0.5-0.2-1-0.3-1.5c-0.1-0.8,0.1-1.6,0.3-2.4l0,0l-0.2-0.8c-0.5-0.5-1-1-1.5-1.6c-1.4,1.7-3.4,3.6-5.9,5.7
		c-1.1-1-2.2-1.9-3.3-2.6c2.4-1.5,4.6-3.4,6.6-5.7c-1.7-1.7-3.7-3.4-5.9-5.2c0.4-0.5,0.9-1.1,1.6-1.9c0.4-0.5,0.7-0.8,0.8-0.9
		c0.3,0.2,0.8,0.6,1.4,1.2c2.6,2.1,4,3.4,4.3,3.8c0.8-1,1.9-2.8,3.3-5.4c0.9,0.5,2.1,1.1,3.6,1.9c0.4,0,0.2,0.5-0.7,1.5
		c-1.2,1.5-2.3,3-3.4,4.7c0.7,0.6,1.3,1.2,1.8,1.7c2.2-1.3,5.3-1.5,8.1,0.4c1,0.7,2,2.9,2.1,3.9c0.1,1.3,0.1,2.6-0.4,3.7l2.9,2
		C42.6,36.3,42.7,37.1,42.3,37.8z"/>
</g>
</svg>
