<?xml version="1.0" encoding="utf-8"?>
<!-- Generator: Adobe Illustrator 21.0.0, SVG Export Plug-In . SVG Version: 6.00 Build 0)  -->
<svg version="1.1" id="图层_1" xmlns="http://www.w3.org/2000/svg" xmlns:xlink="http://www.w3.org/1999/xlink" x="0px" y="0px"
	 viewBox="0 0 44 40.1" style="enable-background:new 0 0 44 40.1;" xml:space="preserve">
<style type="text/css">
	.st0{fill:#FFBA00;}
</style>
<path class="st0" d="M44,12.8C44,5.8,38.8,0,32.5,0C28.6,0,25,1.8,22,5.3c0,0-0.1,0.1-0.1,0.1C19,1.9,15.4,0.1,11.5,0.1
	C5.2,0.1,0,5.9,0,12.9c0,3.6,1.5,5.9,2.9,8.1l16.3,17.4c1.1,1.1,1.9,1.7,2.8,1.7s1.6-0.6,2.8-1.7l0-0.1l0,0l0.9-1l1.1-1.1l14.4-14.9
	C43,18.9,44,16.5,44,12.8z"/>
</svg>
