<?xml version="1.0" encoding="utf-8"?>
<!-- Generator: Adobe Illustrator 19.0.0, SVG Export Plug-In . SVG Version: 6.00 Build 0)  -->
<svg version="1.1" id="图层_1" xmlns="http://www.w3.org/2000/svg" xmlns:xlink="http://www.w3.org/1999/xlink" x="0px" y="0px"
	 viewBox="-272.8 412 16 19" style="enable-background:new -272.8 412 16 19;" xml:space="preserve">
<style type="text/css">
	.st0{fill:#E6E6E6;}
</style>
<path class="st0" d="M-264.8,412c-2,1.6-4.2,2.7-8,2.7v7c0,3.4,4.2,9.3,8,9.3c3.8,0,8-5.9,8-9.3v-7
	C-260.5,414.7-262.7,413.6-264.8,412L-264.8,412z M-258.8,417.9h-0.2c-0.5,0-0.9,0.1-1.1,0.2c-0.2,0.1-0.4,0.3-0.6,0.6l-3.8,9.3
	h-0.6l0-0.1l-3.9-9.2c-0.2-0.4-0.4-0.6-0.5-0.7c-0.2-0.1-0.5-0.1-1-0.1h-0.2V417h4.9v0.9h-0.2c-0.7,0-1,0.1-1.1,0.1
	c-0.1,0.1-0.2,0.2-0.1,0.5l2.9,6.8l2.7-6.8c0.1-0.2,0.1-0.3-0.1-0.4c-0.2-0.2-0.6-0.2-1.2-0.2h-0.2V417h4.4L-258.8,417.9
	L-258.8,417.9L-258.8,417.9z"/>
</svg>
