<?xml version="1.0" encoding="utf-8"?>
<!-- Generator: Adobe Illustrator 19.0.0, SVG Export Plug-In . SVG Version: 6.00 Build 0)  -->
<svg version="1.1" id="图层_1" xmlns="http://www.w3.org/2000/svg" xmlns:xlink="http://www.w3.org/1999/xlink" x="0px" y="0px"
	 viewBox="-279 406.9 28 28" style="enable-background:new -279 406.9 28 28;" xml:space="preserve">
<style type="text/css">
	.st0{fill:#FF5F5F;}
</style>
<path class="st0" d="M-265,408.9c6.6,0,12,5.4,12,12s-5.4,12-12,12s-12-5.4-12-12S-271.6,408.9-265,408.9 M-265,406.9
	c-7.6,0-14,6.4-14,14s6.4,14,14,14s14-6.2,14-14S-257.2,406.9-265,406.9z M-270.2,413.9C-270.4,413.9-270.4,413.7-270.2,413.9
	c-0.4-0.6-0.4-1.2,0-1.4c1.2-1,2.6-1.6,4.2-1.8h0.4c3.2-0.4,6.4,0.8,8.4,3.4c0.4,0.4,0.2,1-0.2,1.2c-0.4,0.4-1,0.2-1.2-0.2
	c-1.6-2-4.2-3-6.8-2.6h-0.4c-1.2,0.2-2.4,0.6-3.4,1.4C-269.4,414.1-270,414.1-270.2,413.9z M-256.4,419.5c-0.2-0.2-0.4-0.4-0.4-0.6
	c0-0.4-0.2-0.8-0.2-1.2c-0.2-0.4,0.2-1,0.6-1.2c0.4-0.2,1,0.2,1.2,0.6c0.2,0.4,0.2,1,0.4,1.6c0,0.4-0.2,1-0.8,1
	C-256,419.7-256.2,419.5-256.4,419.5z M-269.8,425.7c1-0.4,2.8-0.8,4.8-0.8s3.8,0.4,4.8,0.8c-0.4-1-0.8-2.8-0.8-4.8s0.4-3.8,0.8-4.8
	c-1,0.4-2.8,0.8-4.8,0.8s-3.8-0.4-4.8-0.8c0.4,1,0.8,2.8,0.8,4.8S-269.4,424.7-269.8,425.7z"/>
</svg>
