<?xml version="1.0" encoding="utf-8"?>
<!-- Generator: Adobe Illustrator 19.0.0, SVG Export Plug-In . SVG Version: 6.00 Build 0)  -->
<svg version="1.1" id="图层_1" xmlns="http://www.w3.org/2000/svg" xmlns:xlink="http://www.w3.org/1999/xlink" x="0px" y="0px"
	 viewBox="-334.2 357.9 150 126" style="enable-background:new -334.2 357.9 150 126;" xml:space="preserve">
<style type="text/css">
	.st0{fill:#33a9fc;}
</style>
<path class="st0" d="M-203.6,402.6c1.6,2.9-1.9-5.1-8-5.1c0,0-91.5,0-95,0s-6,1.7-8.1,4.9c-2.1,3.2-19.4,29.7-19.4,35.3v36
	c0,5.6,4.6,10.2,10.3,10.2h129.3c5.7,0,10.3-4.5,10.3-10.2v-36C-184.2,432.1-203.6,402.6-203.6,402.6S-206.4,397.5-203.6,402.6z
	 M-237.6,435L-237.6,435c-3.3,0-4.5,2.1-4.9,3.5c0,0.3,0,0.5,0,0.8c0,9.2-7.5,16.6-16.8,16.6c-9.3,0-16.8-7.4-16.8-16.6
	c0-0.3,0-0.7,0.1-1c-1.2-3.3-4.8-3.3-4.8-3.3h-44.4l15-27.4c0,0,2.8-4.9,6.6-4.8c0,0,86.5,0,89.6,0s3.7,1.1,5.9,4.8l15.3,27.4
	H-237.6L-237.6,435z"/>
<path class="st0" d="M-291.6,383.4C-291.6,383.4-291.6,383.4-291.6,383.4l-11.4-10.7c-1.2-1.1-1.3-3.1-0.1-4.3
	c1.2-1.2,3.1-1.3,4.3-0.1l0,0l11.4,10.7c1.2,1.1,1.3,3.1,0.1,4.3C-288.4,384.5-290.3,384.6-291.6,383.4L-291.6,383.4z"/>
<path class="st0" d="M-260.1,378.7c-0.6-0.5-0.9-1.3-1-2.1l-0.4-15.6c0-1.7,1.3-3.1,3-3.1c1.7,0,3.1,1.3,3.1,2.9l0.4,15.6
	c0,1.7-1.3,3.1-3,3.1C-258.7,379.5-259.5,379.2-260.1,378.7L-260.1,378.7z"/>
<path class="st0" d="M-230.4,382.9c-1.2-1.1-1.3-3.1-0.1-4.3l10.8-11.3c1.2-1.2,3.1-1.3,4.3-0.1c1.2,1.1,1.3,3.1,0.1,4.3l-10.8,11.3
	C-227.3,384-229.2,384-230.4,382.9L-230.4,382.9z"/>
</svg>
