<?xml version="1.0" encoding="utf-8"?>
<!-- Generator: Adobe Illustrator 19.0.0, SVG Export Plug-In . SVG Version: 6.00 Build 0)  -->
<svg version="1.1" id="图层_1" xmlns="http://www.w3.org/2000/svg" xmlns:xlink="http://www.w3.org/1999/xlink" x="0px" y="0px"
	 viewBox="0 0 50 50" style="enable-background:new 0 0 50 50;" xml:space="preserve">
<style type="text/css">
	.st0{fill-rule:evenodd;clip-rule:evenodd;fill:#FFC176;}
	.st1{fill-rule:evenodd;clip-rule:evenodd;fill:#FFAB50;}
</style>
<g>
	<path class="st0" d="M49.8,31l0-0.1c-0.3-1.1-1.1-2.4-2.3-3.5h0L44.9,7.6l-0.2-1.2l-0.1-0.8c-0.1-0.8-0.7-1.4-1.5-1.5l-0.1,0
		c-0.2,0-0.4,0-0.6-0.1l-1.3,0c-0.6,0.1-1.3,0.3-1.8,0.9c-0.3,0.4-0.5,1-0.2,1.9c0.8,2.4,1.4,5,2,7.4l0.2,0.7
		c0.8,3.3,1.6,6.7,2.4,10.3c-1-0.3-2.2-0.5-3.4-0.5c-5.9,0-9.9,2.9-12.8,4.9c-0.9,0.6-1.7,1.2-2.4,1.6c-0.6-0.3-1.4-0.8-2.2-1.3
		c-3.2-2-7.5-4.7-13.9-5.3c-0.3,0-0.7,0-1,0c-0.7,0-1.4,0.1-2.1,0.3c0.9-3.4,1.8-6.5,2.7-10c0.7-2.8,1.4-5.4,2.3-8.1
		c0.3-0.9,0-1.6-0.2-1.9C9.9,4,8.6,4,8.1,4C7.7,4,7.3,4.1,7,4.1l-0.1,0C6.1,4.2,5.4,4.7,5.3,5.4L2.1,27.2c-1,1.1-1.6,2.4-1.9,3.7
		l0,0.1c0,0.1-0.5,3.5,0,5.8c0.2,1,0.4,1.9,1.3,3.3c0,0,0,0,0,0c1.3,2.4,4.2,5.3,7.5,5.7c6,0.7,13.5-4.7,15.9-4.6
		c2.1,0.1,9.3,5.3,15.3,4.8c3.9-0.3,7.2-3.2,8.2-5.9l0,0c0.7-1.2,1.1-2.3,1.3-3.3C50.3,34.5,49.8,31.2,49.8,31L49.8,31L49.8,31z"/>
</g>
<path class="st1" d="M0.6,38.2c0,0,3.4,6.9,7.7,7.5c1.6,0.2,3.6,0.2,5.5-0.3c4.1-1.1,8.3-3.4,10.3-4c0.7-0.2,1-0.3,1.5,0
	c1.9,0.9,6.8,3.2,9,3.8c2.9,0.9,6.6,1.5,10.3-0.9c3.6-2.3,4.7-6.7,4.7-6.7s0.8-2.3-0.3-1c-0.8,1-0.1,2-4,5.2c-4.1,3.4-5.9,3-7.4,2.3
	c-1.7-0.7-11.8-4.5-12.9-4.5c-1.6,0-11.9,5-15.3,4.9s-8-6.8-8.3-7.5S-0.8,33.4,0.6,38.2z"/>
<ellipse class="st1" cx="25" cy="35.7" rx="1" ry="4.1"/>
</svg>
