<?xml version="1.0" encoding="utf-8"?>
<!-- Generator: Adobe Illustrator 19.0.0, SVG Export Plug-In . SVG Version: 6.00 Build 0)  -->
<svg version="1.1" id="图层_1" xmlns="http://www.w3.org/2000/svg" xmlns:xlink="http://www.w3.org/1999/xlink" x="0px" y="0px"
	 viewBox="-277.5 409.3 25 23" style="enable-background:new -277.5 409.3 25 23;" xml:space="preserve">
<style type="text/css">
	.st0{fill:#33A9FC;}
</style>
<path class="st0" d="M-253.1,411.1h-4.6v-1.8h-0.9v1.8h-5.6v-1.8h-1v1.8h-6.1v-1.8h-1v1.8h-4.6c-0.3,0-0.6,0.3-0.6,0.7v19.8
	c0,0.4,0.3,0.7,0.6,0.7h23.8c0.3,0,0.6-0.3,0.6-0.7v-19.8C-252.5,411.4-252.8,411.1-253.1,411.1z M-253.7,431h-22.6v-18.5h4v0.5h1
	v-0.5h6.1v0.5h1v-0.5h5.6v0.5h0.9v-0.5h4L-253.7,431L-253.7,431z"/>
<path class="st0" d="M-273.5,415.2h3.7v2.7h-3.7V415.2z"/>
<path class="st0" d="M-266.8,415.2h3.7v2.7h-3.7V415.2z"/>
<path class="st0" d="M-260.2,415.2h3.7v2.7h-3.7V415.2z"/>
<path class="st0" d="M-273.5,420.2h3.7v2.7h-3.7V420.2z"/>
<path class="st0" d="M-266.8,420.2h3.7v2.7h-3.7V420.2z"/>
<path class="st0" d="M-260.2,420.2h3.7v2.7h-3.7V420.2z"/>
<path class="st0" d="M-273.5,425.3h3.7v2.7h-3.7V425.3z"/>
<path class="st0" d="M-266.8,425.3h3.7v2.7h-3.7V425.3z"/>
<path class="st0" d="M-260.2,425.3h3.7v2.7h-3.7V425.3z"/>
</svg>
