<?xml version="1.0" encoding="utf-8"?>
<!-- Generator: Adobe Illustrator 19.0.0, SVG Export Plug-In . SVG Version: 6.00 Build 0)  -->
<svg version="1.1" id="图层_1" xmlns="http://www.w3.org/2000/svg" xmlns:xlink="http://www.w3.org/1999/xlink" x="0px" y="0px"
	 viewBox="0 0 50 50" style="enable-background:new 0 0 50 50;" xml:space="preserve">
<style type="text/css">
	.st0{fill-rule:evenodd;clip-rule:evenodd;fill:#02cd8b;}
</style>
<g>
	<path class="st0" d="M49,25c0-6.7-2.9-12.9-7.1-16.9C37.4,3.6,31.7,1,25,1C18.3,1,12.1,3.6,8.1,8.1C3.6,12.1,1,18.3,1,25
		c0,6.7,2.6,12.6,7.1,17.1c4,4.3,10.2,7.1,16.9,7.1c6.7,0,12.4-2.9,16.9-7.1C46.2,37.6,49,31.7,49,25L49,25z M42.6,7.4
		C47.1,11.7,50,17.9,50,25c0,6.9-2.9,13.1-7.4,17.9C37.9,47.4,31.9,50,25,50c-7.1,0-13.3-2.6-17.6-7.1C2.9,38.1,0,31.9,0,25
		c0-7.1,2.9-13.3,7.4-17.6C11.7,2.9,17.9,0,25,0C31.9,0,37.9,2.9,42.6,7.4L42.6,7.4z"/>
	<polygon class="st0" points="23.7,12.2 23.7,23.8 12.1,23.8 12.1,26.5 23.7,26.5 23.7,38.1 26.3,38.1 26.3,26.5 37.9,26.5 
		37.9,23.8 26.3,23.8 26.3,12.2 23.7,12.2 	"/>
</g>
</svg>
