<?xml version="1.0" encoding="utf-8"?>
<!-- Generator: Adobe Illustrator 19.0.0, SVG Export Plug-In . SVG Version: 6.00 Build 0)  -->
<svg version="1.1" id="图层_1" xmlns="http://www.w3.org/2000/svg" xmlns:xlink="http://www.w3.org/1999/xlink" x="0px" y="0px"
	 viewBox="-4.8 1.5 60 47.9" style="enable-background:new -4.8 1.5 60 47.9;" xml:space="preserve">
<style type="text/css">
	.st0{fill:#588FFF;}
</style>
<g>
	<path class="st0" d="M-4.8,9v33.1c0,3,0.6,3.6,3.6,3.6h41.9c3,0,3.6-0.6,3.6-3.6V9c0-3-0.6-3.6-3.6-3.6H-1C-4,5.4-4.8,5.9-4.8,9
		L-4.8,9z M38.7,37.3H1c4.1-6.1,11.4-16,13.3-16c1.8,0,7.9,8,10.7,10.9c0,0,3.5-4.7,5.3-4.7C32.2,27.5,38.5,37.2,38.7,37.3
		L38.7,37.3z M27.6,16.4c0-2.5,2.1-4.5,4.5-4.5s4.5,2.1,4.5,4.5c0,2.5-2.1,4.5-4.5,4.5S27.6,18.8,27.6,16.4L27.6,16.4z M18.3,3.1
		l-7.2-1.3C8.7,1.2,7.8,1.5,7.2,3.1H18.3L18.3,3.1z M52.1,9.5l-5.6-1.1c0,0.1,0,0.2,0,0.4v33.4c0,1.6-0.1,3.3-1.3,4.5
		s-2.9,1.2-4.5,1.2h-3.4l7.2,1.3c3,0.6,3.8,0.1,4.2-2.9l6.2-32.5C55.7,10.8,55.2,10.1,52.1,9.5L52.1,9.5z"/>
</g>
</svg>
