<?xml version="1.0" encoding="utf-8"?>
<!-- Generator: Adobe Illustrator 19.0.0, SVG Export Plug-In . SVG Version: 6.00 Build 0)  -->
<svg version="1.1" id="图层_1" xmlns="http://www.w3.org/2000/svg" xmlns:xlink="http://www.w3.org/1999/xlink" x="0px" y="0px"
	 viewBox="1 -1 40 40" style="enable-background:new 1 -1 40 40;" xml:space="preserve">
<style type="text/css">
	.st0{fill:#6E6E6E;stroke:#6E6E6E;stroke-width:0.2;stroke-miterlimit:10;}
	.st1{fill:#6E6E6E;}
</style>
<path class="st0" d="M31.4,17.1C31.4,17.1,31.5,17.1,31.4,17.1c0.2,0,0.3,0,0.4-0.1c0.1-0.1,0.1-0.2,0.1-0.3v-3.8
	c0-0.6-0.5-1.1-1.1-1.1H11.1c-0.6,0-1.1,0.5-1.1,1.1v12.4c0,0.6,0.5,1.1,1.1,1.1h19.7c0.6,0,1.1-0.5,1.1-1.1v-3.9
	c0-0.1-0.1-0.2-0.1-0.3C31.7,21,31.6,21,31.5,21h-0.1c-1,0-1.9-0.8-1.9-1.9C29.5,17.9,30.4,17.1,31.4,17.1L31.4,17.1z M31.1,21.7
	v3.4c0,0.1-0.1,0.2-0.2,0.2H11.2c-0.1,0-0.2-0.1-0.2-0.2V12.7c0-0.1,0.1-0.2,0.2-0.2h19.7c0.1,0,0.2,0.1,0.2,0.2v3.4
	c-1.4,0.2-2.4,1.3-2.4,2.8C28.6,20.4,29.7,21.6,31.1,21.7L31.1,21.7z"/>
<path class="st0" d="M14,13.7h0.5v0.6H14V13.7L14,13.7z"/>
<path class="st0" d="M14,17.5h0.5v1.2H14V17.5L14,17.5z"/>
<path class="st0" d="M14,15.3h0.5v1.2H14V15.3L14,15.3z"/>
<path class="st0" d="M14,21.9h0.5v1.2H14V21.9L14,21.9z"/>
<path class="st0" d="M14,19.7h0.5v1.2H14V19.7L14,19.7z"/>
<path class="st0" d="M14,24.1h0.5v0.6H14V24.1L14,24.1z"/>
<path class="st0" d="M25.8,13.9h0.5v0.6h-0.5V13.9L25.8,13.9z"/>
<path class="st0" d="M25.8,21.7h0.5v1.2h-0.5V21.7L25.8,21.7z"/>
<path class="st0" d="M25.8,19.6h0.5v1.2h-0.5V19.6L25.8,19.6z"/>
<path class="st0" d="M25.8,15.4h0.5v1.2h-0.5V15.4L25.8,15.4z"/>
<path class="st0" d="M25.8,17.5h0.5v1.2h-0.5V17.5L25.8,17.5z"/>
<path class="st0" d="M25.8,23.8h0.5v0.6h-0.5V23.8L25.8,23.8z"/>
<path class="st0" d="M22,15.4c0,0-1.8,2.9-1.9,3.1l0,0c-0.2-0.4-1-1.5-1.9-3.1h-1l2,3.3h-1.6v0.7h2.1v0.9h-2.1V21h2.1v1.9h0.9V21h2
	v-0.7h-2v-0.9h2v-0.7H21l2-3.3H22L22,15.4z"/>
<path class="st1" d="M21,39C10,39,1,30,1,19S10-1,21-1s20,9,20,20S32.1,39,21,39L21,39z M21,0.3C10.7,0.3,2.3,8.7,2.3,19
	c0,10.3,8.4,18.7,18.7,18.7c10.3,0,18.7-8.4,18.7-18.7C39.7,8.7,31.3,0.3,21,0.3L21,0.3z"/>
</svg>
