<?xml version="1.0" encoding="utf-8"?>
<!-- Generator: Adobe Illustrator 19.0.0, SVG Export Plug-In . SVG Version: 6.00 Build 0)  -->
<svg version="1.1" id="图层_1" xmlns="http://www.w3.org/2000/svg" xmlns:xlink="http://www.w3.org/1999/xlink" x="0px" y="0px"
	 viewBox="-294.7 391.2 59.5 59.5" style="enable-background:new -294.7 391.2 59.5 59.5;" xml:space="preserve">
<style type="text/css">
	.st0{fill:#E6E6E6;}
</style>
<path class="st0" d="M-264.9,391.2c-16.4,0-29.8,13.3-29.8,29.8c0,4.6,1,9,2.9,12.9v0c0,0,0,0,0,0c0,0,0,0,0,0c0,0,0,0,0,0
	c0.2,0.3,0.8,0.2,1.3,0c0.6-0.3,0.8-0.8,0.7-1.2c-1.7-3.6-2.6-7.5-2.6-11.7c0-15.2,12.3-27.4,27.4-27.4c15.2,0,27.4,12.3,27.4,27.4
	c0,15.2-12.3,27.4-27.4,27.4c-4.8,0-9.4-1.3-13.3-3.5c0,0,0,0,0,0c-0.3-0.2-0.9,0-1.3,0.5c-0.4,0.5-0.4,1.2-0.1,1.4c0,0,0,0,0,0
	c4.3,2.5,9.3,3.9,14.7,3.9c16.4,0,29.8-13.3,29.8-29.8C-235.2,404.5-248.5,391.2-264.9,391.2z"/>
<path class="st0" d="M-287.8,440.1c0,0.9,0.7,1.6,1.6,1.6s1.6-0.7,1.6-1.6s-0.7-1.6-1.6-1.6S-287.8,439.3-287.8,440.1z"/>
<path class="st0" d="M-273.3,433.5c0,0.5,0.4,0.9,0.9,0.9c0.2,0,0.4-0.1,0.5-0.2l21.3-12.3c0.4-0.1,0.7-0.5,0.7-0.9
	c0-0.4-0.3-0.8-0.7-0.9l-21.2-12.2c-0.2-0.1-0.4-0.2-0.6-0.2c-0.5,0-0.9,0.4-0.9,0.9c0,0.1,0,0.1,0,0.2v24.7
	C-273.3,433.4-273.3,433.4-273.3,433.5z M-271,412.5c0-0.3,0.3-0.6,0.6-0.6c0.2,0,0.3,0.1,0.4,0.1l14.3,8.3c0.3,0.1,0.4,0.3,0.4,0.6
	s-0.2,0.5-0.4,0.6l-14.4,8.3c-0.1,0.1-0.2,0.1-0.3,0.1c-0.3,0-0.6-0.3-0.6-0.6c0,0,0-0.1,0-0.1l0-16.6
	C-271,412.6-271,412.6-271,412.5z"/>
</svg>
