<?xml version="1.0" encoding="utf-8"?>
<!-- Generator: Adobe Illustrator 19.0.0, SVG Export Plug-In . SVG Version: 6.00 Build 0)  -->
<svg version="1.1" id="图层_1" xmlns="http://www.w3.org/2000/svg" xmlns:xlink="http://www.w3.org/1999/xlink" x="0px" y="0px"
	 viewBox="0 0 50 50" style="enable-background:new 0 0 50 50;" xml:space="preserve">
<style type="text/css">
	.st0{fill-rule:evenodd;clip-rule:evenodd;fill:#FFC176;}
	.st1{fill-rule:evenodd;clip-rule:evenodd;fill:#FFB56C;}
</style>
<path class="st0" d="M2.1,23.8c0,0-5.3-9.6,0.8-16.9c0,0,5.7-6,12-3c0,0,2.6,2.1,6.3,2.6c-1.8,0.7-4.4,1.3-7.5,1.1
	c0,0-2.8,0.1-0.4,0.8c8.1,0.1,10.7-1.1,15.1-3.5c-0.9,1.6-1.4,3.4-1.4,5.4c0,6.2,5.4,11.3,12.1,11.3c0.8,0,1.6-0.1,2.3-0.2
	c-0.6,1.4-1.4,2.7-2.5,3.8c0,0-6.5,4.1-7.9,18.9c0,0-2.2,12.3-6.2-0.2c0,0-1.8-6-1.1-11.5c0,0,0.2-4.4,3.9-6.7c0,0,3.1-1.7-0.7-0.8
	c0,0-7.1,1.2-8,14.1l-0.3,3.8c0.1-2-0.8,6-2.5,7.1c-1.2,0.7-2.7-0.4-4.7-6.3c0,0-0.7-6.2-3.1-10.9C8,32.6,2.5,25.4,2.1,23.8
	L2.1,23.8L2.1,23.8z M34.4,3.5c-2.4,1.4-4,3.9-4,6.8c0,4.4,3.8,8,8.6,8c1.2,0,2.4-0.2,3.5-0.7c0.7-3.9,0.1-7.2,0.1-7.2
	C40.7,5.1,37.3,3.6,34.4,3.5L34.4,3.5L34.4,3.5z M40.1,19l-0.2,0C40,19,40.1,19,40.1,19L40.1,19L40.1,19z M39.9,19.1L39.9,19.1
	c-0.1,0-0.1,0-0.2,0C39.7,19.1,39.8,19.1,39.9,19.1L39.9,19.1z M39.7,19.1l-0.2,0C39.5,19.1,39.6,19.1,39.7,19.1L39.7,19.1
	L39.7,19.1z M39.4,19.1L39.4,19.1c-0.2,0-0.3,0-0.5,0C39.1,19.1,39.3,19.1,39.4,19.1L39.4,19.1z M29.4,10.3c0-0.1,0-0.1,0-0.2
	C29.4,10.1,29.4,10.2,29.4,10.3L29.4,10.3L29.4,10.3z M29.5,9.8l0-0.2C29.5,9.7,29.5,9.7,29.5,9.8L29.5,9.8L29.5,9.8z M29.6,8.7
	c0-0.1,0-0.1,0-0.2C29.6,8.6,29.6,8.6,29.6,8.7L29.6,8.7L29.6,8.7z M40.3,20.4l-0.2,0C40.1,20.5,40.2,20.4,40.3,20.4L40.3,20.4
	L40.3,20.4z M39.2,20.5c-0.1,0-0.2,0-0.3,0C39,20.5,39.1,20.5,39.2,20.5L39.2,20.5L39.2,20.5z M27.9,10.3L27.9,10.3
	c0-0.1,0-0.2,0-0.3C27.9,10.1,27.9,10.2,27.9,10.3L27.9,10.3z M27.9,10c0-0.1,0-0.2,0-0.2C27.9,9.8,27.9,9.9,27.9,10L27.9,10
	L27.9,10z M27.9,9.7L27.9,9.7c0-0.1,0-0.2,0-0.2C28,9.6,28,9.6,27.9,9.7L27.9,9.7z M28,9.5c0-0.1,0-0.2,0-0.2C28,9.3,28,9.4,28,9.5
	L28,9.5L28,9.5z M28.3,7.7l0.1-0.2C28.3,7.5,28.3,7.6,28.3,7.7L28.3,7.7z M38.9,0c6.1,0,11,4.6,11,10.3c0,5.7-4.9,10.3-11,10.3
	c-6.1,0-11-4.6-11-10.3S32.9,0,38.9,0L38.9,0L38.9,0z M38.9,1.4c-5.2,0-9.5,4-9.5,8.8c0,4.9,4.2,8.8,9.5,8.8c5.2,0,9.5-4,9.5-8.8
	C48.4,5.4,44.2,1.4,38.9,1.4L38.9,1.4z M45,20.2l1.7,3.1c-0.5,1.3-1.3,1.5-2.4,1.1l-1.7-3.3C43.4,21,44.2,20.6,45,20.2L45,20.2z
	 M10,11.4c-1,0-1.9,0.8-1.9,1.9S9,15.2,10,15.2s1.9-0.8,1.9-1.9S11.1,11.4,10,11.4z M17.9,10.9c-0.5,0-0.9,0.4-0.9,0.9
	s0.4,0.9,0.9,0.9s0.9-0.4,0.9-0.9S18.5,10.9,17.9,10.9z"/>
<path class="st1" d="M16.1,46.7L16.1,46.7c0.6-1.6,0.9-3.2,1-4.9c0.1-2.2,0.6-5.2,0.9-6.4c0.5-2.5,0.3-3.6,1.9-6
	c1.5-2.4,1-1.9,2.9-3.9s5-2,5-2s2.2-0.4,2,0.9c-0.2,1.4-2,2.5-2.8,3.1c-0.1,0.1,0.1-0.3-1,1.4l-0.7,1.7c0.1-0.5,0.1-0.2,0,0
	l-0.5,3.9c-0.1,0.2-0.1,0.4-0.1,0.6l0.2,4.6c0,0.1,0,0.2,0.1,0.4l0.9,3.9c0,0.1,0.1,0.3,0.2,0.4l1.6,3.3c0,0.1,0.1,0.1,0.1,0.2
	l0.6,1.5c0,0-0.3,0.4-1,0c-0.9-0.5-2-2.8-2.4-3.6c-0.1-0.1-0.7-2-0.7-2.1l-0.5-2c0-0.2-0.5-3.1-0.5-3.2c0-0.8-0.3-2.3-0.2-4.2
	c0.1-1.5,0.1-2.1,0.3-2.9c0.3-1.3,0.5-1.9,0.9-2.6c0.7-1.2,2.3-2.7,3.4-3.4c1.9-1.2-1.7-0.2-2.6,0.1c-0.1,0.1-0.3,0.1-0.4,0.2
	c-0.4,0.3-1.3,1-2.4,2.2c-1.1,1.3-1.6,2.4-1.8,2.7c-0.1,0.1-0.1,0.3-0.2,0.4l-1.2,3.7c0,0.1-0.2,0.7-0.2,0.8l-0.5,3.5
	c0,0.1,0,0.5,0,0.6l-0.1,1.1c0,0.1,0,0.7,0,0.7c-0.2,1.2-0.4,3.2-0.9,5c0,0.1,0,0.1-0.1,0.2l-0.7,1.9c0,0-1,2.3-2,1.6
	c-0.4-0.2,0.8-2.3,1.2-2.9C16,46.9,16.1,46.8,16.1,46.7z"/>
</svg>
