<?xml version="1.0" encoding="utf-8"?>
<!-- Generator: Adobe Illustrator 19.0.0, SVG Export Plug-In . SVG Version: 6.00 Build 0)  -->
<svg version="1.1" id="图层_1" xmlns="http://www.w3.org/2000/svg" xmlns:xlink="http://www.w3.org/1999/xlink" x="0px" y="0px"
	 viewBox="0 0 50 50" style="enable-background:new 0 0 50 50;" xml:space="preserve">
<style type="text/css">
	.st0{fill-rule:evenodd;clip-rule:evenodd;fill:#EFABFF;}
</style>
<g>
	<polygon class="st0" points="22,0 21.7,0 21.4,0 21.1,0 20.9,0.1 20.6,0.1 20.3,0.1 20,0.1 19.8,0.2 19.5,0.2 19.2,0.3 19,0.3 
		18.7,0.3 18.5,0.4 18.2,0.4 18,0.5 17.7,0.6 17.5,0.6 17.2,0.7 17,0.7 16.8,0.8 16.5,0.9 16.3,1 16.1,1 15.8,1.1 15.6,1.2 
		15.4,1.3 15.2,1.4 15,1.5 14.7,1.6 14.5,1.7 14.3,1.8 14.1,1.9 13.9,2 13.7,2.1 13.5,2.2 13.3,2.3 13.1,2.4 12.9,2.5 12.7,2.6 
		12.6,2.8 12.4,2.9 12.2,3 12,3.1 11.8,3.3 11.7,3.4 11.5,3.5 11.3,3.7 11.2,3.8 11,3.9 10.8,4.1 10.7,4.2 10.5,4.3 10.4,4.5 
		10.2,4.6 10.1,4.8 9.9,4.9 9.8,5.1 9.6,5.2 9.5,5.4 9.4,5.5 9.2,5.7 9.1,5.9 9,6 8.8,6.2 8.7,6.3 8.6,6.5 8.5,6.7 8.3,6.8 8.2,7 
		8.1,7.2 8,7.3 7.9,7.5 7.8,7.7 7.7,7.8 7.6,8 7.5,8.2 7.4,8.4 7.3,8.5 7.2,8.7 7.1,8.9 7,9.1 6.9,9.2 6.8,9.4 6.7,9.6 6.7,9.8 
		6.6,9.9 6.5,10.1 6.4,10.3 6.3,10.5 6.3,10.7 6.2,10.8 6.1,11 6.1,11.2 6,11.4 6,11.6 5.9,11.7 5.8,11.9 5.8,12.1 5.7,12.3 
		5.7,12.5 5.6,12.7 5.6,12.8 5.5,13 5.5,13.2 5.5,13.4 5.4,13.6 5.4,13.7 5.3,13.9 5.3,14.1 5.3,14.3 5.3,14.4 5.2,14.6 5.2,14.8 
		5.2,15 5.2,15.2 5.1,15.3 5.1,15.5 5.1,15.7 5.1,15.9 5.1,16 5.1,16.2 5.1,16.4 5.1,16.5 5.1,16.7 5.1,16.9 5.1,17 5.1,17.2 
		5.1,17.5 5.1,17.7 5.1,17.9 5.1,18.1 5.1,18.3 5.1,18.5 5.1,18.7 5.1,18.8 5.2,19 5.2,19.2 5.2,19.4 5.2,19.6 5.2,19.8 5.3,20 
		5.3,20.2 5.3,20.3 5.4,20.5 5.4,20.7 5.4,20.9 5.5,21 5.5,21.2 5.5,21.4 5.6,21.7 5.7,21.9 5.7,22.1 5.8,22.2 5.8,22.4 5.9,22.5 
		5.9,22.7 6,22.9 6,23 6.1,23.2 6.2,23.5 6.2,23.6 6.3,23.8 6.3,23.9 6.5,24.2 6.5,24.4 6.6,24.5 6.7,24.7 6.7,24.8 6.8,24.9 
		6.9,25.1 6.9,25.2 7,25.4 7.1,25.5 7.1,25.6 7.2,25.8 7.3,25.9 7.3,26 7.5,26.3 7.6,26.6 7.8,26.8 7.9,27.1 8.1,27.3 8.1,27.4 
		8.2,27.6 8.3,27.7 8.4,27.8 8.5,28 8.6,28.1 8.7,28.2 8.8,28.4 8.9,28.5 9,28.6 9.1,28.8 9.2,28.9 9.3,29 9.4,29.2 9.6,29.3 
		9.7,29.4 9.8,29.6 10,29.7 10.1,29.8 10.2,30 10.4,30.1 10.5,30.3 10.7,30.4 10.8,30.5 11,30.6 11.1,30.8 11.3,30.9 11.4,31 
		11.6,31.2 11.8,31.3 11.9,31.4 12.1,31.5 12.3,31.6 12.4,31.8 12.6,31.9 12.8,32 13,32.1 13.2,32.2 13.4,32.3 13.6,32.4 13.8,32.5 
		13.9,32.6 14.1,32.7 14.3,32.8 14.5,32.9 14.8,32.9 15,33 15.2,33.1 15.4,33.2 15.6,33.2 15.8,33.3 16,33.4 16.3,33.4 16.5,33.5 
		16.6,33.5 16.7,33.5 16.8,33.5 16.9,33.6 17,33.6 17.2,33.6 17.4,33.6 17.5,33.7 17.6,33.7 17.9,33.7 18,33.7 18.1,33.7 18.2,33.7 
		18.3,33.7 18.4,33.7 18.6,33.7 18.8,33.7 19,33.7 19.2,33.7 19.4,33.7 19.6,33.6 19.9,33.6 20,33.5 20.2,33.5 20.4,33.4 20.6,33.3 
		20.8,33.2 21,33.1 21.1,33 21.3,32.9 21.5,32.8 21.6,32.7 21.8,32.5 21.9,32.4 22,32.2 22.2,32.1 22.3,31.9 22.4,31.8 22.5,31.6 
		22.6,31.4 22.6,31.2 22.7,31 22.8,30.8 22.8,30.6 22.9,30.4 22.9,30.2 23,30 23,29.8 23,29.6 23,29.4 23,29.2 22.9,29 22.9,28.8 
		22.8,28.6 22.8,28.4 22.7,28.2 22.6,28 22.6,27.8 22.5,27.7 22.4,27.5 22.3,27.3 22.2,27.2 22,27 21.9,26.9 21.8,26.7 21.6,26.6 
		21.5,26.4 21.3,26.3 21.1,26.2 21,26.1 20.8,26 20.6,25.9 20.4,25.8 20.2,25.8 20,25.7 19.9,25.6 19.6,25.6 19.4,25.6 19.2,25.5 
		19,25.5 18.8,25.5 18.6,25.5 18.5,25.5 18.3,25.5 18.1,25.5 18,25.6 17.8,25.6 17.7,25.6 17.6,25.6 17.4,25.7 17.3,25.7 17.2,25.8 
		17.1,25.8 17,25.8 16.8,25.9 16.6,26 16.3,26.2 16.1,26.2 15.9,26.3 15.8,26.4 15.6,26.5 15.4,26.5 15.3,26.6 15.1,26.6 14.9,26.6 
		14.8,26.6 14.6,26.6 14.4,26.6 14.3,26.5 14.1,26.5 14,26.4 13.8,26.4 13.7,26.3 13.6,26.2 13.4,26.1 13.2,26 13.1,25.9 12.9,25.7 
		12.8,25.6 12.6,25.4 12.5,25.3 12.4,25.1 12.3,24.9 12.1,24.7 12,24.5 11.9,24.3 11.8,24.1 11.7,23.9 11.6,23.7 11.5,23.5 
		11.4,23.3 11.3,23.1 11.2,22.9 11.1,22.7 11,22.5 10.9,22.3 10.9,22 10.8,21.8 10.7,21.6 10.7,21.4 10.6,21.2 10.6,20.9 10.5,20.7 
		10.5,20.5 10.4,20.3 10.4,20 10.4,19.8 10.3,19.6 10.3,19.3 10.3,19.1 10.3,18.9 10.3,18.6 10.3,18.4 10.3,18.2 10.3,18 10.3,17.9 
		10.3,17.7 10.3,17.5 10.3,17.4 10.3,17.2 10.3,17.1 10.3,16.9 10.3,16.7 10.4,16.6 10.4,16.4 10.4,16.1 10.5,15.8 10.5,15.7 
		10.5,15.5 10.6,15.4 10.6,15.2 10.6,15.1 10.7,14.9 10.7,14.8 10.8,14.6 10.8,14.5 10.9,14.3 10.9,14.2 11,14 11,13.9 11.1,13.8 
		11.1,13.6 11.2,13.5 11.2,13.3 11.3,13.2 11.4,13.1 11.4,12.9 11.5,12.8 11.6,12.7 11.6,12.5 11.7,12.4 11.8,12.3 11.8,12.1 
		11.9,12 12,11.9 12.1,11.7 12.2,11.6 12.2,11.5 12.3,11.4 12.4,11.2 12.5,11.1 12.6,11 12.7,10.9 12.8,10.7 12.8,10.6 12.9,10.5 
		13,10.4 13.1,10.3 13.2,10.2 13.3,10 13.4,9.9 13.5,9.8 13.6,9.7 13.7,9.6 13.8,9.5 13.9,9.4 14.1,9.3 14.2,9.2 14.3,9.1 14.4,9 
		14.5,8.9 14.6,8.8 14.7,8.7 14.8,8.6 15,8.5 15.1,8.4 15.2,8.3 15.3,8.2 15.4,8.1 15.6,8 15.7,8 15.8,7.9 15.9,7.8 16.1,7.7 
		16.2,7.6 16.3,7.5 16.4,7.5 16.6,7.4 16.7,7.3 16.8,7.2 17,7.2 17.1,7.1 17.3,7 17.4,7 17.5,6.9 17.7,6.8 17.8,6.8 17.9,6.7 
		18.1,6.7 18.2,6.6 18.4,6.6 18.5,6.5 18.7,6.5 18.8,6.4 19,6.4 19.1,6.3 19.2,6.3 19.4,6.2 19.5,6.2 19.7,6.1 19.8,6.1 20,6.1 
		20.2,6 20.3,6 20.5,6 20.6,5.9 20.8,5.9 20.9,5.9 21.1,5.9 21.2,5.8 21.4,5.8 21.6,5.8 21.7,5.8 21.9,5.8 22,5.8 22.2,5.8 
		22.4,5.8 22.5,5.8 22.7,5.7 22.8,5.7 23.1,5.7 23.3,5.8 23.6,5.8 23.8,5.8 24.1,5.8 24.3,5.8 24.5,5.8 24.8,5.9 25,5.9 25.2,5.9 
		25.5,6 25.7,6 25.9,6 26.1,6.1 26.3,6.1 26.6,6.2 26.8,6.3 27,6.3 27.2,6.4 27.4,6.4 27.6,6.5 27.8,6.6 28,6.7 28.2,6.7 28.4,6.8 
		28.6,6.9 28.8,7 28.9,7.1 29.1,7.2 29.3,7.2 29.5,7.3 29.7,7.4 29.8,7.5 30,7.6 30.2,7.8 30.4,7.9 30.5,8 30.7,8.1 30.8,8.2 
		31,8.3 31.2,8.4 31.3,8.6 31.5,8.7 31.6,8.8 31.8,8.9 31.9,9.1 32.1,9.2 32.2,9.3 32.3,9.5 32.5,9.6 32.6,9.7 32.8,9.9 32.9,10 
		33,10.2 33.1,10.3 33.3,10.5 33.4,10.6 33.5,10.8 33.6,10.9 33.8,11.1 33.9,11.2 34,11.4 34.1,11.5 34.2,11.7 34.3,11.8 34.4,12 
		34.5,12.2 34.6,12.3 34.7,12.5 34.8,12.7 34.9,12.8 35,13 35.1,13.2 35.2,13.3 35.3,13.5 35.5,13.8 35.5,14 35.6,14.2 35.7,14.4 
		35.8,14.5 35.9,14.7 35.9,14.9 36,15.1 36.1,15.2 36.1,15.4 36.2,15.6 36.3,15.8 36.3,15.9 36.4,16.1 36.5,16.3 36.5,16.5 
		36.6,16.7 36.6,16.8 36.7,17.2 36.8,17.4 36.9,17.7 37,18.1 37,18.3 37,18.5 37.1,18.6 37.1,19 37.2,19.2 37.2,19.3 37.2,19.5 
		37.3,19.9 37.3,20 37.3,20.2 37.4,20.4 37.4,20.6 37.4,20.7 37.4,20.9 37.4,21.1 37.4,21.3 37.5,21.4 37.5,21.6 37.5,21.8 
		37.5,21.9 37.5,22.1 37.5,22.2 37.5,22.4 37.5,22.6 37.5,22.9 37.5,23.1 37.5,23.3 37.5,23.4 37.5,23.6 37.5,23.8 37.5,24 
		37.5,24.1 37.5,24.3 37.5,24.5 37.4,24.7 37.4,24.8 37.4,25 37.4,25.2 37.4,25.3 37.4,25.5 37.4,25.7 37.3,25.8 37.3,26 37.3,26.2 
		37.3,26.3 37.3,26.5 37.2,26.7 37.2,26.8 37.2,27 37.2,27.1 37.1,27.3 37.1,27.5 37.1,27.6 37,27.8 37,27.9 37,28.1 37,28.2 
		36.9,28.4 36.9,28.5 36.8,28.7 36.8,28.8 36.8,29 36.7,29.1 36.7,29.3 36.7,29.4 36.6,29.6 36.5,29.9 36.5,30.2 36.4,30.5 
		36.3,30.7 36.2,31 36.1,31.3 36,31.6 35.9,31.8 35.8,32.1 35.7,32.4 35.6,32.6 35.4,32.9 35.3,33.2 35.2,33.4 35.1,33.7 35,33.9 
		34.8,34.1 34.7,34.4 34.6,34.6 34.4,34.9 34.3,35.1 34.2,35.3 34,35.5 33.9,35.8 33.7,36 33.6,36.2 33.4,36.4 33.3,36.6 33.1,36.8 
		33,37 32.8,37.2 32.7,37.4 32.5,37.6 32.3,37.8 32.2,38 32,38.1 31.8,38.3 31.7,38.5 31.5,38.7 31.3,38.8 31.2,39 31,39.1 
		30.8,39.3 30.7,39.4 30.6,39.5 30.5,39.6 30.4,39.6 30.2,39.7 30.1,39.8 30,39.8 29.8,39.9 29.7,39.9 29.6,39.9 29.5,39.8 
		29.4,39.7 29.4,39.5 29.4,39.3 29.5,39.1 29.5,38.9 29.6,38.8 29.7,38.6 29.9,38.4 30.1,38.2 30.2,38 30.3,37.8 30.4,37.7 
		30.6,37.5 30.7,37.3 30.8,37.1 30.9,36.9 31,36.7 31.2,36.5 31.3,36.3 31.4,36.1 31.5,35.9 31.6,35.7 31.7,35.5 31.8,35.2 31.9,35 
		32,34.8 32.1,34.6 32.2,34.4 32.3,34.2 32.4,33.9 32.5,33.7 32.6,33.5 32.7,33.3 32.8,33 32.9,32.8 33,32.5 33,32.3 33.1,32.1 
		33.2,31.8 33.3,31.6 33.3,31.3 33.4,31.1 33.5,30.8 33.5,30.6 33.6,30.3 33.7,30.1 33.7,29.8 33.8,29.5 33.8,29.3 33.9,29 
		33.9,28.7 34,28.5 34,28.2 34.1,27.9 34.1,27.6 34.1,27.3 34.2,27 34.2,26.8 34.2,26.5 34.3,26.2 34.3,25.9 34.3,25.6 34.3,25.3 
		34.4,25 34.4,24.6 34.4,24.3 34.4,24 34.4,23.7 34.4,23.4 34.4,23.1 34.4,22.7 34.4,22.5 34.4,22.3 34.4,22 34.4,21.8 34.4,21.5 
		34.4,21.3 34.3,21 34.3,20.7 34.3,20.5 34.2,20.2 34.2,19.9 34.1,19.7 34.1,19.4 34,19.1 34,18.8 33.9,18.5 33.8,18.2 33.8,17.9 
		33.7,17.7 33.6,17.4 33.5,17.2 33.5,17.1 33.4,16.9 33.4,16.8 33.3,16.6 33.3,16.5 33.2,16.3 33.2,16.2 33.1,16.1 33.1,15.9 
		33,15.8 32.9,15.6 32.9,15.5 32.8,15.3 32.7,15.2 32.7,15.1 32.6,14.9 32.5,14.8 32.5,14.6 32.4,14.5 32.3,14.4 32.2,14.2 
		32.2,14.1 32.1,13.9 32,13.8 31.9,13.7 31.8,13.5 31.7,13.4 31.6,13.3 31.5,13.2 31.5,13 31.4,12.9 31.3,12.8 31.2,12.6 31.1,12.5 
		31,12.4 30.9,12.3 30.8,12.2 30.6,12 30.5,11.9 30.4,11.8 30.3,11.7 30.2,11.6 30.1,11.5 30,11.4 29.8,11.3 29.7,11.2 29.6,11 
		29.5,10.9 29.3,10.8 29.2,10.7 29.1,10.6 28.9,10.6 28.8,10.5 28.7,10.4 28.5,10.3 28.4,10.2 28.2,10.1 28.1,10 27.9,10 27.8,9.9 
		27.6,9.8 27.5,9.7 27.3,9.7 27.2,9.6 27,9.5 26.8,9.5 26.7,9.4 26.5,9.3 26.3,9.3 26.1,9.2 26,9.2 25.8,9.1 25.6,9.1 25.4,9.1 
		25.2,9 25.1,9 24.9,8.9 24.7,8.9 24.5,8.9 24.3,8.9 24.1,8.8 23.9,8.8 23.7,8.8 23.5,8.8 23.3,8.8 23.1,8.8 22.8,8.8 22.7,8.8 
		22.6,8.8 22.5,8.8 22.4,8.8 22.2,8.8 22.1,8.8 22,8.8 21.9,8.8 21.8,8.8 21.6,8.9 21.5,8.9 21.4,8.9 21.3,8.9 21.2,8.9 21,9 
		20.9,9 20.8,9 20.7,9 20.6,9 20.5,9.1 20.4,9.1 20.2,9.1 20.1,9.2 20,9.2 19.9,9.2 19.8,9.3 19.7,9.3 19.6,9.4 19.4,9.4 19.1,9.5 
		18.9,9.6 18.7,9.7 18.5,9.8 18.3,9.9 18.1,10 17.9,10.1 17.7,10.3 17.5,10.4 17.3,10.5 17.2,10.7 17,10.8 16.8,10.9 16.6,11.1 
		16.4,11.2 16.3,11.4 16.1,11.5 16,11.7 15.8,11.9 15.6,12 15.5,12.2 15.4,12.4 15.2,12.6 15.1,12.7 15,12.9 14.8,13.1 14.7,13.3 
		14.6,13.5 14.5,13.7 14.4,13.9 14.3,14.1 14.2,14.3 14.1,14.5 14,14.7 13.9,14.9 13.8,15.2 13.8,15.4 13.7,15.6 13.6,15.8 
		13.6,16.1 13.5,16.3 13.5,16.5 13.4,16.7 13.4,17 13.4,17.2 13.4,17.5 13.3,17.7 13.3,17.9 13.3,18.2 13.3,18.4 13.3,18.5 
		13.3,18.7 13.4,18.9 13.4,19.1 13.4,19.3 13.4,19.5 13.5,19.6 13.6,19.4 13.7,19.1 13.8,18.8 13.9,18.6 14,18.4 14,18.3 14.1,18.2 
		14.2,18.1 14.3,17.9 14.3,17.8 14.4,17.7 14.5,17.6 14.6,17.5 14.7,17.3 14.8,17.2 14.9,17.1 14.9,17 15,16.9 15.1,16.8 15.2,16.7 
		15.3,16.6 15.5,16.5 15.6,16.4 15.7,16.3 15.8,16.2 15.9,16.1 16,16 16.1,15.9 16.3,15.8 16.4,15.7 16.5,15.6 16.6,15.6 16.8,15.5 
		16.9,15.4 17,15.3 17.2,15.3 17.3,15.2 17.5,15.1 17.6,15.1 17.8,15 17.9,14.9 18.1,14.9 18.2,14.8 18.4,14.8 18.5,14.7 18.7,14.7 
		18.9,14.7 19,14.6 19.2,14.6 19.4,14.5 19.5,14.5 19.7,14.5 19.9,14.5 20.1,14.4 20.3,14.4 20.4,14.4 20.6,14.4 20.8,14.4 21,14.4 
		21.2,14.4 21.4,14.4 21.5,14.4 21.6,14.5 21.7,14.6 21.6,14.8 21.5,14.9 21.4,15 21.2,15.1 21,15.2 20.8,15.2 20.6,15.3 20.5,15.4 
		20.3,15.5 20.1,15.6 19.9,15.7 19.7,15.9 19.6,16 19.4,16.1 19.3,16.2 19.1,16.3 19,16.4 18.8,16.6 18.7,16.7 18.5,16.8 18.4,16.9 
		18.3,17.1 18.2,17.2 18,17.3 17.9,17.5 17.8,17.6 17.7,17.8 17.6,17.9 17.5,18.1 17.4,18.3 17.3,18.4 17.2,18.5 17.1,18.7 17,18.8 
		17,19 16.9,19.1 16.8,19.3 16.7,19.4 16.7,19.6 16.6,19.7 16.6,19.9 16.5,20 16.5,20.2 16.4,20.3 16.3,20.6 16.3,20.9 16.2,21.2 
		16.2,21.5 16.1,21.7 16.1,22 16.1,22.3 16.1,22.5 16.1,22.8 16.1,23 16.1,23.2 16.3,23.3 16.5,23.2 16.6,23.2 16.8,23.1 16.9,23.1 
		17.1,23 17.3,23 17.4,23 17.6,22.9 17.8,22.9 17.9,22.9 18.1,22.9 18.3,22.8 18.5,22.8 18.6,22.8 18.8,22.8 19,22.8 19.2,22.8 
		19.3,22.8 19.5,22.9 19.7,22.9 19.8,22.9 20,22.9 20.2,23 20.3,23 20.5,23 20.7,23.1 20.8,23.1 21,23.2 21.1,23.2 21.3,23.3 
		21.4,23.3 21.6,23.4 21.8,23.5 21.9,23.5 22.1,23.6 22.2,23.7 22.3,23.8 22.5,23.9 22.6,24 22.8,24.1 22.9,24.2 23,24.3 23.2,24.4 
		23.3,24.5 23.4,24.6 23.6,24.7 23.7,24.8 23.8,24.9 23.9,25.1 24,25.2 24.1,25.3 24.2,25.4 24.3,25.6 24.4,25.7 24.5,25.8 24.6,26 
		24.7,26.1 24.8,26.3 24.9,26.4 25,26.6 25,26.7 25.1,26.9 25.2,27 25.2,27.2 25.3,27.3 25.4,27.5 25.4,27.6 25.4,27.8 25.5,28 
		25.5,28.1 25.6,28.3 25.6,28.4 25.6,28.6 25.6,28.8 25.7,28.9 25.7,29.1 25.7,29.3 25.7,29.4 25.7,29.6 25.7,29.8 25.7,30 
		25.7,30.1 25.7,30.3 25.6,30.5 25.6,30.6 25.6,30.8 25.6,31 25.5,31.1 25.5,31.3 25.4,31.4 25.4,31.6 25.4,31.8 25.3,31.9 
		25.2,32.1 25.2,32.2 25.1,32.4 25,32.5 25,32.7 24.9,32.8 24.8,33 24.7,33.1 24.6,33.2 24.5,33.4 24.4,33.5 24.3,33.7 24.2,33.8 
		24.1,33.9 24,34.1 23.9,34.2 23.8,34.3 23.7,34.4 23.6,34.5 23.4,34.7 23.3,34.8 23.2,34.9 23,35 22.9,35.1 22.8,35.2 22.6,35.3 
		22.5,35.4 22.3,35.5 22.2,35.5 22.1,35.6 21.9,35.7 21.8,35.8 21.6,35.8 21.4,35.9 21.3,36 21.1,36 21,36.1 20.8,36.1 20.7,36.2 
		20.5,36.2 20.3,36.3 20.2,36.3 20,36.3 19.8,36.3 19.7,36.4 19.5,36.4 19.3,36.4 19.2,36.4 19,36.4 18.8,36.4 18.6,36.4 18.4,36.4 
		18.2,36.4 18.1,36.4 17.9,36.5 17.7,36.5 17.5,36.5 17.3,36.5 17.2,36.5 17,36.6 16.8,36.6 16.7,36.6 16.5,36.6 16.3,36.7 
		16.2,36.7 16,36.8 15.8,36.8 15.7,36.8 15.5,36.9 15.4,36.9 15.2,37 15.1,37 14.9,37.1 14.8,37.2 14.7,37.2 14.5,37.3 14.4,37.3 
		14.2,37.4 14.1,37.5 14,37.5 13.9,37.6 13.7,37.7 13.6,37.8 13.5,37.8 13.4,37.9 13.2,38 13.1,38.1 13,38.2 12.9,38.2 12.8,38.3 
		12.7,38.4 12.6,38.5 12.5,38.6 12.4,38.7 12.3,38.8 12.2,38.9 12.1,39 12,39.1 11.9,39.3 11.7,39.5 11.5,39.7 11.4,39.9 11.3,40.1 
		11.1,40.3 11,40.6 10.9,40.8 10.8,41 10.7,41.2 10.7,41.4 10.6,41.6 10.5,41.8 10.5,42 10.4,42.2 10.4,42.4 10.3,42.6 10.3,42.8 
		10.3,43 10.2,43.3 10.2,43.5 10.2,43.7 10.2,43.9 10.2,44.1 10.2,44.3 10.2,44.5 10.2,44.8 10.2,45 10.2,45.2 10.2,45.4 10.2,45.6 
		10.3,45.8 10.3,46 10.4,46.2 10.4,46.5 10.5,46.7 10.5,46.9 10.6,47.1 10.7,47.3 10.7,47.5 10.8,47.7 10.9,47.9 11,48.1 11.1,48.3 
		11.2,48.5 11.3,48.7 11.4,48.8 11.6,49 11.7,49.2 11.8,49.4 12,49.6 12.1,49.7 12.3,49.9 12.4,50.1 12.6,50.2 12.8,50.4 13,50.5 
		13.2,50.7 13.3,50.8 13.5,51 13.7,51 13.8,51.1 14,51.2 14.1,51.3 14.2,51.3 14.3,51.4 14.4,51.5 14.5,51.5 14.7,51.6 14.8,51.6 
		14.9,51.7 15.2,51.8 15.4,51.9 15.5,51.9 15.7,52 15.8,52 15.9,52.1 16.1,52.1 16.2,52.2 16.4,52.2 16.5,52.2 16.7,52.3 16.9,52.3 
		17.1,52.4 17.3,52.4 17.6,52.4 17.8,52.4 18,52.5 18.2,52.5 18.3,52.5 18.6,52.5 18.7,52.5 18.8,52.5 18.9,52.5 19,52.5 19.1,52.5 
		19.3,52.5 19.4,52.5 19.5,52.5 19.6,52.4 19.7,52.4 19.9,52.4 20,52.4 20.1,52.4 20.2,52.4 20.3,52.4 20.5,52.4 20.6,52.3 
		20.7,52.3 20.8,52.3 21,52.3 21.1,52.3 21.2,52.2 21.3,52.2 21.5,52.2 21.6,52.2 21.7,52.1 21.9,52.1 22,52.1 22.1,52 22.2,52 
		22.4,52 22.5,51.9 22.6,51.9 22.8,51.9 22.9,51.8 23,51.8 23.2,51.7 23.3,51.7 23.4,51.7 23.6,51.6 23.7,51.6 23.8,51.5 24,51.5 
		24.1,51.4 24.2,51.4 24.4,51.3 24.5,51.3 24.6,51.2 24.8,51.2 25,51.1 25.3,50.9 25.6,50.8 25.8,50.7 26.1,50.6 26.4,50.4 
		26.7,50.3 26.9,50.2 27.2,50 27.5,49.9 27.7,49.7 28,49.6 28.3,49.4 28.6,49.2 28.8,49.1 29.1,48.9 29.4,48.7 29.7,48.5 29.9,48.3 
		30.2,48.2 30.5,48 30.7,47.8 31,47.6 31.3,47.4 31.5,47.1 31.7,47 31.8,46.9 31.9,46.8 32,46.7 32.2,46.6 32.3,46.5 32.4,46.4 
		32.6,46.3 32.7,46.2 32.8,46 33,45.9 33.1,45.8 33.2,45.7 33.3,45.6 33.5,45.5 33.6,45.3 33.7,45.2 33.8,45.1 34,45 34.1,44.8 
		34.2,44.7 34.3,44.6 34.5,44.5 34.6,44.3 34.7,44.2 34.8,44.1 34.9,43.9 35.1,43.8 35.2,43.7 35.3,43.6 35.4,43.4 35.5,43.3 
		35.7,43.1 35.8,43 35.9,42.9 36,42.7 36.1,42.6 36.2,42.5 36.3,42.3 36.5,42.2 36.6,42 36.7,41.9 36.8,41.7 36.9,41.6 37,41.4 
		37.1,41.3 37.2,41.2 37.3,41 37.4,40.9 37.5,40.7 37.6,40.6 37.8,40.4 37.9,40.2 38,40.1 38.1,39.9 38.2,39.8 38.3,39.6 38.4,39.5 
		38.5,39.3 38.6,39.2 38.6,39 38.7,38.8 38.8,38.7 38.9,38.5 39,38.3 39.1,38.2 39.2,38 39.3,37.8 39.4,37.7 39.5,37.5 39.6,37.3 
		39.6,37.2 39.7,37 39.8,36.8 39.9,36.7 40,36.5 40.1,36.3 40.1,36.1 40.2,36 40.3,35.8 40.4,35.6 40.5,35.4 40.5,35.3 40.6,35.1 
		40.7,34.9 40.7,34.7 40.8,34.6 40.9,34.4 41,34.2 41,34 41.1,33.8 41.2,33.6 41.2,33.5 41.3,33.3 41.3,33.1 41.4,32.9 41.5,32.7 
		41.5,32.5 41.6,32.3 41.6,32.1 41.7,31.9 41.7,31.8 41.8,31.6 41.8,31.4 41.9,31.2 41.9,31 42,30.8 42,30.6 42.1,30.4 42.1,30.2 
		42.1,30 42.2,29.8 42.2,29.6 42.3,29.4 42.3,29.2 42.3,29 42.4,28.8 42.4,28.6 42.4,28.4 42.5,28.2 42.5,28 42.5,27.8 42.5,27.6 
		42.6,27.4 42.6,27.1 42.6,26.9 42.6,26.7 42.6,26.5 42.6,26.3 42.7,26.1 42.7,25.9 42.7,25.7 42.7,25.5 42.7,25.2 42.7,25 
		42.7,24.8 42.7,24.6 42.7,24.4 42.7,24.1 42.7,23.7 42.7,23.4 42.7,23.1 42.7,22.8 42.7,22.5 42.6,22.1 42.6,21.8 42.6,21.5 
		42.6,21.2 42.5,20.9 42.5,20.6 42.5,20.3 42.4,20 42.4,19.7 42.4,19.4 42.3,19.1 42.3,18.8 42.2,18.5 42.2,18.2 42.1,17.9 42,17.6 
		42,17.3 41.9,17 41.9,16.7 41.8,16.4 41.7,16.1 41.6,15.8 41.6,15.6 41.5,15.3 41.4,15 41.3,14.7 41.2,14.4 41.1,14.2 41,13.9 
		41,13.6 40.9,13.4 40.8,13.1 40.7,12.8 40.6,12.6 40.4,12.3 40.3,12.1 40.2,11.8 40.1,11.6 40,11.3 39.9,11.1 39.8,10.8 39.6,10.6 
		39.5,10.3 39.4,10.1 39.2,9.9 39.1,9.6 39,9.4 38.8,9.2 38.7,8.9 38.6,8.7 38.4,8.5 38.3,8.3 38.1,8 38,7.8 37.8,7.6 37.6,7.4 
		37.5,7.2 37.3,7 37.2,6.8 37,6.6 36.8,6.4 36.7,6.2 36.5,6 36.3,5.8 36.1,5.6 36,5.4 35.8,5.3 35.6,5.1 35.4,4.9 35.2,4.7 35,4.6 
		34.8,4.4 34.6,4.2 34.4,4.1 34.2,3.9 34,3.7 33.8,3.6 33.6,3.4 33.4,3.3 33.2,3.1 33,3 32.8,2.9 32.6,2.7 32.4,2.6 32.1,2.5 
		31.9,2.3 31.7,2.2 31.5,2.1 31.2,2 31,1.9 30.9,1.8 30.8,1.7 30.6,1.7 30.5,1.6 30.4,1.6 30.3,1.5 30.2,1.5 30.1,1.4 29.9,1.4 
		29.8,1.3 29.7,1.3 29.6,1.2 29.5,1.2 29.3,1.2 29.2,1.1 29.1,1.1 29,1 28.8,1 28.7,0.9 28.6,0.9 28.5,0.9 28.3,0.8 28.2,0.8 
		28.1,0.7 27.9,0.7 27.8,0.7 27.7,0.6 27.6,0.6 27.4,0.6 27.3,0.5 27.2,0.5 27,0.5 26.9,0.4 26.8,0.4 26.6,0.4 26.5,0.4 26.4,0.3 
		26.2,0.3 26.1,0.3 26,0.3 25.8,0.2 25.7,0.2 25.6,0.2 25.4,0.2 25.3,0.2 25.2,0.2 25,0.1 24.9,0.1 24.7,0.1 24.6,0.1 24.5,0.1 
		24.3,0.1 24.2,0.1 24,0 23.9,0 23.7,0 23.6,0 23.5,0 23.3,0 23.2,0 23,0 22.9,0 22.7,0 22.6,0 22.3,0 22,0 	"/>
</g>
</svg>
