<?xml version="1.0" encoding="utf-8"?>
<!-- Generator: Adobe Illustrator 19.0.0, SVG Export Plug-In . SVG Version: 6.00 Build 0)  -->
<svg version="1.1" id="图层_1" xmlns="http://www.w3.org/2000/svg" xmlns:xlink="http://www.w3.org/1999/xlink" x="0px" y="0px"
	 viewBox="0 0 60.3 51.1" style="enable-background:new 0 0 60.3 51.1;" xml:space="preserve">
<style type="text/css">
	.st0{fill-rule:evenodd;clip-rule:evenodd;fill:#FFB56C;}
	.st1{fill-rule:evenodd;clip-rule:evenodd;fill:#FFC176;}
</style>
<path class="st0" d="M10.3,41.7c-1,0-1.9,0.8-1.9,1.9c0,1,0.8,1.9,1.9,1.9c1,0,1.9-0.8,1.9-1.9C12.2,42.5,11.3,41.7,10.3,41.7
	L10.3,41.7 M10.3,41.7"/>
<path class="st0" d="M16.8,46.1c-1.1,0-2,0.9-2,2c0,1.1,0.9,2,2,2c1.1,0,2-0.9,2-2C18.9,47,18,46.1,16.8,46.1L16.8,46.1 M16.8,46.1"
	/>
<path class="st0" d="M36,43.6c-1,0-1.8,0.8-1.8,1.8c0,1,0.8,1.8,1.8,1.8c1,0,1.8-0.8,1.8-1.8C37.8,44.4,37,43.6,36,43.6L36,43.6
	 M36,43.6"/>
<path class="st0" d="M28.8,46.5c-1.1,0-2,0.9-2,2c0,1.1,0.9,2,2,2c1.1,0,2-0.9,2-2C30.8,47.4,29.9,46.5,28.8,46.5L28.8,46.5
	 M28.8,46.5"/>
<path class="st1" d="M23.2,28.5c0.5-1.3,0.7-2.8,1.3-4.1c1.1-2.4,0.1-2.8-2.2-2.8c-5.8,0.1-11.5,0.2-17.3,0
	c-3.8-0.2-5.2,1.1-5.1,4.9c0.2,7.9,0,15.7,0,23.6c3.9,1.9,5.1,1.3,5-2.8c0-3.5,0.3-7-0.3-10.5c-0.2-0.9-0.1-1.4,1-1.7
	c1.8-0.5,2.9-1.7,2.8-3.7c0-1.1,0.2-2.2,1.6-2.3c1.6-0.1,1.9,1.1,2,2.4c0.1,2.1,1,3.7,3.2,3.6c2.2,0,3-1.7,3.2-3.7
	c0.1-1.7,0.9-3.2,2.6-1.9C23.1,31,22.9,29.3,23.2,28.5L23.2,28.5 M23.2,28.5"/>
<path class="st1" d="M59.9,22.6c-4.3-2.1-8.8-0.9-13.2-0.9c-12.5-0.2-12.5-0.1-11.2,12.5c0,0.2,0.3,0.4,0.5,0.7
	c1.8-0.5,2.3-1.8,2.3-3.5c0-1.2,0.3-2.2,1.7-2.2c1.4,0,1.8,0.9,1.8,2.1c0,2.3,0.9,4,3.3,3.9c2.2-0.1,3.1-1.7,3-3.8
	c-0.1-1.2,0.6-2.1,1.8-2.2c1.3-0.1,1.9,0.9,1.8,2.1c-0.1,2.4,1.1,3.6,3.3,4.2c1,4.4,0.2,8.9,0.4,13.3c0.1,1.7,0.9,2.4,2.5,2.3
	c1.3,0,2.3-0.6,2.3-2.1C60.1,40.1,60.7,31.4,59.9,22.6L59.9,22.6 M59.9,22.6"/>
<path class="st0" d="M32.3,24.2C34.6,14.4,40.2,6.6,47.7,0c-3.4,0.1-5.6,1.9-7.8,3.7c-8,6.5-11.5,15.4-13.4,25.2
	c-1.7,4-4.9,7.2-5.7,11.6c-0.7,3.3,0.9,5.3,3.7,4.8c4.1-0.7,9.3-4.8,8-9.8C31.4,31.8,31.9,27.2,32.3,24.2L32.3,24.2 M32.3,24.2"/>
<path class="st0" d="M17.2,39.1c0.2-1.2-0.5-1.9-1.6-2.2c-1.3,0-2,0.7-2.1,1.9c-0.1,1.2,0.8,2,1.9,2C16.3,40.8,17.1,40.1,17.2,39.1
	L17.2,39.1 M17.2,39.1"/>
<path class="st1" d="M47.9,37.2c-1-0.1-1.8,0.6-1.8,1.7c-0.1,1.2,0.5,2,1.8,2c1.1,0,1.7-0.5,1.8-1.3C49.8,38,49.1,37.3,47.9,37.2
	L47.9,37.2 M47.9,37.2"/>
<path class="st0" d="M51.2,43.2c-1,0-1.7,0.6-1.8,1.7c-0.1,1.2,0.5,2,1.7,2.1c1.3,0.1,1.8-0.8,2.1-1.9C53,44,52.5,43.2,51.2,43.2
	L51.2,43.2 M51.2,43.2"/>
<path class="st0" d="M44.1,46.1c-1.3,0-1.9,0.8-1.8,2c0.1,1,0.8,1.6,1.9,1.5c1.1-0.1,1.6-0.7,1.7-1.8C45.8,46.7,45.1,46.1,44.1,46.1
	L44.1,46.1 M44.1,46.1"/>
<path class="st0" d="M39.4,36.7c-1.3,0.1-1.8,0.9-1.7,2.1c0.1,1.1,1,1.5,2,1.4c1-0.1,1.6-0.8,1.5-1.9C41,37.3,40.5,36.7,39.4,36.7
	L39.4,36.7 M39.4,36.7"/>
</svg>
