<?xml version="1.0" encoding="utf-8"?>
<!-- Generator: Adobe Illustrator 21.0.0, SVG Export Plug-In . SVG Version: 6.00 Build 0)  -->
<svg version="1.1" id="图层_1" xmlns="http://www.w3.org/2000/svg" xmlns:xlink="http://www.w3.org/1999/xlink" x="0px" y="0px"
	 viewBox="0 0 50 50" style="enable-background:new 0 0 50 50;" xml:space="preserve">
<style type="text/css">
	.st0{fill-rule:evenodd;clip-rule:evenodd;fill:#02CD8B;}
	.st1{fill:#FFFFFF;}
</style>
<circle class="st0" cx="25" cy="25" r="25"/>
<g>
	<path class="st1" d="M34.1,26.8c0.1,0,0.3,0,0.4,0v-5.1h1.2c0.8,0,1.4-0.6,1.4-1.4v-1.2l-11.8-8.7c-0.6-0.4-1.4-0.4-2,0l-12.7,8.7
		v1.5c0,0.6,0.5,1.1,1.1,1.1h1.5v12H28c0-0.2,0-0.5,0-0.7C28,29.5,30.7,26.8,34.1,26.8z M25.7,30.5h-3.6v-4.7h-4.7v-3.5h4.7v-4.7
		h3.5v4.7h4.7v3.5h-4.7V30.5z"/>
	<path class="st1" d="M41.2,39.1l-2.9-2.9c0.8-0.9,1.3-2.1,1.3-3.5c0-3-2.4-5.4-5.4-5.4c-3,0-5.4,2.4-5.4,5.4c0,3,2.4,5.4,5.4,5.4
		c1.3,0,2.5-0.5,3.5-1.3l2.9,2.9c0.2,0.2,0.5,0.2,0.7,0C41.4,39.6,41.4,39.3,41.2,39.1z M34.2,37.2c-2.5,0-4.5-2-4.5-4.5
		s2-4.5,4.5-4.5s4.5,2,4.5,4.5S36.7,37.2,34.2,37.2z"/>
</g>
</svg>
