<?xml version="1.0" encoding="utf-8"?>
<!-- Generator: Adobe Illustrator 19.0.0, SVG Export Plug-In . SVG Version: 6.00 Build 0)  -->
<svg version="1.1" id="图层_1" xmlns="http://www.w3.org/2000/svg" xmlns:xlink="http://www.w3.org/1999/xlink" x="0px" y="0px"
	 viewBox="0 0 50 50" style="enable-background:new 0 0 50 50;" xml:space="preserve">
<style type="text/css">
	.st0{fill-rule:evenodd;clip-rule:evenodd;fill:#04E69D;}
	.st1{fill-rule:evenodd;clip-rule:evenodd;fill:#07D389;}
</style>
<path class="st0" d="M47.3,27.8c-1.7-1.7-4.1-1.8-5.8-0.1l-4.7,4.7c-1.2,1.2-2.7,1.2-3.6,0.2c-0.6-0.7-0.3-2.8-0.2-4.1L35.4,9
	c0.2-1.7-1-3.4-2.8-3.6c-1.7-0.2-3.3,1.1-3.5,2.9l-2.6,15.3C26.3,23.9,26,24,26,23.5L25.1,3.6c0-1.8-1.4-3.2-3.2-3.2
	c-1.8,0-3.2,1.4-3.2,3.2l-0.1,20.1c0,0.2-0.2,0.3-0.2,0L15.6,8c-0.3-1.7-2-3-3.7-2.7C10.1,5.6,9,7.4,9.3,9.1l2.5,18.4
	c0,0.3-0.1,0.5-0.3,0.1L7.8,17.5c-0.6-1.7-2.4-2.6-4.1-2c-1.7,0.6-2.5,2.5-1.9,4.2l6.6,21.6c0,0.1,0.1,0.2,0.1,0.4l0,0c0,0,0,0,0,0
	c1.8,5.6,7.1,9.7,13.3,9.7c4,0,8.1-1.4,11.3-3.8l0,0c3.4-2.1,14.3-13.8,14.3-13.8C49.2,32,48.9,29.5,47.3,27.8L47.3,27.8 M47.3,27.8
	L47.3,27.8z M22.2,29.5c0,0.7-0.6,1.3-1.3,1.3s-1.3-0.6-1.3-1.3s0.6-1.3,1.3-1.3S22.2,28.8,22.2,29.5z M17.8,33
	c0,0.4-0.3,0.7-0.7,0.7s-0.7-0.3-0.7-0.7s0.3-0.7,0.7-0.7S17.8,32.6,17.8,33z M25.7,33c0,0.4-0.3,0.7-0.7,0.7s-0.7-0.3-0.7-0.7
	s0.3-0.7,0.7-0.7S25.7,32.6,25.7,33z M27.5,29.6c0,0.8-0.6,1.4-1.4,1.4s-1.4-0.6-1.4-1.4s0.6-1.4,1.4-1.4S27.5,28.8,27.5,29.6z
	 M25,37.4c0,1.1-0.9,2.1-2.1,2.1s-2.1-0.9-2.1-2.1s0.9-2.1,2.1-2.1S25,36.2,25,37.4z M18.4,37.3c0,0.4-0.3,0.7-0.7,0.7
	s-0.7-0.3-0.7-0.7s0.3-0.7,0.7-0.7S18.4,37,18.4,37.3z M28.1,36c0,0.4-0.3,0.7-0.7,0.7s-0.7-0.3-0.7-0.7s0.3-0.7,0.7-0.7
	S28.1,35.6,28.1,36z"/>
<path class="st1" d="M7.7,38.5c0,0,1.7,12.8,15.1,12.7c0,0,6.2,1.3,15.1-7.7s10-10.3,10-10.3s2.3-3.8-1.3-0.6
	c-3,2.7-7.7,8.4-12.4,12.1s-7.5,4.3-7.5,4.3s-3.3,1.2-8.1-0.1c-6-1.7-9.7-10-9.7-10S5.5,32.1,7.7,38.5z"/>
<path class="st1" d="M8.1,18.3c-0.4-1-0.5-1.7-1.4-2.3c-0.5-0.3-2.1-1-1.7-0.4c0.9,1.4,6.4,12.3,6.4,12.3s0.3,0.4-0.1-0.9
	C10.9,25.3,9.1,20.6,8.1,18.3z"/>
<path class="st1" d="M16.4,12.4c-0.2-1.2-0.6-4.4-1.3-5.5c-0.3-0.5-1.5-1.6-1.5-1c0.1,1.7,4.8,18.1,4.8,18.1s0.3,0.4-0.1-0.9
	C17.9,21.3,16.8,14.9,16.4,12.4z"/>
<path class="st1" d="M25.3,12.2c-0.1-1.2,0.1-8.6-0.4-9.8c-0.2-0.5-1.6-2.1-1.6-1.5c-0.1,1.7,2.7,23,2.7,23s0.2,0.4,0-0.9
	C25.8,21.2,25.4,14.7,25.3,12.2z"/>
<path class="st1" d="M34.2,20.1c0.2-1.2,0.5-5.6,1.2-11.4c0.1-0.6-0.5-1.8-1-2.4c-0.8-1-1.7,24.6-1.7,24.6s-0.1,1.3,0,0
	C32.8,29,33.9,22.5,34.2,20.1z"/>
</svg>
