<?xml version="1.0" encoding="utf-8"?>
<!-- Generator: Adobe Illustrator 19.0.0, SVG Export Plug-In . SVG Version: 6.00 Build 0)  -->
<svg version="1.1" id="图层_1" xmlns="http://www.w3.org/2000/svg" xmlns:xlink="http://www.w3.org/1999/xlink" x="0px" y="0px"
	 viewBox="-301.5 373.5 60.2 87.9" style="enable-background:new -301.5 373.5 60.2 87.9;" xml:space="preserve">
<style type="text/css">
	.st0{fill:#E6E6E6;}
</style>
<path class="st0" d="M-241.4,403c-0.2-7.5-3.1-14.9-8.8-20.6c-5.9-5.9-13.6-8.8-21.3-8.8c-7.7,0-15.4,2.9-21.3,8.8
	c-5.7,5.7-8.6,13.2-8.8,20.6h0v0.6v0v27.7c0,0,0,0,0,0v1.2h0c0.3,7.3,3.2,14.5,8.8,20c5.9,5.9,13.6,8.8,21.3,8.8
	c7.7,0,15.4-2.9,21.3-8.8c5.5-5.6,8.5-12.7,8.8-20h0L-241.4,403L-241.4,403z M-246.2,431.8l0,0.6c-0.3,6.3-2.9,12.3-7.4,16.8
	c-4.8,4.8-11.1,7.4-17.9,7.4c-6.8,0-13.1-2.6-17.9-7.4c-4.5-4.5-7.1-10.5-7.4-16.8l0-0.6v-0.4v-27.6l0-0.7
	c0.1-6.6,2.8-12.7,7.4-17.3c4.2-4.2,9.6-6.7,15.5-7.3v35.4c0,1.3,1.1,2.4,2.4,2.4c1.3,0,2.4-1.1,2.4-2.4v-35.4
	c5.8,0.5,11.3,3.1,15.5,7.3c4.6,4.6,7.2,10.8,7.4,17.3l0,0.6L-246.2,431.8L-246.2,431.8z"/>
</svg>
