<?xml version="1.0" encoding="utf-8"?>
<!-- Generator: Adobe Illustrator 19.0.0, SVG Export Plug-In . SVG Version: 6.00 Build 0)  -->
<svg version="1.1" id="图层_1" xmlns="http://www.w3.org/2000/svg" xmlns:xlink="http://www.w3.org/1999/xlink" x="0px" y="0px"
	 viewBox="-277 408.7 24 24.3" style="enable-background:new -277 408.7 24 24.3;" xml:space="preserve">
<style type="text/css">
	.st0{fill:#DBDBDB;}
</style>
<path class="st0" d="M-253.7,418.4c-0.6-0.8-1.5-1.2-2.5-1.2h-5.6c0.3-0.9,0.5-1.8,0.6-2.7c0.1-1.4-0.1-2.7-0.6-3.6
	c-0.6-1.2-1.7-1.9-3.2-2.1c-0.6-0.1-1.2,0-1.7,0.4c-0.9,0.7-1.1,2-1.3,3.5c-0.2,1.2-0.3,2.6-0.9,3.6c-0.4,0.7-1.2,1.5-3.3,1.5h-2.2
	c-1.5,0-2.6,1.2-2.6,2.6v10c0,1.5,1.2,2.6,2.6,2.6h15.9c0.7,0,1.4-0.2,2-0.7c0.6-0.5,1-1.1,1.1-1.8l2.2-9.4
	C-252.9,420.2-253.1,419.2-253.7,418.4z M-273.7,430.4v-10c0-0.5,0.2-0.9,0.4-0.9h0.8v11.7h-0.8
	C-273.5,431.3-273.7,430.9-273.7,430.4z"/>
</svg>
