<?xml version="1.0" encoding="utf-8"?>
<!-- Generator: Adobe Illustrator 21.0.0, SVG Export Plug-In . SVG Version: 6.00 Build 0)  -->
<svg version="1.1" id="图层_1" xmlns="http://www.w3.org/2000/svg" xmlns:xlink="http://www.w3.org/1999/xlink" x="0px" y="0px"
	 viewBox="0 0 50 50" style="enable-background:new 0 0 50 50;" xml:space="preserve">
<style type="text/css">
	.st0{fill-rule:evenodd;clip-rule:evenodd;fill:#02CD8B;}
	.st1{fill:#FFFFFF;}
</style>
<circle class="st0" cx="25" cy="25" r="25"/>
<g>
	<circle class="st1" cx="25.3" cy="24.9" r="1.6"/>
	<g>
		<path class="st1" d="M41.1,38.5l-2.9-2.9c0.8-0.9,1.3-2.1,1.3-3.5c0-3-2.4-5.4-5.4-5.4c-3,0-5.4,2.4-5.4,5.4c0,3,2.4,5.4,5.4,5.4
			c1.3,0,2.5-0.5,3.5-1.3l2.9,2.9c0.2,0.2,0.5,0.2,0.7,0C41.3,39,41.2,38.7,41.1,38.5z M34.1,36.6c-2.5,0-4.5-2-4.5-4.5
			s2-4.5,4.5-4.5s4.5,2,4.5,4.5S36.5,36.6,34.1,36.6z"/>
		<path class="st1" d="M27.9,31.8c0-3.1,2.5-5.6,5.6-5.6c0.3,0,0.6,0,0.9,0.1c0-0.3,0.1-0.6,0.1-0.9h3.3c0.2,0.6,0.8,1.1,1.5,1.1
			c0.9,0,1.6-0.7,1.6-1.6c0-0.9-0.7-1.6-1.6-1.6c-0.7,0-1.3,0.5-1.5,1.1h-3.3c-0.1-2.1-0.9-4.1-2.2-5.6l5.1-4.9
			c0.2,0.1,0.5,0.2,0.7,0.2c0.9,0,1.6-0.7,1.6-1.6s-0.7-1.6-1.6-1.6c-0.9,0-1.6,0.7-1.6,1.6c0,0.2,0.1,0.5,0.1,0.7l-5.1,4.9
			c-0.4-0.4-0.8-0.7-1.3-1l1.4-2.5c0.1,0,0.2,0,0.3,0c0.9,0,1.6-0.7,1.6-1.6c0-0.9-0.7-1.6-1.6-1.6c-0.9,0-1.6,0.7-1.6,1.6
			c0,0.4,0.2,0.8,0.4,1.1l-1.4,2.5l0,0c-1.2-0.6-2.6-0.9-4.1-0.9c-0.4,0-0.9,0-1.3,0.1l-0.6-3.1c0.7-0.4,1.2-1.1,1.2-1.9
			c0-1.2-1-2.2-2.2-2.2c-1.2,0-2.2,1-2.2,2.2c0,1.2,0.9,2.1,2.1,2.2l0.6,3.1c-1.6,0.4-3,1.2-4.2,2.3l-1.2-1.1c0-0.1,0-0.2,0-0.3
			c0-0.7-0.5-1.2-1.2-1.2c-0.7,0-1.2,0.5-1.2,1.2c0,0.7,0.5,1.2,1.2,1.2c0.2,0,0.3,0,0.4-0.1l1.2,1.1c-0.9,1.1-1.5,2.3-1.9,3.7
			l-1-0.2c-0.1-0.8-0.8-1.4-1.6-1.4c-0.9,0-1.6,0.7-1.6,1.6c0,0.9,0.7,1.6,1.6,1.6c0.6,0,1.1-0.3,1.4-0.8l1.1,0.2
			c0,0.4-0.1,0.8-0.1,1.2c0,1.6,0.4,3.1,1.1,4.5L12.5,32c-0.4-0.4-0.9-0.6-1.5-0.6c-1.2,0-2.2,1-2.2,2.2c0,1.2,1,2.2,2.2,2.2
			c1.2,0,2.2-1,2.2-2.2c0-0.2,0-0.4-0.1-0.6l4.4-2.7c0.3,0.4,0.7,0.9,1,1.2c0.9,0.9,2,1.6,3.2,2.1L20.6,37c-0.9,0-1.6,0.7-1.6,1.6
			c0,0.9,0.7,1.6,1.6,1.6c0.9,0,1.6-0.7,1.6-1.6c0-0.5-0.2-1-0.6-1.3l1.1-3.5c0.8,0.2,1.6,0.3,2.4,0.3c0.4,0,0.7,0,1.1-0.1l0.1,0.5
			c-0.3,0.2-0.5,0.6-0.5,1c0,0.7,0.5,1.2,1.2,1.2c0.7,0,1.2-0.5,1.2-1.2c0-0.6-0.4-1-0.9-1.2l-0.1-0.5c0.3-0.1,0.7-0.2,1-0.3
			C28,33,27.9,32.4,27.9,31.8z M25.1,28.6c-2.1,0-3.8-1.7-3.8-3.8c0-2.1,1.7-3.8,3.8-3.8c2.1,0,3.8,1.7,3.8,3.8
			C28.9,26.9,27.2,28.6,25.1,28.6z"/>
	</g>
</g>
</svg>
