<?xml version="1.0" encoding="utf-8"?>
<!-- Generator: Adobe Illustrator 19.0.0, SVG Export Plug-In . SVG Version: 6.00 Build 0)  -->
<svg version="1.1" id="图层_1" xmlns="http://www.w3.org/2000/svg" xmlns:xlink="http://www.w3.org/1999/xlink" x="0px" y="0px"
	 viewBox="1 -1 40 40" style="enable-background:new 1 -1 40 40;" xml:space="preserve">
<style type="text/css">
	.st0{fill:#6E6E6E;}
</style>
<path class="st0" d="M21-1C10-1,1,8,1,19s9,20,20,20s20-9,20-20S32.1-1,21-1z M21,37.7C10.7,37.7,2.3,29.3,2.3,19S10.7,0.3,21,0.3
	S39.7,8.7,39.7,19S31.3,37.7,21,37.7z"/>
<path class="st0" d="M21,20.8h0.6c2.4,0,5.5-3.2,5.5-5.6V11c0-2.4-1.9-4.3-4.3-4.3h-3c-2.4,0-4.3,1.9-4.3,4.3v4.3
	C15.5,17.7,18.7,20.8,21,20.8z M19.8,8h3c1.6,0,3,1.3,3,3v0.6h-9V11C16.8,9.3,18.2,8,19.8,8z M16.8,12.9h9v2.4
	c0,1.7-2.5,4.2-4.2,4.2H21c-1.6,0-4.2-2.6-4.2-4.2L16.8,12.9L16.8,12.9z"/>
<path class="st0" d="M27.3,21.1l-0.4-0.2c-0.8-0.4-1.7-0.2-2.3,0.3l-0.3,0.2c-1.1,1-2.1,1.6-2.8,1.6c-0.7,0-1.7-0.6-2.8-1.6
	l-0.2-0.2c-0.7-0.5-1.8-0.6-2.6-0.1c-1.5,0.9-4.2,2.8-4.9,6c0,0.2-0.1,0.4-0.1,0.6c0,1.3,1,2.4,2.2,2.7h16.6
	c1.1-0.3,1.9-1.4,1.9-2.6l-0.1-0.7C31,25.2,29.8,22.6,27.3,21.1z M29.1,29.1H14.4h-0.5c-0.7,0-1.5-0.6-1.5-1.4c0-0.1,0-0.2,0-0.3
	c0.6-2.7,3-4.4,4.3-5.2c0.4-0.2,0.9-0.2,1.2,0.1l0.2,0.2l0,0c0.9,0.9,2.2,1.8,3.5,1.8c1.2,0,2.5-0.9,3.4-1.8l0.3-0.2
	c0.2-0.2,0.4-0.3,0.7-0.3c0.1,0,0.3,0,0.3,0.1c0.1,0,0.1,0.1,0.2,0.1l0.4,0.3c1.9,1.3,2.9,3.3,3.4,4.8v0.1c0,0.1,0,0.2,0,0.3
	C30.4,28.4,29.8,29,29.1,29.1z"/>
</svg>
