<?xml version="1.0" encoding="utf-8"?>
<!-- Generator: Adobe Illustrator 21.0.0, SVG Export Plug-In . SVG Version: 6.00 Build 0)  -->
<svg version="1.1" id="图层_1" xmlns="http://www.w3.org/2000/svg" xmlns:xlink="http://www.w3.org/1999/xlink" x="0px" y="0px"
	 viewBox="0 0 24 24" style="enable-background:new 0 0 24 24;" xml:space="preserve">
<style type="text/css">
	.st0{fill:#D7D7D7;}
</style>
<path class="st0" d="M12,0C5.4,0,0,5.4,0,12s5.4,12,12,12s12-5.4,12-12C24,5.4,18.6,0,12,0z M17.9,10.7l-5,6.3
	c-0.3,0.3-0.5,0.5-0.9,0.5c-0.4,0-0.6-0.2-0.9-0.5l-5-6.3C6,10.6,6,10.5,6,10.3c0-0.2,0-0.4,0.1-0.5C6.3,9.5,6.6,9.3,7,9.3H17
	c0.3,0,0.7,0.2,0.8,0.5C18,10.1,18.1,10.4,17.9,10.7z"/>
</svg>
