<?xml version="1.0" standalone="no"?><!DOCTYPE svg PUBLIC "-//W3C//DTD SVG 1.1//EN" "http://www.w3.org/Graphics/SVG/1.1/DTD/svg11.dtd"><svg t="1498468213685" class="icon" style="" viewBox="0 0 1024 1024" version="1.1" xmlns="http://www.w3.org/2000/svg" p-id="20257" xmlns:xlink="http://www.w3.org/1999/xlink" width="32" height="32"><defs><style type="text/css"></style></defs><path d="M511.999294 64.00097c-247.424322 0-447.998324 200.574003-447.998324 447.999735 0 247.424322 200.574003 447.999735 447.998324 447.999735 247.427144 0 448.001147-200.576825 448.001147-447.999735C960.001852 264.574973 759.426438 64.00097 511.999294 64.00097L511.999294 64.00097zM728.681137 575.654542l-192.327466 156.661618c-12.677427 13.840183-33.268369 13.840183-45.947207 0l-194.1224-156.670085c-12.673194-13.845828-12.673194-36.333303 0-50.176309 6.342947-6.948314 14.672739-13.46765 23.002531-13.46765 8.304392 0 14.168972 3.674535 23.252298 10.756904l138.314344 110.025789 0-315.998705c0-19.621508 14.557028-35.479581 32.527535-35.479581 17.974741 0 32.526124 15.856662 32.526124 35.479581l0 318.047639L679.199095 520.949976c17.235318-14.334072 34.726047-12.417783 47.433108 1.456267C739.30963 536.246426 741.358564 561.811537 728.681137 575.654542L728.681137 575.654542zM728.681137 575.654542" p-id="20258" fill="#ffffff"></path></svg>