<?xml version="1.0" encoding="utf-8"?>
<!-- Generator: Adobe Illustrator 19.0.0, SVG Export Plug-In . SVG Version: 6.00 Build 0)  -->
<svg version="1.1" id="图层_1" xmlns="http://www.w3.org/2000/svg" xmlns:xlink="http://www.w3.org/1999/xlink" x="0px" y="0px"
	 viewBox="1 -1 40 40" style="enable-background:new 1 -1 40 40;" xml:space="preserve">
<style type="text/css">
	.st0{fill:#6E6E6E;}
</style>
<path class="st0" d="M30.3,27.2H11.1c-0.4,0-0.7-0.3-0.7-0.7v-0.7c0-3.8,2.3-7.4,5.9-9.1c-0.7-1-1.1-2.2-1.1-3.7
	c0-3.2,2.6-5.9,5.9-5.9c3.2,0,5.8,2.6,5.8,5.9c0,1.3-0.5,2.6-1.4,3.7c3.3,1.7,5.5,5.1,5.5,9v0.7C31,26.9,30.7,27.2,30.3,27.2
	L30.3,27.2z M11.7,25.8h17.9c0-3.7-2.2-6.9-5.5-8.2c-0.2-0.1-0.4-0.3-0.4-0.5s0-0.5,0.2-0.6c1.1-0.9,1.7-2.2,1.7-3.4
	c0-2.5-2-4.6-4.5-4.6s-4.5,2-4.5,4.6c0,1.4,0.5,2.6,1.4,3.4c0.2,0.2,0.3,0.4,0.2,0.6c0,0.2-0.2,0.4-0.4,0.5
	C14.1,18.9,11.7,22.2,11.7,25.8L11.7,25.8L11.7,25.8z M9.1,25.2H5.8c-0.4,0-0.7-0.3-0.7-0.7c0-3.3,1.9-6.3,4.9-7.8
	c-0.6-0.8-0.9-1.9-0.9-3.1c0-2.8,2.2-5.2,5-5.2c0.4,0,0.7,0.3,0.7,0.7c0,0.4-0.3,0.7-0.7,0.7c-2,0-3.7,1.7-3.7,3.8
	c0,1.2,0.4,2.2,1.1,2.8c0.2,0.2,0.3,0.4,0.2,0.6c0,0.2-0.2,0.4-0.4,0.5c-2.7,1-4.6,3.5-4.9,6.2H9c0.4,0,0.7,0.3,0.7,0.7
	S9.4,25.2,9.1,25.2L9.1,25.2z M35.6,25.2h-3.3c-0.4,0-0.7-0.3-0.7-0.7s0.3-0.7,0.7-0.7h2.6c-0.3-2.8-2.2-5.2-4.9-6.2
	c-0.2-0.1-0.4-0.3-0.4-0.5s0-0.5,0.2-0.6c0.7-0.7,1.1-1.7,1.1-2.8c0-2.1-1.6-3.8-3.7-3.8c-0.4,0-0.7-0.3-0.7-0.7
	c0-0.4,0.3-0.7,0.7-0.7c2.8,0,5,2.3,5,5.2c0,1.2-0.3,2.2-0.9,3.1c3,1.5,4.9,4.5,4.9,7.7C36.3,24.9,36,25.2,35.6,25.2L35.6,25.2z
	 M21,39C10,39,1,30,1,19S10-1,21-1s20,9,20,20C41,30.1,32,39,21,39L21,39z M21,0.4C10.7,0.4,2.3,8.8,2.3,19.1
	c0,10.3,8.4,18.7,18.7,18.7c10.3,0,18.7-8.4,18.7-18.7C39.7,8.7,31.3,0.4,21,0.4L21,0.4z"/>
</svg>
