<?xml version="1.0" encoding="utf-8"?>
<!-- Generator: Adobe Illustrator 19.0.0, SVG Export Plug-In . SVG Version: 6.00 Build 0)  -->
<svg version="1.1" id="图层_1" xmlns="http://www.w3.org/2000/svg" xmlns:xlink="http://www.w3.org/1999/xlink" x="0px" y="0px"
	 viewBox="1 -1 40 40" style="enable-background:new 1 -1 40 40;" xml:space="preserve">
<style type="text/css">
	.st0{fill:#6E6E6E;}
</style>
<path class="st0" d="M20,10.7c0,0.4,0.2,0.7,0.5,0.9c0.3,0.2,0.7,0.2,1,0s0.5-0.5,0.5-0.9c0-0.5-0.4-1-1-1C20.5,9.7,20,10.2,20,10.7
	 M20.3,13.7h1.3V21h-1.3V13.7z"/>
<path class="st0" d="M20.3,13.7c0,0.2,0.1,0.5,0.3,0.6s0.5,0.1,0.7,0s0.3-0.3,0.3-0.6c0-0.2-0.1-0.5-0.3-0.6s-0.5-0.1-0.7,0
	C20.5,13.2,20.3,13.4,20.3,13.7 M20.3,20.9c0,0.2,0.1,0.5,0.3,0.6s0.5,0.1,0.7,0s0.3-0.3,0.3-0.6c0-0.2-0.1-0.5-0.3-0.6
	s-0.5-0.1-0.7,0C20.5,20.5,20.3,20.7,20.3,20.9"/>
<path class="st0" d="M31,15.4c0-5.5-4.5-10-9.9-10c-5.5,0-10,4.5-10,10c0,2.5,0.9,4.8,2.5,6.6l0,0c1.1,1.3,2.8,4.9,2.8,8.8
	c0,0.3,0.1,0.5,0.3,0.7s0.4,0.2,0.7,0.2h0.1c0.4,1.7,1.8,2.9,3.6,2.9c2,0,3.7-1.7,3.7-3.7v-0.1h0.3c0.4-0.1,0.8-0.4,0.8-0.9
	c0-3.6,1.2-6.3,2.3-7.5c0-0.1,0.1-0.1,0.1-0.2C29.9,20.4,31,18,31,15.4z M18.1,29.8c0-0.4-0.1-0.9-0.1-1.3l6.2-0.7
	c0,0.4-0.1,0.8-0.1,1.3L18.1,29.8z M24.5,26l-6.9,0.8c-0.2-0.8-0.4-1.6-0.7-2.3c1.3,0.6,2.7,0.9,4.1,0.9s2.7-0.3,3.9-0.8
	C24.8,25,24.6,25.5,24.5,26z M21,7.2c4.5,0,8.2,3.7,8.2,8.2s-3.7,8.2-8.2,8.2s-8.2-3.7-8.2-8.2S16.5,7.2,21,7.2z M21.1,32.8
	c-0.9,0-1.6-0.6-1.8-1.4L23,31C22.9,32,22.1,32.8,21.1,32.8z"/>
<path class="st0" d="M21,39C10,39,1,30,1,19S10-1,21-1s20,9,20,20C41,30.1,32,39,21,39L21,39z M21,0.4C10.7,0.4,2.3,8.8,2.3,19.1
	c0,10.3,8.4,18.7,18.7,18.7s18.7-8.4,18.7-18.7C39.7,8.7,31.3,0.4,21,0.4L21,0.4z"/>
</svg>
