<?xml version="1.0" encoding="utf-8"?>
<!-- Generator: Adobe Illustrator 19.0.0, SVG Export Plug-In . SVG Version: 6.00 Build 0)  -->
<svg version="1.1" id="图层_1" xmlns="http://www.w3.org/2000/svg" xmlns:xlink="http://www.w3.org/1999/xlink" x="0px" y="0px"
	 viewBox="-302.1 412 74.1 17.8" style="enable-background:new -302.1 412 74.1 17.8;" xml:space="preserve">
<style type="text/css">
	.st0{fill:#33A9FC;}
</style>
<path class="st0" d="M-302.1,420.9c0,4.9,4,8.9,8.9,8.9s8.9-4,8.9-8.9s-4-8.9-8.9-8.9S-302.1,416-302.1,420.9L-302.1,420.9z"/>
<path class="st0" d="M-274,420.9c0,4.9,4,8.9,8.9,8.9c4.9,0,8.9-4,8.9-8.9s-4-8.9-8.9-8.9S-274,416-274,420.9L-274,420.9z"/>
<path class="st0" d="M-245.8,420.9c0,4.9,4,8.9,8.9,8.9c4.9,0,8.9-4,8.9-8.9s-4-8.9-8.9-8.9C-241.8,412-245.8,416-245.8,420.9z"/>
</svg>
