<?xml version="1.0" encoding="utf-8"?>
<!-- Generator: Adobe Illustrator 19.0.0, SVG Export Plug-In . SVG Version: 6.00 Build 0)  -->
<svg version="1.1" id="图层_1" xmlns="http://www.w3.org/2000/svg" xmlns:xlink="http://www.w3.org/1999/xlink" x="0px" y="0px"
	 viewBox="-118 4 60 60" style="enable-background:new -118 4 60 60;" xml:space="preserve">
<style type="text/css">
	.st0{fill:#02CD8B;}
</style>
<path class="st0" d="M-62.8,64h-50.4c-2.7,0-4.8-2.1-4.8-4.8V8.8c0-2.7,2.1-4.8,4.8-4.8h50.4c2.7,0,4.8,2.1,4.8,4.8v50.4
	C-58,61.9-60.1,64-62.8,64L-62.8,64z M-69.2,50.8l-9.3-9.3c2.4-2.8,3.8-6.5,3.8-10.4c0-9-7.3-16.3-16.3-16.3
	c-9,0-16.3,7.3-16.3,16.3c0,9,7.3,16.3,16.3,16.3c4,0,7.6-1.4,10.4-3.8l9.3,9.3c0.5,0.5,1.4,0.5,2,0C-68.7,52.2-68.7,51.3-69.2,50.8
	L-69.2,50.8z M-90.9,44.3c-7.3,0-13.3-6-13.3-13.3c0-7.3,6-13.3,13.3-13.3c7.3,0,13.3,6,13.3,13.3C-77.7,38.4-83.6,44.3-90.9,44.3
	L-90.9,44.3z"/>
</svg>
