<?xml version="1.0" encoding="utf-8"?>
<!-- Generator: Adobe Illustrator 19.0.0, SVG Export Plug-In . SVG Version: 6.00 Build 0)  -->
<svg version="1.1" id="图层_1" xmlns="http://www.w3.org/2000/svg" xmlns:xlink="http://www.w3.org/1999/xlink" x="0px" y="0px"
	 viewBox="-124.1 395.9 50 50" style="enable-background:new -124.1 395.9 50 50;" xml:space="preserve">
<style type="text/css">
	.st0{fill:#333;}
</style>
<path class="st0" d="M-123.6,443.2c-0.6,0.6-0.6,1.6,0,2.2c0.6,0.6,1.7,0.6,2.3,0l46.8-46.9c0.6-0.6,0.6-1.6,0-2.2
	c-0.6-0.6-1.7-0.6-2.3,0L-123.6,443.2z"/>
<path class="st0" d="M-76.9,445.4c0.6,0.6,1.6,0.6,2.3,0c0.6-0.6,0.7-1.6,0-2.2l-46.8-46.9c-0.6-0.6-1.6-0.6-2.3,0
	c-0.6,0.6-0.7,1.6,0,2.2L-76.9,445.4z"/>
</svg>
