<?xml version="1.0" encoding="utf-8"?>
<!-- Generator: Adobe Illustrator 19.0.0, SVG Export Plug-In . SVG Version: 6.00 Build 0)  -->
<svg version="1.1" id="图层_1" xmlns="http://www.w3.org/2000/svg" xmlns:xlink="http://www.w3.org/1999/xlink" x="0px" y="0px"
	 viewBox="0 0 50 50" style="enable-background:new 0 0 50 50;" xml:space="preserve">
<style type="text/css">
	.st0{fill-rule:evenodd;clip-rule:evenodd;fill:#EFABFF;}
	.st1{fill-rule:evenodd;clip-rule:evenodd;fill:#E593F9;}
</style>
<g>
	<g>
		<path class="st0" d="M30.9,11.6c-0.2,0.3-0.5,0.6-0.7,0.9c-1.6,2.1-3.6,5.5-6.6,8.9c-2.8,3-5.7,5.8-8.8,8.5
			c-0.1,0.1-0.5,0.6-0.6,0.7c-2.2,2.5-2.6,5.8-0.9,7.2c1.7,1.5,4.8,0.6,7-1.9c0.2-0.2,0.6-0.6,0.6-0.7c2.3-3.4,4.7-6.6,7.4-9.8
			c3.1-3.6,6.2-6,8.1-7.8c0.2-0.2,0.5-0.5,0.7-0.7l0.2-0.2c2.1-2.5,2.5-5.6,0.8-7C36.3,8.3,33.1,9.1,30.9,11.6L30.9,11.6z"/>
		<path class="st0" d="M48.4,6.4c-0.6-1.9-1.8-3.6-3.3-4.9l0,0c-3-2.6-7.1-3.4-10.8-2.1c-1.7,0.6-3.2,1.6-4.5,2.9l0,0L26.4,6
			c-1.8,0.6-7,1-8.1,2.4c-1.3,1.5-2.3,3.7-3.8,5.4c-1.4,1.7-4.7,4.3-5.3,5c-1.3,1.5-1.2,6.7-1.3,8.5l-2.8,3.2l0,0
			c-2.6,3-3.4,7.2-2.1,10.9c2,5.8,8.4,8.9,14.1,7c2.8-0.9,5.1-3,6.3-5.5l1.3-1.5c2-0.5,6.6-1,7.8-2.4c0.6-0.7,2.8-4.3,4.3-5.9
			c1.4-1.7,3.5-2.9,4.8-4.4c1.1-1.2,0.9-5.7,1.2-7.9l1.3-1.6C48.1,16.4,50.1,11.2,48.4,6.4L48.4,6.4z M39.1,18.4
			c0,0-0.2,0.2-0.2,0.2c-0.3,0.3-0.6,0.6-0.9,0.9c-0.6,0.6-3.4,3.2-3.6,3.3c-1.7,1.5-3,2.9-4.3,4.3c-2.5,3.1-5,6.3-7.2,9.6L22.9,37
			L22.8,37c0,0.1-0.2,0.2-0.3,0.4l-0.3,0.3c-3,3.5-7.7,4.7-10.6,2.1c-2.9-2.5-2.3-7.4,0.7-10.8c0.2-0.2,0.6-0.6,0.6-0.7l0.1-0.1
			l0.1-0.1c3-2.7,5.8-5.5,8.5-8.4c0.4-0.5,0.9-1,1.3-1.5c1.4-1.7,4.9-6.8,5.2-7.2c0.2-0.4,0.6-0.7,0.9-1.1c3-3.5,7.7-4.7,10.6-2.1
			C42.5,10.3,42,14.9,39.1,18.4L39.1,18.4z"/>
	</g>
	<path class="st1" d="M12.2,19.6c2.5-1.7,4.6-3.4,8.2-8.8c0.6-0.9,0.8-1.3,1.3-2c0.8-1.2,1.8-1.2,0.9,0.7c0,0-2.6,7.1-10.4,11.7
		c-3,1.8-2.8,0.3-2.3-0.1C11.6,20,11.7,19.9,12.2,19.6z"/>
	<path class="st1" d="M67.1,16.1"/>
	<path class="st1" d="M32,35.9c1.3-2.6,2.8-5,7.7-9.3c0.8-0.7,1.1-1,1.8-1.5c1.1-1,1-2-0.8-0.8c0,0-6.7,3.5-10.3,11.8
		c-1.4,3.2,0.1,2.8,0.4,2.3C31.7,36.6,31.8,36.5,32,35.9z"/>
</g>
</svg>
