<?xml version="1.0" encoding="utf-8"?>
<!-- Generator: Adobe Illustrator 19.0.0, SVG Export Plug-In . SVG Version: 6.00 Build 0)  -->
<svg version="1.1" id="图层_1" xmlns="http://www.w3.org/2000/svg" xmlns:xlink="http://www.w3.org/1999/xlink" x="0px" y="0px"
	 viewBox="1 -1 40 40" style="enable-background:new 1 -1 40 40;" xml:space="preserve">
<style type="text/css">
	.st0{fill:#6E6E6E;}
</style>
<g>
	<path class="st0" d="M21,39C10,39,1,30,1,19S10-1,21-1s20,9,20,20S32,39,21,39L21,39z M21,0.3C10.7,0.3,2.3,8.7,2.3,19
		c0,10.3,8.4,18.7,18.7,18.7c10.3,0,18.7-8.4,18.7-18.7C39.7,8.7,31.3,0.3,21,0.3L21,0.3z"/>
	<path class="st0" d="M11.6,29.4c-0.3,0-0.6-0.3-0.6-0.6V15.9c0-0.3,0.3-0.6,0.6-0.6s0.6,0.3,0.6,0.6v12.9
		C12.2,29.1,11.9,29.4,11.6,29.4z"/>
	<path class="st0" d="M11.6,29.4c-0.3,0-0.6-0.3-0.6-0.6c0-0.3,0.3-0.6,0.6-0.6h19.6c0.3,0,0.6,0.3,0.6,0.6s-0.3,0.6-0.6,0.6H11.6z"
		/>
	<path class="st0" d="M31.2,29.4c-0.3,0-0.6-0.3-0.6-0.6v-10c0-0.3,0.3-0.6,0.6-0.6s0.6,0.3,0.6,0.6v10.1
		C31.8,29.2,31.5,29.4,31.2,29.4z M11.6,16.5c-0.3,0-0.6-0.3-0.6-0.6c0-0.3,0.3-0.6,0.6-0.6h9.8c0.3,0,0.6,0.3,0.6,0.6
		c0,0.3-0.3,0.6-0.6,0.6H11.6z"/>
	<path class="st0" d="M24.3,19.3c-0.1,0-0.3-0.1-0.4-0.2L21,16.4c-0.2-0.2-0.3-0.6,0-0.8c0.1-0.1,0.3-0.2,0.4-0.2s0.3,0.1,0.4,0.2
		l2.9,2.7c0.2,0.2,0.3,0.6,0,0.8C24.6,19.2,24.5,19.3,24.3,19.3z"/>
	<path class="st0" d="M24.4,19.3c-0.3,0-0.6-0.3-0.6-0.6c0-0.3,0.3-0.6,0.6-0.6h6.8c0.3,0,0.6,0.3,0.6,0.6c0,0.3-0.3,0.6-0.6,0.6
		H24.4z M12.2,14.6c-0.3,0-0.6-0.3-0.6-0.6V9.2c0-0.3,0.3-0.6,0.6-0.6c0.3,0,0.6,0.3,0.6,0.6V14C12.8,14.3,12.6,14.6,12.2,14.6z"/>
	<path class="st0" d="M12.4,9.8c-0.3,0-0.6-0.3-0.6-0.6c0-0.3,0.3-0.6,0.6-0.6h12.8c0.3,0,0.6,0.3,0.6,0.6c0,0.3-0.3,0.6-0.6,0.6
		H12.4z"/>
	<path class="st0" d="M25.2,17.5c-0.3,0-0.6-0.3-0.6-0.6V9.2c0-0.3,0.3-0.6,0.6-0.6c0.3,0,0.6,0.3,0.6,0.6v7.7
		C25.7,17.3,25.5,17.5,25.2,17.5z M26.6,11.2c-0.3,0-0.6-0.3-0.6-0.6c0-0.3,0.3-0.6,0.6-0.6h1.3c0.3,0,0.6,0.3,0.6,0.6
		c0,0.3-0.3,0.6-0.6,0.6H26.6z"/>
	<path class="st0" d="M27.9,17.5c-0.3,0-0.6-0.3-0.6-0.6v-6.3c0-0.3,0.3-0.6,0.6-0.6s0.6,0.3,0.6,0.6v6.3
		C28.5,17.3,28.2,17.5,27.9,17.5z M29.3,12.2c-0.3,0-0.6-0.3-0.6-0.6c0-0.3,0.3-0.6,0.6-0.6h1.1c0.3,0,0.6,0.3,0.6,0.6
		c0,0.3-0.3,0.6-0.6,0.6H29.3z"/>
	<path class="st0" d="M30.5,17.5c-0.3,0-0.6-0.3-0.6-0.6v-5.4c0-0.3,0.3-0.6,0.6-0.6s0.6,0.3,0.6,0.6v5.3
		C31.1,17.3,30.8,17.5,30.5,17.5z M13.9,11.8c-0.3,0-0.6-0.3-0.6-0.6c0-0.3,0.3-0.6,0.6-0.6h9.5c0.3,0,0.6,0.3,0.6,0.6
		c0,0.3-0.3,0.6-0.6,0.6H13.9z M13.9,13.7c-0.3,0-0.6-0.3-0.6-0.6c0-0.3,0.3-0.6,0.6-0.6h9.5c0.3,0,0.6,0.3,0.6,0.6
		c0,0.3-0.3,0.6-0.6,0.6H13.9z M18.8,25c-2,0-3.6-1.6-3.6-3.6s1.6-3.6,3.6-3.6s3.6,1.6,3.6,3.6S20.8,25,18.8,25z M18.8,18.9
		c-1.4,0-2.5,1.1-2.5,2.5s1.1,2.5,2.5,2.5l0,0c1.4,0,2.5-1.1,2.5-2.5S20.1,18.9,18.8,18.9L18.8,18.9z"/>
	<path class="st0" d="M23.5,27.3c-0.2,0-0.4-0.1-0.4-0.2c-1.1-1.3-2.7-2-4.4-2c-1.7,0-3.3,0.7-4.4,2c-0.1,0.1-0.3,0.2-0.5,0.2
		c-0.1,0-0.3,0-0.4-0.1c-0.3-0.3-0.3-0.6,0-0.8c1.3-1.5,3.2-2.4,5.3-2.4s4,0.9,5.3,2.4c0.1,0.1,0.1,0.2,0.1,0.4
		c0,0.1-0.1,0.3-0.2,0.4C23.8,27.2,23.7,27.3,23.5,27.3z"/>
</g>
</svg>
