<?xml version="1.0" encoding="utf-8"?>
<!-- Generator: Adobe Illustrator 19.0.0, SVG Export Plug-In . SVG Version: 6.00 Build 0)  -->
<svg version="1.1" id="图层_1" xmlns="http://www.w3.org/2000/svg" xmlns:xlink="http://www.w3.org/1999/xlink" x="0px" y="0px"
	 viewBox="-338 8 24 24" style="enable-background:new -338 8 24 24;" xml:space="preserve">
<style type="text/css">
	.st0{fill:#DBDBDB;}
</style>
<path class="st0" d="M-317.1,8h0.3H-317.1z M-317.1,8h-18.4c-1.6,0-2.6,1.1-2.6,3v14c0,1.9,1,3,2.6,3h6.8l3,4l3-4h6
	c1.6,0,2.6-1.1,2.6-3V11C-314.1,9.1-315.4,8-317.1,8z M-331.2,20.2c-1,0-1.7-0.9-1.7-2c0-1.1,0.8-2,1.7-2c1,0,1.7,0.9,1.7,2
	C-329.5,19.3-330.3,20.2-331.2,20.2z M-326,20.2c-1,0-1.7-0.9-1.7-2c0-1.1,0.8-2,1.7-2s1.7,0.9,1.7,2
	C-324.4,19.3-325.1,20.2-326,20.2z M-321,20.2c-1,0-1.7-0.9-1.7-2c0-1.1,0.8-2,1.7-2c0.9,0,1.7,0.9,1.7,2
	C-319.2,19.3-320,20.2-321,20.2z"/>
</svg>
