<?xml version="1.0" encoding="utf-8"?>
<!-- Generator: Adobe Illustrator 19.0.0, SVG Export Plug-In . SVG Version: 6.00 Build 0)  -->
<svg version="1.1" id="图层_1" xmlns="http://www.w3.org/2000/svg" xmlns:xlink="http://www.w3.org/1999/xlink" x="0px" y="0px"
	 viewBox="0 0 50 50" style="enable-background:new 0 0 50 50;" xml:space="preserve">
<style type="text/css">
	.st0{fill-rule:evenodd;clip-rule:evenodd;fill:#EFABFF;}
</style>
<g>
	<path class="st0" d="M13,37.6c-1-1.4-1.9-2.8-2.8-4.3c-1.4,0.5-2.8,0.9-3.2,2.8c-0.4,1.6-2.5,2.2-4,1.5c-1.6-0.7-2.3-2.4-1.6-3.8
		c0.7-1.5,2.6-2.3,4.1-1.5c1.8,0.9,3.1-0.2,4-1c0.6-0.6,0.4-2.3,0.2-3.4c-0.2-0.8-3.2-0.7-4.1,0.1C4,29.2,2.3,29.2,1,28.1
		C-0.3,27-0.4,25.2,0.8,24c1.1-1.2,3.4-1.5,4.3-0.2c1.2,1.6,2.8,1.4,4.5,1.5c0.3-0.8,0.5-1.6,0.8-2.4c0.6-1.5-0.5-2.7-2.3-2.5
		c-0.8,0.1-1.8,0.3-2.6,0c-1.5-0.5-2.1-1.7-1.8-3.2c0.3-1.4,1.3-2.3,2.9-2.4c1.6-0.1,2.9,0.7,3.1,2.1c0.2,1.7,1.2,2.3,2.6,3
		c1.4-1,2.8-2,4.3-3c-0.6-1.2-1.1-2.3-2.9-2.3c-1.7,0-3-1.5-2.9-3.1c0.1-1.6,1.6-2.8,3.4-2.7c1.7,0.1,3.2,1.5,2.8,3.1
		c-0.4,1.6,0.4,2.6,1.6,3.7c1.8-1.2,3.6-2.3,5.4-3.5c-0.6-1.3-1.3-2.2-2.9-2.2c-1.8,0-3.1-1.8-2.8-3.3c0.3-1.6,2-2.8,3.8-2.4
		c1.7,0.3,2.8,2,2.4,3.6c-0.3,1.3-0.2,1.5,1.4,2.8c1.3-0.7,2.5-1.3,3.8-2c0.9-0.5,0.7-2.6-0.3-3.4c-1.1-0.9-1.9-2-1.1-3.3
		c0.5-0.9,1.6-1.7,2.7-2c1.3-0.4,2.3,0.4,3,1.5c0.7,1.1,0.6,2.4-0.4,3.2c-1.2,1-1.3,2.1-1,3.3c1.4,0.5,2.7,1,4.1,1.5
		c0.9-1.3,1.9-2.4,1-4.2c-0.7-1.4,0.6-3,2.2-3.4c1.7-0.4,3.4,0.5,3.9,2c0.4,1.5-0.5,3.3-2.1,3.5c-2.2,0.3-2.2,2.1-3.2,3.3
		c-0.1,0.1,0.1,0.6,0.3,0.9c0.5,0.8,1.1,1.6,1.8,2.5c1.5-0.4,2.8-0.7,3.3-2.5c0.5-1.7,2.6-2.2,4.2-1.5c1.5,0.7,2.2,2.3,1.5,3.7
		c-0.8,1.6-2.4,2.3-4.2,1.6c-2.1-0.8-4.1,0.3-4.3,2.4c0,0.4-0.2,0.8-0.2,1.1c0,0.8-0.1,2,0.2,2.2c1.1,0.5,2.4,1.1,3.7,0
		c1.5-1.2,3.4-0.9,4.6,0.6c1,1.4,0.7,3-0.8,4c-1.5,1-3.4,0.7-4.4-0.9c-0.8-1.5-2.3-1.3-3.6-1.5c-0.3,0-0.8,0.5-0.9,0.9
		c-0.5,1.3-1.2,2.7-1,3.9c0.1,0.6,1.7,1.8,3.4,1c1.6-0.8,3.4,0.2,4.1,1.8c0.6,1.5-0.3,3.2-2,3.7c-1.6,0.5-3.5-0.2-3.9-1.8
		c-0.4-1.8-1.8-2.3-3.3-3c-1,1.3-2,2.6-3.1,3.9c1,1.1,1.9,2.2,3.8,1.9c1.7-0.3,3.2,1.1,3.3,2.7c0.1,1.5-1.2,2.9-2.8,3
		c-1.8,0.1-3.2-1-3.5-2.6c-0.3-2.1-0.4-2.3-2.4-3.4c-1.3,1-2.7,1.9-4,2.9c-0.8,0.6-0.1,3.7,1,4.2c1.4,0.6,2.5,1.6,2.1,3
		c-0.2,0.9-1.1,2.1-2,2.4c-0.9,0.3-2.4-0.1-3.3-0.7c-1.1-0.7-1.4-2.1-0.6-3.1c1.3-1.5,0.7-2.8,0.2-4.4c-1.3,0.2-2.7,0.4-4,0.7
		c-1.2,0.3-1.5,3.1-0.5,4.1c0.9,0.9,1.4,1.8,1,3.1c-0.4,1.3-1.5,2-2.8,2.1c-1.4,0.1-2.5-0.6-3-1.8c-0.6-1.2-0.2-2.3,0.8-3.3
		c0.5-0.5,1.2-1.1,1.4-1.7c0.5-2.3-0.9-4-3.4-4.2c-1-0.1-2.6,1.8-2.4,2.8c0.3,1.6-0.4,2.7-1.8,3.4c-1.4,0.6-2.7,0.3-3.8-0.9
		c-1.5-1.7-0.4-4.5,2-4.6C11.1,39.7,12.1,38.7,13,37.6L13,37.6z M21,35.9c2.6,0,4.5-1.9,4.5-4.3c-0.1-2.4-2.1-4.2-4.6-4.2
		c-2.6,0-4.4,1.9-4.4,4.3C16.4,34.3,18.3,35.9,21,35.9L21,35.9z M32.5,23.4c0-1.4-1.2-2.4-2.7-2.4c-1.6,0-2.6,0.9-2.6,2.4
		c0,1.5,1.1,2.5,2.6,2.5C31.3,25.9,32.5,24.8,32.5,23.4L32.5,23.4z M22.2,21c0.2,0,0.5,0,0.7,0c0.4-0.5,1.1-1.1,1.1-1.6
		c0-0.5-0.9-1.2-1.3-1.2c-0.5,0-1.4,0.7-1.4,1.1C21.2,19.9,21.9,20.4,22.2,21L22.2,21z"/>
</g>
</svg>
