<?xml version="1.0" encoding="utf-8"?>
<!-- Generator: Adobe Illustrator 19.0.0, SVG Export Plug-In . SVG Version: 6.00 Build 0)  -->
<svg version="1.1" id="图层_1" xmlns="http://www.w3.org/2000/svg" xmlns:xlink="http://www.w3.org/1999/xlink" x="0px" y="0px"
	 viewBox="0 0 50 50" style="enable-background:new 0 0 50 50;" xml:space="preserve">
<style type="text/css">
	.st0{fill-rule:evenodd;clip-rule:evenodd;fill:#04E69D;}
</style>
<path class="st0" d="M46.4,14.4c0,0-7.6-0.5-10.6,0.8c0,0-5.7,3.5-1.1,10.3c0,0,3.4,3.2,10.8,0c0,0-0.6,1.1-4.4,2.2
	c0,0-1.7,1.7,3.3,4.2c0,0-4.1-1.4-5-1.4c0,0-1.9,0-2,4.2c0,0.3,0,0.5,0,0.5c0-0.2,0-0.3,0-0.5c0-1.9-0.6-8.6-6.7-8.1
	c0,0-9.1,0-8.3,10.8c0,0-0.1,10.5,9.2,10.6c0,0,3.3,1.6,3.1-3.1c0,0,0.9-6.5,1.4,1.1c0,0,2.4-0.7,2.5-4.2c0,0,0.6,0.6,0.3,3.1h2.8
	c0,0,1,0.4-2.5,0.6c0,0-2.9,2.5,1.1,2c0,0-4.1,1.8,0.8,2.5c0,0-3.5,0-5.3-0.3c0,0-6.8,0-8.9-0.8c0,0.8-9.6-6.3-5-18.1
	c0,0-0.4-5.8-7.2-4.4c0,0-5.5,0.4-5.8,7.5c0,0,0-1,0-3.9c0,0-0.4-1.6-4.7,0.8c0,0,1.5-1.3,3.3-2.2c0,0,3-2.5-3.1-2.8
	c0,0-0.6-0.5,5.6-0.3c0,0,4.9,0.3,4.2-3.6c0,0,0.7-5.6-9.7-1.1l2.8-2c0,0,2.2-1.8-5.3-1.7l4.7-0.8c0,0,2.1-1-1.4-3.9
	c0,0,3.7,2.4,5,3.6c0,0,3.2,1,4.2,0.8c0,0,3.2-4.4-1.7-6.7c0,0-2.2-2-5.6-1.4c0,0,0.1-0.4,3.3-0.3c0,0,2.1-0.4,1.4-2
	c0,0-2.6-2.7-2.5-4.2c0,0,2.9,5.8,3.9-1.1c0,0,0.2,5.7,1.4,6.7c0,0,2.3,4,7,3.3c0,0,2.8-0.5,2.2-4.4c0,0-0.8-2-2.8-4.7
	c0,0,5.3,6.6,3.9-2c0,0,0.6-0.4,0.6,0c0,2.7,0.5,5.1,3.6,1.8c0.2-0.3,0.3-0.4,0.3-0.4c-0.1,0.1-0.2,0.3-0.3,0.4
	c-1.2,1.5-5.1,6.8-0.2,10.2c0,0,4.2,3.5,10.6-0.3c0,0,2-1.1,3.1-6.4L42,10.7c0,0,0.6,1.8,6.1,0.8C48.1,11.6,39.5,13,46.4,14.4
	L46.4,14.4L46.4,14.4 M46.4,14.4L46.4,14.4z M24,16.6c-3,0.5-2.8,2.8-2.8,2.8c-0.6,2.7,2.5,3.3,2.5,3.3c3.3-0.1,3.1-3.1,3.1-3.1
	C26.4,16.1,24,16.6,24,16.6L24,16.6L24,16.6 M24,16.6L24,16.6z M16.8,17.1c-0.5,0-0.8,0.4-0.8,0.8s0.4,0.8,0.8,0.8s0.8-0.4,0.8-0.8
	S17.3,17.1,16.8,17.1z M26.5,12.3c-0.8,0-1.5,0.7-1.5,1.5s0.7,1.5,1.5,1.5s1.5-0.7,1.5-1.5S27.3,12.3,26.5,12.3z M28.9,23.6
	c-0.4,0-0.7,0.3-0.7,0.7s0.3,0.7,0.7,0.7s0.7-0.3,0.7-0.7S29.3,23.6,28.9,23.6z M22.4,23.6c-0.7,0-1.2,0.5-1.2,1.2s0.5,1.2,1.2,1.2
	c0.7,0,1.2-0.5,1.2-1.2S23,23.6,22.4,23.6z M32.3,14.8c-0.2,0-0.4,0.2-0.4,0.4s0.2,0.4,0.4,0.4s0.4-0.2,0.4-0.4S32.6,14.8,32.3,14.8
	z M41.1,12.3c-0.1,0-0.3,0.1-0.3,0.3s0.1,0.3,0.3,0.3s0.3-0.1,0.3-0.3S41.2,12.3,41.1,12.3z M17.5,11.8c-0.4,0-0.7,0.3-0.7,0.7
	s0.3,0.7,0.7,0.7s0.7-0.3,0.7-0.7S17.9,11.8,17.5,11.8z"/>
</svg>
