<?xml version="1.0" encoding="utf-8"?>
<!-- Generator: Adobe Illustrator 19.0.0, SVG Export Plug-In . SVG Version: 6.00 Build 0)  -->
<svg version="1.1" id="图层_1" xmlns="http://www.w3.org/2000/svg" xmlns:xlink="http://www.w3.org/1999/xlink" x="0px" y="0px"
	 viewBox="0 0 100 100" style="enable-background:new 0 0 100 100;" xml:space="preserve">
<style type="text/css">
	.st0{fill:#f2f2f2;}
	.st1{fill:#44d50a;}
</style>
<rect x="0" class="st0" width="100" height="100"/>
<g id="XMLID_2_">
	<path id="XMLID_3_" class="st1" d="M73.3,52.7c-0.1-10.9,8.9-16.1,9.3-16.3c-5.1-7.4-12.9-8.4-15.7-8.5c-6.7-0.7-13.1,4-16.4,4
		s-8.6-3.9-14.2-3.7c-7.3,0.1-14,4.2-17.8,10.7c-7.6,13.2-2,32.7,5.4,43.3c3.6,5.2,7.9,11,13.6,10.8c5.4-0.3,7.5-3.5,14.1-3.5
		s8.4,3.5,14.2,3.4c5.8-0.1,9.5-5.3,13.2-10.6c4.1-6,5.8-12,5.9-12.2C84.7,70,73.4,65.7,73.3,52.7L73.3,52.7z M62.4,20.8
		c3-3.6,5-8.7,4.5-13.8c-4.3,0.2-9.5,2.9-12.6,6.5c-2.8,3.2-5.2,8.3-4.6,13.3C54.5,27.2,59.4,24.4,62.4,20.8L62.4,20.8z"/>
</g>
</svg>
