<?xml version="1.0" encoding="utf-8"?>
<!-- Generator: Adobe Illustrator 19.0.0, SVG Export Plug-In . SVG Version: 6.00 Build 0)  -->
<svg version="1.1" id="图层_1" xmlns="http://www.w3.org/2000/svg" xmlns:xlink="http://www.w3.org/1999/xlink" x="0px" y="0px"
	 viewBox="-152 -51.6 170 170" style="enable-background:new -152 -51.6 170 170;" xml:space="preserve">
<style type="text/css">
	.st0{fill:url(#SVGID_1_);}
	.st1{fill:url(#SVGID_2_);}
	.st2{fill:url(#SVGID_3_);}
	.st3{fill:url(#SVGID_4_);}
	.st4{fill:url(#SVGID_5_);}
	.st5{fill:#FFEB97;}
	.st6{fill:#FFFFFF;}
	.st7{fill:#C5FFED;}
</style>
<linearGradient id="SVGID_1_" gradientUnits="userSpaceOnUse" x1="-140.6132" y1="-9.1327" x2="6.6357" y2="75.8815">
	<stop  offset="1.240750e-006" style="stop-color:#00FFC6"/>
	<stop  offset="1" style="stop-color:#03A5FC"/>
</linearGradient>
<circle class="st0" cx="-67" cy="33.4" r="85"/>
<linearGradient id="SVGID_2_" gradientUnits="userSpaceOnUse" x1="-27.3903" y1="54.9053" x2="-10.9196" y2="54.9053">
	<stop  offset="1.240750e-006" style="stop-color:#00FFC6"/>
	<stop  offset="1" style="stop-color:#4B93FC"/>
</linearGradient>
<path class="st1" d="M-10.9,54.9c0-4.6-3.7-8.2-8.2-8.2s-8.2,3.7-8.2,8.2s3.7,8.2,8.2,8.2S-10.9,59.5-10.9,54.9z"/>
<linearGradient id="SVGID_3_" gradientUnits="userSpaceOnUse" x1="-23.7301" y1="54.9053" x2="-14.5797" y2="54.9053">
	<stop  offset="1.240750e-006" style="stop-color:#00FFC6"/>
	<stop  offset="1" style="stop-color:#4B93FC"/>
</linearGradient>
<path class="st2" d="M-23.7,54.9c0-2.6,2-4.6,4.6-4.6s4.6,2,4.6,4.6c0,2.6-2,4.6-4.6,4.6S-23.7,57.5-23.7,54.9z"/>
<linearGradient id="SVGID_4_" gradientUnits="userSpaceOnUse" x1="-116.8831" y1="70.9761" x2="-95.5584" y2="70.9761">
	<stop  offset="1.240750e-006" style="stop-color:#00FFC6"/>
	<stop  offset="1" style="stop-color:#4B93FC"/>
</linearGradient>
<path class="st3" d="M-95.6,71c0-6-4.6-10.7-10.7-10.7c-6,0-10.7,4.6-10.7,10.7c0,6,4.6,10.7,10.7,10.7
	C-100.2,81.6-95.6,76.7-95.6,71z M-109.8,71c0-2.1,1.4-3.6,3.6-3.6c2.1,0,3.6,1.4,3.6,3.6s-1.4,3.6-3.6,3.6
	C-108.4,74.5-109.8,72.8-109.8,71z"/>
<linearGradient id="SVGID_5_" gradientUnits="userSpaceOnUse" x1="-17.1161" y1="-13.5876" x2="-7.3879" y2="-13.5876">
	<stop  offset="1.240750e-006" style="stop-color:#00FFC6"/>
	<stop  offset="1" style="stop-color:#03C8FC"/>
</linearGradient>
<path class="st4" d="M-7.4-13.6c0-2.7-2.2-4.9-4.9-4.9s-4.9,2.2-4.9,4.9s2.2,4.9,4.9,4.9S-7.4-10.9-7.4-13.6z M-15.5-13.6
	c0-1.8,1.5-3.2,3.2-3.2S-9-15.4-9-13.6s-1.5,3.2-3.2,3.2S-15.5-11.8-15.5-13.6z"/>
<path class="st5" d="M-121.1-5.9h-2.2c-0.5,0-1.1-0.5-1.1-1.1s0.5-1.1,1.1-1.1h2.2c0.5,0,1.1,0.5,1.1,1.1S-120.5-5.9-121.1-5.9
	 M-124.1-10.2c-0.4,0.4-1.1,0.4-1.6,0c-0.4-0.4-0.4-1.1,0-1.6l1.6-1.6c0.4-0.4,1.1-0.4,1.6,0c0.4,0.4,0.4,1.1,0,1.6L-124.1-10.2
	 M-129,2.1c-0.5,0-1.1-0.5-1.1-1.1v-2.4c0-0.5,0.5-1.1,1.1-1.1s1.1,0.5,1.1,1.1v2.2C-127.9,1.5-128.5,2.1-129,2.1 M-129-11.5
	c-0.5,0-1.1-0.5-1.1-1.1v-2.2c0-0.5,0.5-1.1,1.1-1.1s1.1,0.5,1.1,1.1v2.2C-127.9-12.1-128.5-11.5-129-11.5 M-133.9-0.6
	c-0.4,0.4-1.1,0.4-1.6,0c-0.4-0.4-0.4-1.1,0-1.6l1.6-1.6c0.4-0.4,1.1-0.4,1.6,0c0.4,0.4,0.4,1.1,0,1.6L-133.9-0.6 M-133.9-10.2
	l-1.6-1.6c-0.4-0.4-0.4-1.1,0-1.6c0.4-0.4,1.1-0.4,1.6,0l1.6,1.6c0.4,0.4,0.4,1.1,0,1.6C-132.7-9.7-133.4-9.7-133.9-10.2 M-133.6-7
	c0,0.5-0.5,1.1-1.1,1.1h-2.2c-0.5,0-1.1-0.5-1.1-1.1s0.5-1.1,1.1-1.1h2.2C-134.1-8.1-133.6-7.7-133.6-7 M-124.1-3.7l1.6,1.6
	c0.4,0.4,0.4,1.1,0,1.6c-0.4,0.4-1.1,0.4-1.6,0l-1.6-1.6c-0.4-0.4-0.4-1.1,0-1.6S-124.7-4.3-124.1-3.7"/>
<path class="st6" d="M-60.1,34.2c-0.2,0.1-0.8,0.4-1.7,1h-0.1c-1.1,0.7-2.7,1.6-4.5,2.6c-1,0.6-2,1.1-2.7,1.5
	c-0.5,0.3-1,0.6-1.1,0.6h-0.1l-0.1,0.1c-0.2,0.2-0.5,0.3-0.8,0.3c-1,0-1.9-0.8-1.9-1.8c0,0,0-0.1,0-0.1V26.9c0-1.1,0.8-2,1.9-2
	c0.3,0,0.7,0.1,1,0.3l1.2,0.7l2.4,1.4c3.2,1.8,5.8,3.3,6.3,3.6c0.6,0.4,0.9,1,0.9,1.7C-59.3,33.2-59.6,33.8-60.1,34.2L-60.1,34.2z"
	/>
<path class="st6" d="M-35.8-3h-17.8l4.9-8.7c0.8-1.4,0.4-3.1-0.9-4c-1.4-0.7-3-0.2-3.8,1.2c0,0,0,0,0,0.1L-59.8-3h-13.9l-6.5-11.5
	c-0.7-1.4-2.3-1.9-3.7-1.2c0,0,0,0-0.1,0c-1.3,0.9-1.7,2.7-0.9,4L-80-3h-16.5c-7.1,0.2-12.8,6-12.8,13.2V56c0,7.1,5.7,13,12.8,13.2
	h60.7c7.1,0,12.8-5.8,12.8-12.9c0-0.1,0-0.2,0-0.3V10.2C-23,3-28.6-2.8-35.8-3z M-49.4,36.6c-0.5,0.2-1.9,1.1-4.2,2.4h-0.1
	c-2.8,1.7-6.7,3.9-11.3,6.6c-2.6,1.4-4.9,2.8-6.7,3.9c-1.2,0.7-2.5,1.5-2.7,1.6h-0.2l-0.2,0.2c-0.5,0.5-1.3,0.8-2,0.7
	c-2.6,0-4.7-2-4.7-4.6c0-0.1,0-0.2,0-0.2V18.3c-0.1-2.7,2-5,4.7-5.1c0.9,0,1.7,0.2,2.5,0.7l2.9,1.7l6,3.5c8.1,4.6,14.6,8.3,15.9,9.1
	c1.4,0.9,2.3,2.5,2.2,4.2c0.1,1.7-0.8,3.3-2.2,4.2L-49.4,36.6z"/>
<path class="st7" d="M-96.5-3c-7.1,0.2-12.8,6-12.8,13.2v45.9"/>
<path class="st7" d="M-35.8,69.3c7.1,0,12.8-5.8,12.8-12.9c0-0.1,0-0.2,0-0.3V10.3"/>
<path class="st7" d="M-80.3-14.2c-0.7-1.4-2.3-1.9-3.7-1.2c0,0,0,0-0.1,0c-1.3,0.9-1.7,2.7-0.9,4l4.9,8.6 M-48.7-11.4
	c0.8-1.4,0.4-3.1-0.9-4c-1.4-0.7-3-0.2-3.8,1.2c0,0,0,0,0,0.1l-6.5,11.6"/>
</svg>
