<?xml version="1.0" encoding="utf-8"?>
<!-- Generator: Adobe Illustrator 19.0.0, SVG Export Plug-In . SVG Version: 6.00 Build 0)  -->
<svg version="1.1" id="图层_1" xmlns="http://www.w3.org/2000/svg" xmlns:xlink="http://www.w3.org/1999/xlink" x="0px" y="0px"
	 viewBox="-294.8 390.6 59.5 59.5" style="enable-background:new -294.8 390.6 59.5 59.5;" xml:space="preserve">
<style type="text/css">
	.st0{fill:#fff;}
</style>
<path class="st0" d="M-235.3,392.3c0-0.1,0-0.1,0-0.2c0-0.1,0-0.1,0-0.2c0,0,0,0,0-0.1c0,0,0-0.1,0-0.1c0-0.1,0-0.1-0.1-0.2
	c0,0,0-0.1-0.1-0.1c0-0.1-0.1-0.1-0.1-0.2c0,0-0.1-0.1-0.1-0.1c0,0-0.1-0.1-0.1-0.1c0,0-0.1-0.1-0.1-0.1c0,0-0.1-0.1-0.1-0.1
	c0,0-0.1,0-0.1-0.1c-0.1,0-0.1-0.1-0.2-0.1c0,0-0.1,0-0.1,0c-0.1,0-0.1,0-0.2,0c-0.1,0-0.1,0-0.2,0c0,0-0.1,0-0.1,0c0,0,0,0-0.1,0
	c-0.1,0-0.1,0-0.2,0c-0.1,0-0.1,0-0.2,0c0,0,0,0-0.1,0l-27.6,8.1l-27.6-8.1c0,0,0,0-0.1,0c-0.1,0-0.1,0-0.2,0c-0.1,0-0.1,0-0.2,0
	c0,0,0,0-0.1,0c0,0-0.1,0-0.1,0c-0.1,0-0.1,0-0.2,0c-0.1,0-0.1,0-0.2,0c0,0-0.1,0-0.1,0c-0.1,0-0.1,0-0.2,0.1c0,0-0.1,0-0.1,0.1
	c-0.1,0-0.1,0.1-0.1,0.1c0,0-0.1,0.1-0.1,0.1c0,0-0.1,0.1-0.1,0.1c0,0-0.1,0.1-0.1,0.1c0,0-0.1,0.1-0.1,0.2c0,0,0,0.1-0.1,0.1
	c0,0.1-0.1,0.1-0.1,0.2c0,0,0,0.1,0,0.1c0,0,0,0,0,0.1c0,0.1,0,0.1,0,0.2c0,0.1,0,0.1,0,0.2c0,0,0,0,0,0.1v47.9h0
	c0.1,0.7,0.5,1.3,1.2,1.5l28.5,8.4l28.5-8.4c0.7-0.2,1.1-0.8,1.2-1.5h0L-235.3,392.3C-235.3,392.3-235.3,392.3-235.3,392.3z
	 M-269.1,437L-269.1,437c-0.5,1.6-2.2,2.4-3.7,1.8l-14.8-5.5c-1.5-0.6-2.3-2.3-1.7-3.8l0,0c0.5-1.6,2.2-2.4,3.7-1.8l14.8,5.5
	C-269.4,433.7-268.6,435.5-269.1,437z M-269.1,425L-269.1,425c-0.5,1.6-2.2,2.4-3.7,1.8l-14.8-5.5c-1.5-0.6-2.3-2.3-1.7-3.8l0,0
	c0.5-1.6,2.2-2.4,3.7-1.8l14.8,5.5C-269.4,421.7-268.6,423.5-269.1,425z M-269.1,413L-269.1,413c-0.5,1.6-2.2,2.4-3.7,1.8l-14.8-5.5
	c-1.5-0.6-2.3-2.3-1.7-3.8l0,0c0.5-1.6,2.2-2.4,3.7-1.8l14.8,5.5C-269.4,409.7-268.6,411.4-269.1,413z M-242.8,432.7l-14.8,5.5
	c-1.5,0.6-3.2-0.2-3.7-1.8l0,0c-0.5-1.6,0.2-3.3,1.7-3.8l14.8-5.5c1.5-0.6,3.2,0.2,3.7,1.8l0,0
	C-240.5,430.4-241.3,432.2-242.8,432.7z M-249.2,428.7L-249.2,428.7L-249.2,428.7L-249.2,428.7L-249.2,428.7z M-242.8,420.9
	l-14.8,5.5c-1.5,0.6-3.2-0.2-3.7-1.8l0,0c-0.5-1.6,0.2-3.3,1.7-3.8l14.8-5.5c1.5-0.6,3.2,0.2,3.7,1.8l0,0
	C-240.5,418.6-241.3,420.4-242.8,420.9z M-242.8,409.2l-14.8,5.5c-1.5,0.6-3.2-0.2-3.7-1.8l0,0c-0.5-1.6,0.2-3.3,1.7-3.8l14.8-5.5
	c1.5-0.6,3.2,0.2,3.7,1.8l0,0C-240.5,406.9-241.3,408.6-242.8,409.2z"/>
</svg>
