<?xml version="1.0" encoding="utf-8"?>
<!-- Generator: Adobe Illustrator 19.0.0, SVG Export Plug-In . SVG Version: 6.00 Build 0)  -->
<svg version="1.1" id="图层_1" xmlns="http://www.w3.org/2000/svg" xmlns:xlink="http://www.w3.org/1999/xlink" x="0px" y="0px"
	 viewBox="77.6 16.7 76.9 66" style="enable-background:new 77.6 16.7 76.9 66;" xml:space="preserve">
<style type="text/css">
	.st0{fill:#FFD658;}
</style>
<path class="st0" d="M117.2,17.2L97.4,29.9h-9.9c-5.5,0-9.9,4.4-9.9,9.9v19.8c0,5.5,4.4,9.9,9.9,9.9h9.9l19.8,12.7
	c2.8,1.2,4.9-0.1,4.9-2.8V20C122.2,17.3,120,16,117.2,17.2z M133.9,33.1c-0.9-1-2.5-1.1-3.5-0.1c-1,0.9-1.1,2.5-0.1,3.5
	c0.5,0.5,1.2,1.6,2.1,3.2c1.4,2.8,2.2,6.2,2.2,9.9s-0.8,7.1-2.2,9.9c-0.8,1.7-1.6,2.7-2.1,3.2c-0.9,1-0.9,2.5,0.1,3.5
	c1,0.9,2.5,0.9,3.5-0.1c0.8-0.8,1.8-2.3,2.9-4.4c1.7-3.5,2.7-7.5,2.7-12.1s-1-8.6-2.7-12.1C135.7,35.5,134.7,34,133.9,33.1z
	 M149.1,30.1c-2-3.4-4-5.7-5.5-7c-1-0.9-2.6-0.8-3.5,0.2c-0.9,1-0.8,2.6,0.2,3.5c0.2,0.2,0.7,0.7,1.3,1.4c1.1,1.2,2.1,2.7,3.1,4.4
	c2.9,4.9,4.6,10.6,4.6,17.1s-1.7,12.2-4.6,17.1c-1,1.7-2.1,3.2-3.1,4.4c-0.6,0.7-1.1,1.2-1.3,1.4c-1,0.9-1.1,2.5-0.2,3.5
	c0.9,1,2.5,1.1,3.5,0.2c1.4-1.2,3.4-3.6,5.5-7c3.3-5.6,5.3-12.2,5.3-19.6C154.4,42.2,152.4,35.7,149.1,30.1L149.1,30.1z"/>
</svg>
