<?xml version="1.0" encoding="utf-8"?>
<!-- Generator: Adobe Illustrator 19.0.0, SVG Export Plug-In . SVG Version: 6.00 Build 0)  -->
<svg version="1.1" id="图层_1" xmlns="http://www.w3.org/2000/svg" xmlns:xlink="http://www.w3.org/1999/xlink" x="0px" y="0px"
	 viewBox="-26 41.8 18.1 18.4" style="enable-background:new -26 41.8 18.1 18.4;" xml:space="preserve">
<style type="text/css">
	.st0{fill:#FF6309;}
</style>
<path class="st0" d="M-17.9,45.7c-0.2-0.2-0.3-0.2-0.6-0.2c-0.2,0.1-0.4,0.2-0.5,0.3l-4.7,9.5l-0.9,0.9l-1.3,0.8
	c-0.2,0.1-0.3,0.3-0.3,0.5c0,0.2,0.1,0.4,0.2,0.5l2,2c0.1,0.1,0.3,0.2,0.5,0.2h0.1c0.2,0,0.3-0.1,0.5-0.3l0.8-1.3l0.8-0.8
	c0,0.1,0.1,0.1,0.1,0.1l2.1,2.1c0.1,0.1,0.3,0.2,0.5,0.2s0.3-0.1,0.5-0.2l0.3-0.3c0.2-0.2,0.2-0.6,0-0.9l-1.8-1.8l8-4
	c0.2-0.1,0.3-0.3,0.3-0.5c0.1-0.2-0.1-0.4-0.2-0.6L-17.9,45.7z M-23.5,59l-1.4-1.4l1.2-0.7l0.9,0.9L-23.5,59z"/>
<path class="st0" d="M-8,48.9c-0.3-1.9-1.2-3.5-2.4-4.7c-1.2-1.2-2.8-2-4.7-2.4c-0.2-0.1-0.5,0.1-0.6,0.4c-0.1,0.2-0.1,0.5,0.2,0.5
	l0,0c1.8,0.3,3.3,1.1,4.4,2.2c1.2,1.2,1.9,2.6,2.2,4.4c0.1,0.2,0.3,0.3,0.5,0.2c0.1-0.1,0.1-0.1,0.2-0.1C-8,49.2-7.9,49-8,48.9z"/>
<path class="st0" d="M-12.5,46.4c-0.7-0.7-1.6-1.3-2.6-1.6c-0.2-0.1-0.5,0.1-0.6,0.3c-0.2,0.2-0.1,0.5,0.1,0.6
	c0.9,0.3,1.7,0.8,2.4,1.4c0.6,0.6,1.2,1.5,1.4,2.4c0.1,0.2,0.3,0.2,0.6,0.1c0.1-0.1,0.1-0.1,0.1-0.1c0.2-0.2,0.2-0.4,0.2-0.5
	C-11.2,47.9-11.8,47.1-12.5,46.4z"/>
</svg>
