<?xml version="1.0" encoding="utf-8"?>
<!-- Generator: Adobe Illustrator 19.0.0, SVG Export Plug-In . SVG Version: 6.00 Build 0)  -->
<svg version="1.1" id="图层_1" xmlns="http://www.w3.org/2000/svg" xmlns:xlink="http://www.w3.org/1999/xlink" x="0px" y="0px"
	 viewBox="0 0 50 50" style="enable-background:new 0 0 50 50;" xml:space="preserve">
<style type="text/css">
	.st0{fill-rule:evenodd;clip-rule:evenodd;fill:#FFC176;}
	.st1{fill-rule:evenodd;clip-rule:evenodd;fill:#FFB56C;}
</style>
<path class="st0" d="M20.2,44.3c-1.1-1.7-0.7-4.3,1.2-6.2c2.1-2.1,5.1-2.4,6.7-0.7c1.7,1.7,1.4,4.7-0.7,6.7c-1.8,1.8-4.3,2.3-6,1.2
	c-0.1,0-0.1,0.1-0.2,0.1c-0.3,0.2-0.7,0.4-1,0.7c-0.1,0.2-0.2,0.3-0.3,0.5c0,0,0,0.1,0,0.1l0,0.1l0,0c0,0,0,0,0,0.1
	c0,0.1,0,0.3-0.1,0.5c-0.1,0.3-0.2,0.6-0.3,0.9c-0.1,0.3-0.3,0.6-0.5,0.8c-0.2,0.2-0.5,0.4-0.7,0.5c-0.3,0.1-0.5,0.2-0.7,0.2
	c-0.5,0.1-0.8,0.1-1.1,0c-0.3,0-0.4,0-0.4,0s0.1,0,0.4-0.1c0.3,0,0.6-0.1,1-0.3c0.4-0.2,0.8-0.4,1-0.9c0.2-0.4,0.3-0.9,0.3-1.5
	c0-0.1,0-0.3,0-0.4c0,0,0,0,0,0v-0.1l0-0.1c0-0.1,0-0.2,0-0.3c0.1-0.4,0.2-0.7,0.4-1C19.5,44.9,19.9,44.5,20.2,44.3L20.2,44.3z
	 M20.4,21.3c-3-4.6-1.8-11.6,3.1-16.6C29-0.8,37.1-1.6,41.6,2.9c4.5,4.5,3.6,12.6-1.9,18.1c-4.8,4.8-11.6,6.1-16.2,3.3
	c-0.1,0.1-0.3,0.1-0.4,0.2c-0.9,0.5-1.9,1.2-2.6,2c-0.4,0.4-0.6,0.9-0.8,1.4c0,0.1-0.1,0.3-0.1,0.4l0,0.2l0,0.1c0,0.1,0,0.1,0,0.2
	c-0.1,0.4-0.1,0.8-0.2,1.3c-0.2,0.9-0.4,1.7-0.8,2.5c-0.4,0.8-0.8,1.6-1.4,2.2c-0.6,0.6-1.3,1.1-2,1.5c-0.7,0.3-1.4,0.5-2,0.6
	c-1.2,0.2-2.3,0.2-3,0.1C9.4,37,9.1,37,9.1,37s0.4-0.1,1.1-0.2c0.7-0.1,1.7-0.3,2.7-0.8c1-0.4,2.1-1.2,2.7-2.3
	c0.6-1.1,0.9-2.5,0.8-3.9c0-0.3,0-0.7,0-1.1c0,0,0-0.1,0-0.1l0-0.2l0-0.4c0-0.3,0-0.5,0.1-0.8c0.2-1,0.5-2,1-2.8
	C18.3,23.1,19.4,22.1,20.4,21.3L20.4,21.3z M6.5,21c-0.8-1.2-0.5-3,0.8-4.3c1.4-1.4,3.5-1.6,4.6-0.5c1.1,1.1,0.9,3.2-0.5,4.6
	c-1.2,1.2-3,1.6-4.2,0.9c0,0-0.1,0-0.1,0.1C7,22,6.8,22.2,6.6,22.4c-0.1,0.1-0.2,0.2-0.2,0.4c0,0,0,0.1,0,0.1l0,0.1l0,0c0,0,0,0,0,0
	c0,0.1,0,0.2-0.1,0.3c0,0.2-0.1,0.4-0.2,0.7c-0.1,0.2-0.2,0.4-0.4,0.6c-0.2,0.2-0.3,0.3-0.5,0.4C5,25,4.8,25,4.7,25.1
	c-0.3,0.1-0.6,0-0.8,0c-0.2,0-0.3,0-0.3,0s0.1,0,0.3,0c0.2,0,0.4-0.1,0.7-0.2c0.3-0.1,0.5-0.3,0.7-0.6c0.2-0.3,0.2-0.6,0.2-1
	c0-0.1,0-0.2,0-0.3c0,0,0,0,0,0l0,0l0-0.1c0-0.1,0-0.1,0-0.2c0-0.3,0.1-0.5,0.3-0.7C6,21.5,6.3,21.2,6.5,21L6.5,21z M39.5,5.2
	c-0.5,0-0.9,0.4-0.9,0.9s0.4,0.9,0.9,0.9s0.9-0.4,0.9-0.9S40,5.2,39.5,5.2z M36.5,12.6c-1.1,0-2,0.9-2,2s0.9,2,2,2c1.1,0,2-0.9,2-2
	S37.7,12.6,36.5,12.6z"/>
<path class="st1" d="M24.4,24.8c0,0,2.8,1,4.5,1c1.6,0,3.9-0.3,5.8-1.3c1.9-1,4.2-2.6,4.8-3.2c0.6-0.7,2.3-2.5,2.7-3.2
	c0.5-0.9,1.6-2.6,2.1-4.8c0.5-2.2-0.9,1-0.9,1s-0.9,1.7-1.3,2.6c-0.5,0.8-1,1.8-2.4,3.3c-1.1,1.1-1,1.5-4.6,3.3
	c-3.6,1.8-5.7,1.7-5.7,1.7s-4.3-0.2-5.1-0.7C22.6,23.7,24.4,24.8,24.4,24.8z"/>
<path class="st1" d="M7.6,21.9c0,0,0.7,0.3,1.1,0.3c0.4,0,1-0.1,1.4-0.3c0.5-0.2,1.1-0.6,1.2-0.8c0.2-0.2,0.6-0.6,0.7-0.8
	c0.1-0.2,0.4-0.6,0.5-1.2c0.1-0.5-0.2,0.3-0.2,0.3s-0.2,0.4-0.3,0.6c-0.1,0.2-0.3,0.4-0.6,0.8c-0.3,0.3-0.3,0.4-1.2,0.8
	C9.3,22.1,8.8,22,8.8,22S7.8,22,7.6,21.9C7.2,21.7,7.6,21.9,7.6,21.9z"/>
<path class="st1" d="M21.9,45.6c0,0,1.1,0.3,1.7,0.3c0.6,0,1.6-0.2,2.3-0.6s1.5-1,1.7-1.2c0.2-0.3,0.8-1,0.9-1.3
	c0.2-0.3,0.6-1,0.7-1.8c0.2-0.8-0.3,0.4-0.3,0.4s-0.3,0.7-0.5,1c-0.2,0.3-0.4,0.7-0.9,1.3c-0.4,0.4-0.4,0.6-1.7,1.3
	c-1.3,0.7-2.1,0.7-2.1,0.7s-1.6,0-2-0.2C21.2,45.2,21.9,45.6,21.9,45.6z"/>
</svg>
