<?xml version="1.0" encoding="utf-8"?>
<!-- Generator: Adobe Illustrator 19.0.0, SVG Export Plug-In . SVG Version: 6.00 Build 0)  -->
<svg version="1.1" id="图层_1" xmlns="http://www.w3.org/2000/svg" xmlns:xlink="http://www.w3.org/1999/xlink" x="0px" y="0px"
	 viewBox="0 0 50 50" style="enable-background:new 0 0 50 50;" xml:space="preserve">
<style type="text/css">
	.st0{fill-rule:evenodd;clip-rule:evenodd;fill:#04E69D;}
	.st1{fill-rule:evenodd;clip-rule:evenodd;fill:#13CE8A;}
</style>
<g>
	<path class="st0" d="M49.4,13.4c5,15.3-6.1,28.8-18.2,33.5c-3.8,1.5-7.7,2.6-11.9,2.6c-4.7,0-8.4-1.8-11.3-5.2
		c-1.2-1.4-2.5-1.7-4-1.4c-1.8,0.4-1.7,2.1-1.9,3.4C1.8,47.8,2.6,49.8,0,50c-3.3-2-1.9-4.8-1.3-7.4c0.5-2.3,2.3-3.8,4.5-3.8
		c3,0.1,5.3-0.8,7.5-2.7c1.2-1.1,2.9-1.8,4.4-2.2c5.8-1.6,7.1-6.2,7.5-11.3c0.3-3.5-0.4-7.1,1.2-10.5c0.6-1.3-0.3-2.3-1.2-3.2
		c-1.1-1.1-2.3-2.1-3.2-3.3c-1.2-1.6-1.3-3.4,0.2-4.8c1.4-1.4,3-1.1,4.4,0.2C24.4,1.4,24.7,1.7,25,2c2.4,3.1,5.1,4.4,9.4,3.5
		C41,4.3,45.8,8.1,49.4,13.4L49.4,13.4z"/>
</g>
<path class="st1" d="M49.4,13.3L49.4,13.3c5,15.3-6.1,28.8-18.1,33.5c-3.8,1.5-7.7,2.6-11.9,2.6c-4.7,0-8.4-1.8-11.3-5.2
	c-1.2-1.4-2.5-1.7-4-1.4l0,0c0,0,2-1.5,4.1,0c1.4,0.9,1.2,0.9,1.2,0.9S14,50,25.3,47.5C36.7,44.9,43,36.9,43,36.9s3.7-3.5,5.5-10.6
	c1.3-4.8,0.6-8.6,0-10.6C48.3,14.9,48.6,13.9,49.4,13.3L49.4,13.3l-0.7,0.6"/>
</svg>
