<?xml version="1.0" encoding="utf-8"?>
<!-- Generator: Adobe Illustrator 19.0.0, SVG Export Plug-In . SVG Version: 6.00 Build 0)  -->
<svg version="1.1" id="图层_1" xmlns="http://www.w3.org/2000/svg" xmlns:xlink="http://www.w3.org/1999/xlink" x="0px" y="0px"
	 viewBox="-278 410.6 26 20" style="enable-background:new -278 410.6 26 20;" xml:space="preserve">
<style type="text/css">
	.st0{fill:#33A9FC;}
</style>
<g>
	<path class="st0" d="M-252,426.9v2.2c0,0.8-0.7,1.5-1.5,1.5h-23c-0.8,0-1.5-0.7-1.5-1.5v-17c0-0.1,0-0.2,0-0.2l13,10.7c0,0,0,0,0,0
		c0.1,0.1,0.2,0.1,0.4,0.1c0,0,0.1,0,0.1,0c0,0,0.1,0,0.1,0c0.1,0,0.3-0.1,0.4-0.1c0,0,0,0,0,0l12-10.6c0,0,0,0.1,0,0.1v9.6"/>
	<path class="st0" d="M-276.5,410.6h23c0.2,0,0.4,0,0.6,0.1l-11.6,10.3l-12.4-10.3C-276.8,410.7-276.7,410.6-276.5,410.6
		L-276.5,410.6L-276.5,410.6z"/>
</g>
</svg>
