<?xml version="1.0" encoding="utf-8"?>
<!-- Generator: Adobe Illustrator 19.0.0, SVG Export Plug-In . SVG Version: 6.00 Build 0)  -->
<svg version="1.1" id="图层_1" xmlns="http://www.w3.org/2000/svg" xmlns:xlink="http://www.w3.org/1999/xlink" x="0px" y="0px"
	 viewBox="-273 396.9 48 48" style="enable-background:new -273 396.9 48 48;" xml:space="preserve">
<style type="text/css">
	.st0{fill:#33a9fc;}
</style>
<path class="st0" d="M-233,413.3h-4.3c0-6.9-5.2-12.1-11.9-12.1c-6.7,0-11.9,5.2-11.9,12.1h-4.3c0-8.2,7.3-16.4,16.2-16.4
	S-233,405-233,413.3L-233,413.3z M-227.5,420.3c0-2.4-1.9-4.3-4.3-4.3h-34.3c-2.4,0-4.3,1.9-4.3,4.3v20.3c0,2.4,1.9,4.3,4.3,4.3
	h34.3c2.4,0,4.3-1.9,4.3-4.3L-227.5,420.3L-227.5,420.3z M-245.6,436.2c0,1.8-1.4,3.2-3.2,3.2h-0.5c-1.8,0-3.2-1.4-3.2-3.2v-8.7
	c0-1.8,1.4-3.2,3.2-3.2h0.5c1.8,0,3.2,1.4,3.2,3.2V436.2L-245.6,436.2z"/>
</svg>
