<?xml version="1.0" encoding="utf-8"?>
<!-- Generator: Adobe Illustrator 19.0.0, SVG Export Plug-In . SVG Version: 6.00 Build 0)  -->
<svg version="1.1" id="图层_1" xmlns="http://www.w3.org/2000/svg" xmlns:xlink="http://www.w3.org/1999/xlink" x="0px" y="0px"
	 viewBox="0 0 38 38" style="enable-background:new 0 0 38 38;" xml:space="preserve">
<style type="text/css">
	.st0{fill:#02CD8B;}
</style>
<path id="XMLID_3_" class="st0" d="M32.3,5.8h-7.9l2.2-3.9c0.3-0.6,0.2-1.4-0.4-1.8c-0.6-0.3-1.3-0.1-1.7,0.5l-2.9,5.2h-6.2
	l-2.9-5.2C12.2,0,11.6-0.2,11,0.2c-0.6,0.4-0.8,1.2-0.4,1.8l2.2,3.9H5.7c-3,0-5.7,2.7-5.7,5.9v20.4C0,35.3,2.6,38,5.7,38h26.7
	c3.1,0,5.7-2.6,5.7-5.9V11.7C38,8.5,35.4,5.8,32.3,5.8z M27.1,23.6c-0.2,0.1-0.8,0.5-1.9,1.1h-0.1c-1.3,0.8-3,1.8-5,3
	c-1,0.6-1.9,1.1-3,1.7c-0.5,0.3-1.1,0.7-1.2,0.7H16l-0.1,0.1c-0.2,0.3-0.5,0.3-0.9,0.3c-1.2,0-2.1-0.9-2.1-2.2V15.5
	c0-1.3,0.9-2.3,2.1-2.3c0.3,0,0.8,0.1,1.1,0.3c0.1,0.1,0.6,0.3,1.3,0.8c0.8,0.4,1.7,1,2.7,1.5c3.5,2,6.4,3.7,7,4.1
	c0.6,0.3,1,1.1,1,1.9C28.1,22.5,27.7,23.3,27.1,23.6z"/>
<path id="XMLID_2_" class="st0" d="M15.6,27.6l9.8-5.8l-9.8-5.7C15.6,16.1,15.6,27.6,15.6,27.6z"/>
</svg>
