<?xml version="1.0" encoding="utf-8"?>
<!-- Generator: Adobe Illustrator 19.0.0, SVG Export Plug-In . SVG Version: 6.00 Build 0)  -->
<svg version="1.1" id="图层_1" xmlns="http://www.w3.org/2000/svg" xmlns:xlink="http://www.w3.org/1999/xlink" x="0px" y="0px"
	 viewBox="-27 16.8 92 32" style="enable-background:new -27 16.8 92 32;" xml:space="preserve">
<style type="text/css">
	.st0{fill:#FFCC00;}
</style>
<path id="XMLID_2_" class="st0" d="M49.2,16.8H-11c-8.7,0-16,7-16,16s7.3,16,16,16h60c9,0,16-7.3,16-16
	C65.2,23.8,57.9,16.8,49.2,16.8z M0.6,42.5H-13V23.1h3.6v16.5h10V42.5z M9.1,42.5H5.5V23.1h3.6V42.5z M24.4,42.5h-3.6v-0.2L13,22.8
	h3.9v0.2c3.6,9.7,5.1,13.8,5.6,15.5c0.5-1.5,1.9-5.3,5.6-15.5v-0.2h4.1C32.2,23.1,24.4,42.5,24.4,42.5z M51.1,42.5H35.8V23.1h14.8
	v3.2H39.5v4.9h10.4v3.2H39.5v5.3h11.4L51.1,42.5L51.1,42.5z"/>
</svg>
