<?xml version="1.0" encoding="utf-8"?>
<!-- Generator: Adobe Illustrator 19.0.0, SVG Export Plug-In . SVG Version: 6.00 Build 0)  -->
<svg version="1.1" id="图层_1" xmlns="http://www.w3.org/2000/svg" xmlns:xlink="http://www.w3.org/1999/xlink" x="0px" y="0px"
	 viewBox="-281 404.9 32 32" style="enable-background:new -281 404.9 32 32;" xml:space="preserve">
<style type="text/css">
	.st0{fill:#DBDBDB;}
</style>
<path class="st0" d="M-279,420h13.2v-13.2H-279V420z M-275.7,410.1h6.6v6.6h-6.6V410.1z M-264.2,406.8V420h13.2v-13.2H-264.2z
	 M-254.2,416.7h-6.6v-6.6h6.6V416.7z M-274.1,415.1h3.3v-3.3h-3.3V415.1z M-279,434.9h13.2v-13.2H-279V434.9z M-275.7,425h6.6v6.6
	h-6.6V425z M-255.9,411.8h-3.3v3.3h3.3L-255.9,411.8L-255.9,411.8z M-264.2,434.9h3.3v-3.3h-3.3V434.9z M-260.8,425v6.6h3.3V425
	H-260.8z M-254.2,431.6h-3.3v3.3h6.6v-6.6h-3.3V431.6z M-254.2,425h3.3v-3.3h-3.3V425z M-264.2,421.7v3.3h3.3v-3.3H-264.2z
	 M-274.1,429.9h3.3v-3.3h-3.3V429.9z"/>
</svg>
