<?xml version="1.0" encoding="utf-8"?>
<!-- Generator: Adobe Illustrator 19.0.0, SVG Export Plug-In . SVG Version: 6.00 Build 0)  -->
<svg version="1.1" id="图层_1" xmlns="http://www.w3.org/2000/svg" xmlns:xlink="http://www.w3.org/1999/xlink" x="0px" y="0px"
	 viewBox="-85.9 87 37.8 28" style="enable-background:new -85.9 87 37.8 28;" xml:space="preserve">
<style type="text/css">
	.st0{fill:#FF9306;}
	.st1{fill:#FFBB69;}
</style>
<g>
	<path class="st0" d="M-70.8,93.5c0,0-16,21,4.8,21.5c0,0,20.5,0,0.5-22.5C-69.2,92.2-70.8,93.5-70.8,93.5z M-65.6,103.7
		c2.2,0.8,3.1,1.8,3.1,3.5c0,1.7-1.2,3.1-3.3,3.5v1.9h-1.8v-1.8c-1.3-0.1-2.5-0.4-3.2-0.8l0.6-2.2c0.8,0.4,1.9,0.8,3.1,0.8
		c1.1,0,1.8-0.4,1.8-1.2c0-0.7-0.6-1.2-2-1.6c-2-0.7-3.4-1.6-3.4-3.4c0-1.7,1.2-3,3.2-3.3v-1.8h1.8V99c1.3,0.1,2.1,0.3,2.7,0.6
		l-0.5,2.1c-0.5-0.2-1.4-0.6-2.7-0.6c-1.2,0-1.6,0.5-1.6,1.1C-67.9,102.7-67.2,103.1-65.6,103.7z"/>
	<path class="st0" d="M-65.8,91.5c0,0,1.4-4.3-0.2-4.5c-1.4-0.2-3.5-0.1-5.6,1.4c0.7,0.9,1.4,1.7,1.4,1.7l-1.8-1.4
		c-0.3,0.2-0.5,0.4-0.8,0.7l2.1,3.1C-70.7,92.5-68.3,91.2-65.8,91.5z"/>
</g>
<g>
	<path class="st1" d="M-78.2,102.7c-0.1,0.4-0.4,0.8-0.8,1.1v0h1.6c0.2-0.8,0.4-1.5,0.7-2.3H-78C-78,102-78,102.3-78.2,102.7z"/>
	<g>
		<path class="st1" d="M-77.7,105.8h-4.2v-1.3c0.8-0.3,1.8-1.3,1.8-2.3c0-0.2,0-0.4,0-0.6h-1.6v-1.6h1.3c-0.1-0.4-0.1-0.9-0.1-1.3
			c0-2,1.5-3.3,3.6-3.3c0.9,0,1.5,0.2,1.9,0.4l-0.4,1.8c-0.3-0.2-0.7-0.3-1.3-0.3c-1.1,0-1.5,0.7-1.5,1.5c0,0.4,0,0.8,0.1,1.2h2.2
			v0.1c0.7-1.7,1.6-3.2,2.3-4.4c-0.9-1.3-2-2.7-3.4-4.2c-2.9-0.3-4.2,0.8-4.2,0.8s-12.5,16.4,3.7,16.8
			C-77.8,107.9-77.8,106.9-77.7,105.8z"/>
		<path class="st1" d="M-77.4,90.5c0,0,1.1-3.4-0.2-3.5c-1.1-0.1-2.7-0.1-4.4,1.1c0.5,0.7,1.1,1.3,1.1,1.3l-1.4-1.1
			c-0.2,0.2-0.4,0.3-0.6,0.5l1.7,2.4C-81.2,91.3-79.3,90.3-77.4,90.5z"/>
	</g>
</g>
<g>
	<path class="st1" d="M-54.9,91.3c-2.9-0.3-4.2,0.8-4.2,0.8s-1.1,1.4-2.2,3.4c0.7,0.9,1.3,1.8,1.9,2.6c0.2-0.3,0.4-0.6,0.6-0.8
		c0.9-1,2.2-1.6,3.7-1.6c1,0,1.8,0.2,2.4,0.5l-0.4,1.8c-0.4-0.2-1.1-0.4-1.8-0.4c-0.8,0-1.5,0.3-2,0.9c-0.2,0.3-0.4,0.6-0.5,1h4v1.1
		H-58c0.1,0.1,0.4,0.6,0.4,0.7h4v1.1l-3.4,0c0.1,0.2,0.2,0.5,0.3,0.7c0.1,0.3,0.2,0.6,0.3,0.9c0.4,0.2,0.9,0.3,1.4,0.3
		c0.7,0,1.5-0.2,1.8-0.4l0.4,1.8c-0.5,0.3-1.5,0.6-2.5,0.6c-0.2,0-0.4,0-0.5,0c0.1,0.9,0.1,1.7,0,2.5c0.1,0,0.3,0,0.4,0
		C-55.3,108.9-39.3,108.9-54.9,91.3z"/>
	<path class="st1" d="M-55.2,90.5c0,0,1.1-3.4-0.2-3.5c-1.1-0.1-2.7-0.1-4.4,1.1c0.5,0.7,1.1,1.3,1.1,1.3l-1.4-1.1
		c-0.2,0.2-0.4,0.3-0.6,0.5l1.7,2.4C-59.1,91.3-57.2,90.3-55.2,90.5z"/>
</g>
</svg>
