<?xml version="1.0" encoding="utf-8"?>
<!-- Generator: Adobe Illustrator 19.0.0, SVG Export Plug-In . SVG Version: 6.00 Build 0)  -->
<svg version="1.1" id="图层_1" xmlns="http://www.w3.org/2000/svg" xmlns:xlink="http://www.w3.org/1999/xlink" x="0px" y="0px"
	 viewBox="-304.6 361.8 80 118" style="enable-background:new -304.6 361.8 80 118;" xml:space="preserve">
<style type="text/css">
	.st0{fill:#E6E6E6;}
</style>
<path class="st0" d="M-279,407.7l8.8-15.8c0.8,0,2.4,0,3.2,0c8.8,0,15.2-7.1,15.2-15c0-8.7-7.2-15-15.2-15s-15.2,7.1-15.2,15
	c0,4,1.6,7.9,4.8,11.1l-8.8,15.8c-0.8,0-1.6,0-3.2,0l0,0c-4.8,0-8.8,1.6-11.2,4.8c-3.2,3.2-4,7.1-4,11.1c0.8,7.9,7.2,14.3,15.2,14.3
	h0.8c4,0,8-2.4,10.4-4.8c0.8-0.8,1.6-2.4,2.4-3.2l8,0.8l2.4-8.7l-8-0.8C-274.2,413.3-275.8,410.1-279,407.7z M-267,370.5
	c4,0,6.4,3.2,6.4,6.3c0,4-3.2,6.3-6.4,6.3c-4,0-6.4-3.2-6.4-6.3C-273.4,373.7-270.2,370.5-267,370.5z M-284.6,423.6
	c-0.8,0.8-2.4,1.6-4,1.6l0,0c-3.2,0-6.4-2.4-6.4-6.3c0-1.6,0.8-3.2,1.6-4.8c0.8-0.8,2.4-1.6,4-1.6c3.2,0,6.4,2.4,6.4,6.3
	C-282.2,420.4-283,422-284.6,423.6z"/>
<path class="st0" d="M-224.6,426.7c-0.8-7.9-7.2-14.3-16-14.3l0,0c-4,0-8,2.4-10.4,4.8c-0.8,0.8-2.4,2.4-3.2,3.2
	c0,1.6-1.6,4.8-1.6,7.1v0.8c0,3.2,1.6,6.3,3.2,7.9l-7.2,13.5c-0.8,0-0.8,0-1.6,0c-8.8,0-15.2,7.1-15.2,15c0,8.7,7.2,15,15.2,15
	c8.8,0,15.2-7.1,15.2-15c0-4.8-2.4-9.5-5.6-11.9l6.4-11.1c1.6,0.8,3.2,0.8,5.6,0.8h0.8c4,0,8-2.4,10.4-4.8
	C-226.2,434.6-224.6,431.5-224.6,426.7z M-261.4,471.9c-4,0-6.4-3.2-6.4-6.3c0-4,3.2-6.3,6.4-6.3c4,0,6.4,3.2,6.4,6.3
	C-255,468.7-257.4,471.9-261.4,471.9z M-235,432.3c-0.8,1.6-3.2,2.4-4.8,2.4l0,0c-3.2,0-6.4-2.4-6.4-6.3c0-1.6,0.8-3.2,1.6-4.8
	c0.8-1.6,2.4-2.4,4.8-2.4c3.2,0,6.4,2.4,6.4,6.3C-233.4,429.1-234.2,430.7-235,432.3z"/>
<path class="st0" d="M-262.1,399l4.8,0.1l-0.2,13.5l-4.8-0.1L-262.1,399z"/>
<path class="st0" d="M-251.8,414.9l-3.2-2.4l7.2-10.3l3.2,2.4L-251.8,414.9z"/>
<path class="st0" d="M-259.8,446.5h-4.8l1.6-13.5l4.8,0.8L-259.8,446.5z"/>
<path class="st0" d="M-274.2,441.8l-3.2-2.4l8-9.5l4,2.4L-274.2,441.8z"/>
</svg>
