<?xml version="1.0" encoding="utf-8"?>
<!-- Generator: Adobe Illustrator 19.0.0, SVG Export Plug-In . SVG Version: 6.00 Build 0)  -->
<svg version="1.1" id="图层_1" xmlns="http://www.w3.org/2000/svg" xmlns:xlink="http://www.w3.org/1999/xlink" x="0px" y="0px"
	 viewBox="-83 85 32 32" style="enable-background:new -83 85 32 32;" xml:space="preserve">
<style type="text/css">
	.st0{fill:#9AC7ED;}
	.st1{fill:#33A9FC;}
</style>
<g>
	<path class="st0" d="M-71.4,105.3c0,0.4-0.2,0.7-0.5,1c-0.4,0.3-0.8,0.5-1.3,0.7s-1.1,0.5-1.7,0.8c-0.6,0.3-1.2,0.7-1.7,1.2h-0.6
		c-0.9,0-1.6-0.1-2.3-0.3c-0.7-0.2-1.2-0.4-1.6-0.7c-0.4-0.3-0.8-0.6-1-1c-0.2-0.4-0.3-0.8-0.3-1.1c0-0.4,0.2-0.8,0.7-1.1
		c0.5-0.3,1-0.5,1.6-0.8s1.1-0.5,1.6-0.7c0.5-0.3,0.7-0.6,0.7-1c0-0.4-0.1-0.8-0.4-1.1c-0.3-0.3-0.5-0.7-0.8-1.2
		c-0.3-0.4-0.6-0.9-0.8-1.5c-0.3-0.6-0.4-1.3-0.4-2.3c0-0.7,0.1-1.3,0.2-1.9s0.4-1.2,0.6-1.6c0.3-0.5,0.6-0.8,1.1-1.1
		c0.4-0.3,0.9-0.4,1.5-0.4c0.8,0,1.4,0.1,1.9,0.4c-0.1,0.8-0.2,1.6-0.2,2.4c0,1.3,0.1,2.5,0.3,3.4s0.5,1.7,0.8,2.4
		c-0.3,0.4-0.6,0.8-0.9,1.2c-0.3,0.4-0.4,0.8-0.4,1.3c0,0.3,0.1,0.5,0.4,0.7s0.7,0.4,1.1,0.6c0.4,0.2,0.9,0.4,1.3,0.6
		c0.5,0.2,0.9,0.4,1.2,0.6C-71.4,104.9-71.4,105-71.4,105.3z M-56.4,102.3c0,0.2,0.1,0.4,0.4,0.6c0.2,0.2,0.5,0.4,0.9,0.5
		c0.4,0.2,0.8,0.3,1.2,0.5c0.4,0.2,0.8,0.3,1.2,0.5s0.7,0.4,0.9,0.6c0.2,0.2,0.4,0.5,0.4,0.8c0,0.5-0.2,0.9-0.5,1.2
		s-0.8,0.7-1.3,0.9c-0.5,0.2-1.2,0.4-1.8,0.6s-1.4,0.2-2.1,0.2c-0.6-0.4-1.2-0.7-1.9-0.9s-1.3-0.4-1.9-0.6c-0.6-0.2-1.1-0.4-1.6-0.6
		c-0.4-0.2-0.7-0.5-0.8-1c0.1-0.4,0.4-0.7,0.8-1s1-0.5,1.5-0.7s1-0.5,1.5-0.7c0.4-0.3,0.7-0.6,0.7-1c0-0.4-0.2-0.9-0.5-1.2
		c-0.3-0.4-0.7-0.8-1.1-1.3c0.3-0.8,0.6-1.6,0.8-2.7c0.2-1,0.3-2.2,0.3-3.6c0-0.3,0-0.6,0-0.9c0-0.3-0.1-0.6-0.1-0.9
		c0.6-0.4,1.1-0.6,1.5-0.6c1,0,1.8,0.2,2.4,0.5c0.6,0.3,1.1,0.7,1.4,1.2c0.3,0.5,0.5,1,0.6,1.6c0.1,0.6,0.1,1.1,0.1,1.6
		c0,1-0.2,1.7-0.5,2.3c-0.3,0.6-0.7,1.1-1,1.5s-0.7,0.8-1,1.2C-56.3,101.4-56.4,101.8-56.4,102.3z"/>
	<path class="st1" d="M-65.3,105.7c0,0.4,0.2,0.8,0.6,1.2s0.9,0.7,1.5,1c0.6,0.3,1.2,0.6,2,0.9c0.7,0.3,1.4,0.6,2,0.9
		c0.6,0.3,1.1,0.7,1.5,1.1c0.4,0.4,0.6,0.9,0.6,1.4c0,0.4-0.3,0.7-0.9,1c-0.6,0.3-1.4,0.6-2.4,0.9s-2.1,0.5-3.4,0.7
		c-1.3,0.2-2.6,0.2-3.9,0.2c-1.5,0-2.9-0.1-4.1-0.2c-1.2-0.2-2.2-0.4-3-0.6c-0.8-0.3-1.4-0.6-1.8-0.9s-0.6-0.7-0.6-1
		c0-0.5,0.2-1,0.6-1.4c0.4-0.4,0.9-0.8,1.5-1.1c0.6-0.3,1.2-0.6,1.9-0.9c0.7-0.3,1.3-0.5,1.9-0.8c0.6-0.3,1.1-0.6,1.5-1
		c0.4-0.4,0.6-0.8,0.6-1.3s-0.1-0.9-0.3-1.4c-0.2-0.4-0.5-0.9-0.8-1.3s-0.6-0.9-1-1.4c-0.4-0.5-0.7-1.1-1-1.7
		c-0.3-0.6-0.6-1.4-0.8-2.2s-0.3-1.8-0.3-2.9c0-2.4,0.4-4.3,1.3-5.6c0.9-1.4,2.3-2.1,4.1-2.1c1.6,0,2.8,0.2,3.7,0.7
		c0.9,0.5,1.6,1.1,2,1.8c0.5,0.7,0.8,1.6,0.9,2.4c0.1,0.9,0.2,1.8,0.2,2.6c0,1.2-0.1,2.1-0.3,3c-0.2,0.8-0.4,1.6-0.8,2.2
		s-0.6,1.2-1,1.6c-0.3,0.5-0.7,0.9-1,1.4c-0.3,0.4-0.5,0.9-0.8,1.3C-65.2,104.6-65.3,105.1-65.3,105.7z"/>
</g>
</svg>
