<?xml version="1.0" encoding="utf-8"?>
<!-- Generator: Adobe Illustrator 19.0.0, SVG Export Plug-In . SVG Version: 6.00 Build 0)  -->
<svg version="1.1" id="图层_1" xmlns="http://www.w3.org/2000/svg" xmlns:xlink="http://www.w3.org/1999/xlink" x="0px" y="0px"
	 viewBox="0 0 50 50" style="enable-background:new 0 0 50 50;" xml:space="preserve">
<style type="text/css">
	.st0{fill-rule:evenodd;clip-rule:evenodd;fill:#EFABFF;}
	.st1{fill-rule:evenodd;clip-rule:evenodd;fill:#E98FFF;}
</style>
<g>
	<path class="st0" d="M14.9,45.4L14.9,45.4l-0.2,0.3c-5.2-4.4-13-9.1-12.8-17c0.2-6,6.3-11.3,12.5-9.2l-0.1,0.3l0,0L14.3,20
		c-4.3-1.2-9.7,3-9.9,8.8C4.1,36.5,9.8,41,15,45.3L14.9,45.4L14.9,45.4z M33.5,47.6c7.1-5.3,14-15.2,9.3-24.3
		c-2.6-5-11.2-10-15.5-3.6L27,19.4l0,0l-0.3-0.2c4.5-6.8,15.6-2.3,18.6,2.6c5.2,9.1-4.4,20.9-11.6,26.3L33.5,47.6L33.5,47.6z
		 M29.8,50.1c1.3-0.4,2.1-0.8,2.6-1.2c-0.8-0.9-1.8-1.9-2.4-2.3c6.7-1.3,11.4-11.9,0.2-18.8c0.8-0.8,0.8-3.1,0.6-3.3
		c-0.2-0.2-0.6-0.4-1-0.8v8.4c2.9,0,5.3,2.4,5.3,5.3c0,2.9-2.4,5.3-5.3,5.3V50.1L29.8,50.1L29.8,50.1z M29.8,41.3V35
		c0.8-0.8,2.2-1.4,3.7,0.4C35.1,37.6,32.1,40.1,29.8,41.3L29.8,41.3z M17.6,12.4c0,0.2,0,0.4,0,0.8l0,14.9c2.2,3.9,2.2,7.6,1.7,10.3
		c-0.5-0.6-1.1-1.4-1.7-2v4.2c0.3,0.3,0.6,0.5,0.8,0.7c-0.3,0.7-0.6,1.3-0.8,1.7v4.4c2.5,1.4,6.6,3.3,9.4,3.3
		c1.1-0.2,2.1-0.4,2.8-0.6v-7.2c-2.9,0-5.3-2.4-5.3-5.3s2.4-5.3,5.3-5.3v-8.4c-2.8-2.1-9.3-7.3-5.9-11c4.4,1.2,3.3-0.7,3.1-1.5
		c0.3-0.3,0.6-0.3,0.5-0.5c0-0.2-0.4-0.5-0.4-0.5s0.3-0.1,0.4-0.4c0-0.2-0.4-0.3-0.4-0.9c0.4-0.2,0.9-0.6,0.7-0.9
		c-0.2-0.5-1.5-1-1.5-2.3c0-0.1,0.1-0.2,0.1-0.2s-0.3-2.2-2.2-4c0-0.1,0.3-0.7-0.5-1c-1.2-0.4-4-1.2-6.2-0.3V12.4L17.6,12.4
		L17.6,12.4z M29.8,35v6.3c-0.2-0.2-0.3-0.2,0,0c-1.7-1.3-2.5-1.6-3.7-3.1c-1.7-3.1,2-4.4,3.4-2.8C29.6,35.3,29.7,35.1,29.8,35
		L29.8,35z M15.1,3.4c-2.9-1.9-3.4,6,0,5.2c0.2,0.3,0,3.1,2.5,3.6c0,0,0.1,0.1,0.1,0.2V0.4C16.5,0.9,15.6,1.8,15.1,3.4L15.1,3.4
		L15.1,3.4z M17.6,13.1c-0.1,0.8-0.4,1.9-0.6,2.2c-0.2,0.7-0.8,1.9-1,3.8c-0.8,2.6-3.6,11.8-4.1,14.7c-0.5,2.9,3.5,5,5.7,6.7v-4.2
		c-0.7-0.9-1.4-1.6-1.8-2c-0.7-0.7,0.6-3.7,1.7-6.4c0,0,0,0.1,0.1,0.1L17.6,13.1L17.6,13.1L17.6,13.1z M17.6,43
		c-0.2,0.3-0.3,0.5-0.3,0.6c-0.2,0.4-1,1.4-1.2,2.9c0.4,0.2,0.9,0.5,1.6,0.9V43L17.6,43L17.6,43z"/>
</g>
<path class="st1" d="M18.2,27.8c0.1,0.1,1.6,2.7,1.7,3.1c0.1,0.4,0.8,2.2,1,3.8c0.1,1.5,0,2.3,0,3.5c0,1.3-0.8,3.2-1,3.9
	c-0.3,0.7-0.3,0.7-0.3,0.7l-1.3,2.9c0,0,0,0,0,0h0c-0.3,0.9-1.3,1.3-2.2,0.8l0,0c0,0,0,0,0,0l0.2-0.7l0.3-0.7c0,0,0,0,0,0l0.3-0.6
	l0.2-0.4c0,0,0.3-0.4,0.3-0.4l0.4-0.7l0.8-1.7l0.9-2.9c0,0-0.2-0.1,0-0.1l0.2-1.5l0.1-1.1c0,0,0-0.3,0-0.3l0-0.4l-0.4-2.9
	c0,0,0,0,0,0l-0.7-2.3c0,0,0-0.1-0.1-0.1l-0.8-1.7L18.2,27.8z"/>
</svg>
