<?xml version="1.0" encoding="utf-8"?>
<!-- Generator: Adobe Illustrator 19.0.0, SVG Export Plug-In . SVG Version: 6.00 Build 0)  -->
<svg version="1.1" id="图层_1" xmlns="http://www.w3.org/2000/svg" xmlns:xlink="http://www.w3.org/1999/xlink" x="0px" y="0px"
	 viewBox="0 0 50 50" style="enable-background:new 0 0 50 50;" xml:space="preserve">
<style type="text/css">
	.st0{fill-rule:evenodd;clip-rule:evenodd;fill:#04E69D;}
	.st1{fill-rule:evenodd;clip-rule:evenodd;fill:#07D188;}
</style>
<path class="st0" d="M25,9.8C14.4,9.8,5.1,16,0.6,25C5.1,34,14.4,40.2,25,40.2c10.6,0,19.9-6.2,24.4-15.2C44.9,16,35.6,9.8,25,9.8
	L25,9.8z M37,17.8c2.9,1.8,5.3,4.3,7.1,7.2c-1.8,2.9-4.3,5.3-7.1,7.2c-3.6,2.3-7.8,3.5-12,3.5c-4.3,0-8.4-1.2-12-3.5
	c-2.9-1.8-5.3-4.3-7.1-7.2c1.8-2.9,4.3-5.3,7.1-7.2c0.2-0.1,0.4-0.2,0.6-0.3c-0.5,1.3-0.7,2.7-0.7,4.2c0,6.7,5.5,12.2,12.2,12.2
	c6.7,0,12.2-5.5,12.2-12.2c0-1.5-0.3-2.9-0.7-4.2C36.6,17.6,36.8,17.7,37,17.8L37,17.8z M25,20.1c0,2.5-2,4.6-4.6,4.6
	s-4.6-2-4.6-4.6c0-2.5,2-4.6,4.6-4.6S25,17.6,25,20.1L25,20.1z"/>
<path class="st1" d="M0.8,25.3c0,0,8.2,15.6,24.5,14.9c17.4-0.7,24-15.1,24-15.1s-0.2-1.6-1.3,0.4c-0.9,1.7-6.7,13.4-22.7,13.8
	C10,39.6,1.3,25,1.3,25S0.6,24.3,0.8,25.3z"/>
</svg>
