<?xml version="1.0" encoding="utf-8"?>
<!-- Generator: Adobe Illustrator 19.0.0, SVG Export Plug-In . SVG Version: 6.00 Build 0)  -->
<svg version="1.1" id="图层_1" xmlns="http://www.w3.org/2000/svg" xmlns:xlink="http://www.w3.org/1999/xlink" x="0px" y="0px"
	 viewBox="0 0 50 50" style="enable-background:new 0 0 50 50;" xml:space="preserve">
<style type="text/css">
	.st0{fill-rule:evenodd;clip-rule:evenodd;fill:#FFC176;}
	.st1{fill-rule:evenodd;clip-rule:evenodd;fill:#FCAD65;}
</style>
<g>
	<g>
		<path class="st0" d="M36.4,16.1c0.4,0,0.8,0,1.2,0c2.6-0.5,4.3-3.3,3.7-6.4c-0.5-3-3.1-5.1-5.7-4.6c-0.5,0.1-1,0.3-1.4,0.5
			c-2.3-3.1-6-4.9-9.9-5.2c0,0,0,0,0,0c-5-1.3-9.8,0.7-10.7,4.5c0,0,0,0.1,0,0.1c-1.3,1.9-2.1,4.3-2.3,7.2c-0.4-0.1-0.7-0.3-0.9-0.5
			c0,0,0,0,0,0c-0.1,0.4,0.3,0.9,0.9,1c0,0.1,0,0.3,0,0.4c0,0.3,0,0.6,0,1c-0.2,1-0.9,1.3-3.8,2.3c-0.9,0.2,0.2,1.5,1.3,2.4
			c0.9,0.8,0,1.3-0.3,1.8c-0.3,0.5,0,1.2,0.5,1.4c0.6,0.3-0.5,0.3-0.5,1.3c0,1,1.3,0.5,0.8,2.1c-0.4,1.3-0.3,3.2,1.7,3
			c2-0.2,3.6-1,4.9-0.3c1.4,0.7,6.7,9.9,5.8,13.1c-0.9,3.2-4.2,2.2-5.8,8.6c3.5,0,22.9,0,22.9,0s-2-6.7-6.4-11.3
			c-3-3.1-4.3-6-4.6-9.3C32.1,27,35.5,21.7,36.4,16.1L36.4,16.1z"/>
	</g>
	<path class="st1" d="M34.2,5.6L34.2,5.6c0,0,3.5,4.3,3,8.6c-0.1,0.7-0.3,1.4-0.7,2l0,0C36.4,16.1,37.5,9.5,34.2,5.6z"/>
	<path class="st1" d="M45.5,18.8"/>
</g>
</svg>
