<?xml version="1.0" encoding="utf-8"?>
<!-- Generator: Adobe Illustrator 19.0.0, SVG Export Plug-In . SVG Version: 6.00 Build 0)  -->
<svg version="1.1" id="图层_1" xmlns="http://www.w3.org/2000/svg" xmlns:xlink="http://www.w3.org/1999/xlink" x="0px" y="0px"
	 viewBox="-267 387 20 20" style="enable-background:new -267 387 20 20;" xml:space="preserve">
<style type="text/css">
	.st0{fill:#DBDBDB;}
</style>
<path class="st0" d="M-257,407c-5.5,0-10-4.5-10-10c0-5.5,4.5-10,10-10s10,4.5,10,10C-247,402.5-251.5,407-257,407z M-257,388.3
	c-4.8,0-8.8,3.9-8.8,8.8c0,4.8,3.9,8.8,8.8,8.8c4.8,0,8.8-3.9,8.8-8.8C-248.3,392.2-252.2,388.3-257,388.3z"/>
<path class="st0" d="M-252.8,390.9l-3,5.6h2.4v1.2h-2.8v1.7h2.8v1.2h-2.8v2.5h-1.5v-2.5h-2.9v-1.2h2.9v-1.7h-2.9v-1.2h2.4l-3-5.6
	h1.8l2.1,4.3c0.1,0.2,0.2,0.5,0.4,0.9h0c0.1-0.3,0.2-0.6,0.4-1l2.1-4.3H-252.8z"/>
</svg>
