<?xml version="1.0" encoding="utf-8"?>
<!-- Generator: Adobe Illustrator 19.0.0, SVG Export Plug-In . SVG Version: 6.00 Build 0)  -->
<svg version="1.1" id="图层_1" xmlns="http://www.w3.org/2000/svg" xmlns:xlink="http://www.w3.org/1999/xlink" x="0px" y="0px"
	 viewBox="-83 85 32.1 32" style="enable-background:new -83 85 32.1 32;" xml:space="preserve">
<style type="text/css">
	.st0{fill:#FF6307;}
	.st1{fill:#FFFFFF;}
</style>
<path class="st0" d="M-66.8,85c-8.8,0-16,7.2-16,16c0,8.8,7.2,16,16,16c8.8,0,16-7.2,16-16C-50.8,92.2-58,85-66.8,85L-66.8,85
	L-66.8,85z"/>
<path class="st1" d="M-76.2,94.3h3.8c-0.3-0.3-0.9-0.8-1.6-1.4c-0.3-0.2-0.5-0.4-0.6-0.5l1.9-0.5c1.3,1,2.2,1.8,2.8,2.3l-0.2,0.1
	h1.7v-2.6h2.2v2.6h1.6l-0.2-0.1c0.9-0.6,1.9-1.4,2.9-2.3l1.9,0.5c-0.6,0.6-1.4,1.3-2.2,1.9h3.9v3.6h-2.2v-2.1h-13.8v2.1h-2.1V94.3
	L-76.2,94.3L-76.2,94.3z"/>
<polygon class="st1" points="-72.6,104 -72.6,107.3 -74.7,107.3 -74.7,102.4 -59.6,102.4 -59.6,107.2 -61.7,107.2 -61.7,104
	-72.6,104 -72.6,104 "/>
<path class="st1" d="M-59,110.7c-3.6-1.4-6.3-2.3-8.2-2.8c-1.2,1.4-4.1,2.4-8.7,2.9c-0.2-0.6-0.5-1.3-0.8-1.9
	c5.9-0.3,8.8-1.6,8.6-4.1h2.2c-0.1,0.6-0.2,1.1-0.4,1.6c1,0.3,2.4,0.7,4.2,1.4c1.8,0.5,3.2,0.9,4.1,1.2L-59,110.7L-59,110.7
	L-59,110.7z"/>
<path class="st1" d="M-73.5,97v4.3h12.6V97H-73.5z M-63,99.9h-8.3v-1.5h8.3V99.9z"/>
<rect x="-71.4" y="98.4" class="st0" width="8.3" height="1.5"/>
</svg>
