<?xml version="1.0" encoding="utf-8"?>
<!-- Generator: Adobe Illustrator 21.0.0, SVG Export Plug-In . SVG Version: 6.00 Build 0)  -->
<svg version="1.1" id="图层_1" xmlns="http://www.w3.org/2000/svg" xmlns:xlink="http://www.w3.org/1999/xlink" x="0px" y="0px"
	 viewBox="0 0 26 26" style="enable-background:new 0 0 26 26;" xml:space="preserve">
<style type="text/css">
	.st0{fill:#8C8C8C;}
</style>
<path class="st0" d="M13,10.1"/>
<path class="st0" d="M13,25.5C6.1,25.5,0.5,19.9,0.5,13C0.5,6.1,6.1,0.5,13,0.5S25.5,6.1,25.5,13C25.5,19.9,19.9,25.5,13,25.5z
	 M13,1.8C6.8,1.8,1.8,6.8,1.8,13c0,6.2,5,11.2,11.2,11.2s11.2-5,11.2-11.2C24.2,6.8,19.2,1.8,13,1.8z"/>
<path class="st0" d="M18.3,5.4l-3.8,6.9h3v1.5H14V16h3.5v1.5l-3.5,0v3.1H12v-3.1H8.4V16H12v-2.1H8.4v-1.5h3L7.7,5.4h2.2l2.6,5.4
	c0.1,0.3,0.3,0.7,0.5,1.1h0c0.1-0.4,0.3-0.8,0.5-1.2l2.6-5.4H18.3z"/>
</svg>
