<?xml version="1.0" encoding="utf-8"?>
<!-- Generator: Adobe Illustrator 19.0.0, SVG Export Plug-In . SVG Version: 6.00 Build 0)  -->
<svg version="1.1" id="图层_1" xmlns="http://www.w3.org/2000/svg" xmlns:xlink="http://www.w3.org/1999/xlink" x="0px" y="0px"
	 viewBox="-83 85 32 32" style="enable-background:new -83 85 32 32;" xml:space="preserve">
<style type="text/css">
	.st0{fill:#33A9FC;}
	.st1{fill:#FFFFFF;}
</style>
<path class="st0" d="M-51,101.1c0,8.8-7.2,16-16,16s-16-7.2-16-16s7.2-16,16-16S-51,92.3-51,101.1z"/>
<path class="st1" d="M-59.5,107.2C-59.5,107.2-59.5,107.2-59.5,107.2c0-0.3,0-0.5-0.1-0.7c0-0.2-0.1-0.4-0.2-0.6
	c-0.2-0.5-0.4-1-0.7-1.5c-0.3-0.5-0.5-0.9-0.9-1.3c-0.3-0.3-0.6-0.7-0.9-1c-0.2-0.2-0.5-0.4-0.8-0.6c-0.4-0.3-0.8-0.4-1.2-0.6
	c-0.3-0.1-0.6-0.1-0.8-0.1h-3.9c-0.1,0-0.2,0-0.3,0c-0.2,0-0.3,0-0.5,0.1c-0.4,0.1-0.7,0.2-1,0.4c-0.4,0.2-0.8,0.5-1.2,0.9
	c-0.1,0.1-0.3,0.3-0.4,0.4c-0.2,0.3-0.5,0.6-0.7,0.9c-0.3,0.4-0.6,0.9-0.8,1.4c-0.1,0.3-0.3,0.6-0.4,0.9c-0.1,0.3-0.2,0.5-0.2,0.8
	c-0.1,0.3-0.1,0.7-0.1,1c0,0.2,0,0.3,0.1,0.5c0.1,0.5,0.3,1,0.7,1.3c0.1,0.1,0.2,0.2,0.3,0.2c0.2,0.1,0.4,0.2,0.7,0.2
	c0.4,0.1,0.9,0.2,1.4,0.3c0.4,0.1,0.9,0.1,1.3,0.2c0.2,0,0.5,0,0.8,0.1c0.3,0,0.5,0,0.8,0h3.1l0.2,0c0.3,0,0.7,0,1,0
	c0.2,0,0.4,0,0.6-0.1c0.4,0,0.7-0.1,1.1-0.1c0.6-0.1,1.1-0.2,1.6-0.4c0.1,0,0.2-0.1,0.4-0.2c0.2-0.1,0.3-0.2,0.5-0.4
	c0.3-0.4,0.5-0.9,0.5-1.5v0c0,0,0,0,0-0.1L-59.5,107.2L-59.5,107.2z"/>
<path class="st1" d="M-66.7,91.7C-66.7,91.7-66.7,91.7-66.7,91.7c-0.1,0-0.1,0-0.1,0h-0.3c0,0,0,0-0.1,0c0,0,0,0-0.1,0
	c-0.2,0-0.4,0-0.6,0.1c-0.8,0.2-1.6,0.6-2.2,1.2c-0.7,0.8-1.1,1.7-1.2,2.7c0,0.4,0,0.8,0.1,1.1c0.2,0.9,0.6,1.6,1.2,2.2
	c0.9,0.9,2.2,1.3,3.5,1.2c2.4-0.3,4.1-2.4,3.8-4.7C-62.9,93.5-64.6,91.9-66.7,91.7L-66.7,91.7z"/>
<path class="st0" d="M-68,110.5C-68,110.5-68,110.5-68,110.5l0.7,0c0,0,0,0,0,0H-68z"/>
<path class="st0" d="M-66.6,110.5C-66.6,110.5-66.6,110.5-66.6,110.5l0.7,0c0,0,0,0,0,0H-66.6z"/>
<path class="st0" d="M-67.1,110.5C-67.1,110.5-67.1,110.5-67.1,110.5L-67.1,110.5l0.3,0l0,0c0,0,0,0,0,0
	C-66.9,110.5-67,110.5-67.1,110.5z"/>
<path class="st0" d="M-67.1,110.5c-0.1,0-0.1,0-0.2,0v0L-67.1,110.5L-67.1,110.5z"/>
<path class="st0" d="M-66.8,110.5c0.1,0,0.1,0,0.2,0v0L-66.8,110.5L-66.8,110.5z"/>
<path class="st0" d="M-68,110.5h-0.2c0,0,0,0,0,0L-68,110.5L-68,110.5z"/>
<path class="st0" d="M-65.9,110.5h0.2c0,0,0,0,0,0L-65.9,110.5L-65.9,110.5z"/>
<path class="st0" d="M-68.5,110.5c0.1,0,0.1,0,0.2,0c0,0,0,0,0,0C-68.4,110.5-68.5,110.5-68.5,110.5L-68.5,110.5z"/>
<path class="st0" d="M-65.4,110.5c-0.1,0-0.1,0-0.2,0c0,0,0,0,0,0L-65.4,110.5L-65.4,110.5z"/>
<path class="st0" d="M-68.4,110.5h0.1c0,0,0,0,0,0C-68.3,110.5-68.3,110.5-68.4,110.5L-68.4,110.5z"/>
<path class="st0" d="M-65.5,110.5c0,0-0.1,0-0.1,0c0,0,0,0,0,0L-65.5,110.5L-65.5,110.5z"/>
<path class="st0" d="M-67.2,91.7C-67.2,91.7-67.2,91.7-67.2,91.7L-67.2,91.7L-67.2,91.7L-67.2,91.7z"/>
<path class="st0" d="M-66.7,91.7L-66.7,91.7L-66.7,91.7C-66.8,91.7-66.8,91.7-66.7,91.7C-66.7,91.7-66.7,91.7-66.7,91.7z"/>
<path class="st0" d="M-59.5,107.2C-59.5,107.2-59.5,107.2-59.5,107.2L-59.5,107.2L-59.5,107.2z"/>
<path class="st0" d="M-68.3,110.5C-68.2,110.5-68.2,110.5-68.3,110.5L-68.3,110.5L-68.3,110.5L-68.3,110.5z"/>
<path class="st0" d="M-65.7,110.5C-65.7,110.5-65.7,110.5-65.7,110.5L-65.7,110.5L-65.7,110.5L-65.7,110.5z"/>
<path class="st0" d="M-67.2,91.7C-67.2,91.7-67.1,91.7-67.2,91.7L-67.2,91.7L-67.2,91.7z"/>
<path class="st0" d="M-66.8,91.7L-66.8,91.7C-66.8,91.7-66.8,91.7-66.8,91.7L-66.8,91.7z"/>
<path class="st0" d="M-59.5,107.8C-59.5,107.8-59.5,107.8-59.5,107.8L-59.5,107.8C-59.5,107.7-59.5,107.8-59.5,107.8z"/>
<rect x="-59.5" y="107.8" class="st0" width="0" height="0"/>
</svg>
