<?xml version="1.0" encoding="utf-8"?>
<!-- Generator: Adobe Illustrator 19.0.0, SVG Export Plug-In . SVG Version: 6.00 Build 0)  -->
<svg version="1.1" id="图层_1" xmlns="http://www.w3.org/2000/svg" xmlns:xlink="http://www.w3.org/1999/xlink" x="0px" y="0px"
	 viewBox="-279 406.8 28 29" style="enable-background:new -279 406.8 28 29;" xml:space="preserve">
<style type="text/css">
	.st0{fill:#FF9306;}
	.st1{fill:#FFFFFF;}
</style>
<g>
	<path class="st0" d="M-262.5,435.7c-2.4,0.2-5.1,0-5.1,0s-11.4-0.3-11.4-9.2c0-8.9,9-14.6,9-14.6h9.8c0,0,9.2,6.9,9.2,14.8
		C-251,434.6-262.5,435.8-262.5,435.7L-262.5,435.7L-262.5,435.7z"/>
	<g>
		<path class="st1" d="M-265.6,418.1h1.2v1.4h1.2c0.3-0.4,0.5-0.9,0.7-1.3l1.1,0.4c-0.2,0.4-0.3,0.7-0.5,0.9h2.1v2.6h-1.1v-1.6h-8
			v1.6h-1.1v-2.6h2.2c-0.2-0.3-0.4-0.6-0.6-0.9l1.1-0.4c0.3,0.4,0.5,0.8,0.7,1.3h1.2V418.1z M-264.4,425.6c-0.2,1.4-0.5,2.3-1.1,2.8
			c-0.6,0.6-2,1-4.3,1.1l-0.5-1.1c1.9-0.1,3.1-0.3,3.7-0.8c0.5-0.4,0.8-1.1,0.9-2.2L-264.4,425.6z M-261.1,424.1v3.4h-1.1v-2.4h-5.5
			v2.5h-1.1v-3.6H-261.1z M-268.2,421.1h6.3v2.4h-6.3V421.1z M-262.9,422.7v-0.8h-4.1v0.8H-262.9z M-264.2,427.3
			c1.6,0.3,3.1,0.7,4.3,1.2l-0.7,1c-1.4-0.6-2.8-1.1-4.3-1.4L-264.2,427.3z"/>
	</g>
	<path class="st0" d="M-260.3,410.5h-9.5l-3.3-3.7c0,0,2.5,0.8,4,0.8c1.5,0,4.1-0.8,4.1-0.8s2.4,0.8,3.9,0.8c1.5,0,4.1-0.8,4.1-0.8
		L-260.3,410.5L-260.3,410.5L-260.3,410.5z"/>
</g>
</svg>
