<?xml version="1.0" encoding="utf-8"?>
<!-- Generator: Adobe Illustrator 21.0.0, SVG Export Plug-In . SVG Version: 6.00 Build 0)  -->
<svg version="1.1" id="图层_1" xmlns="http://www.w3.org/2000/svg" xmlns:xlink="http://www.w3.org/1999/xlink" x="0px" y="0px"
	 viewBox="0 0 26 26" style="enable-background:new 0 0 26 26;" xml:space="preserve">
<style type="text/css">
	.st0{fill:#8C8C8C;}
</style>
<path class="st0" d="M13,4.4C7.2,4.4,2.2,8,0.2,13c2,5,7,8.6,12.8,8.6c5.8,0,10.7-3.5,12.8-8.6C23.7,8,18.8,4.4,13,4.4z M13,20.3
	c-5.1,0-9.6-3-11.6-7.3C3.4,8.7,7.9,5.7,13,5.7c5.1,0,9.6,3,11.6,7.3C22.6,17.3,18.1,20.3,13,20.3z"/>
<path class="st0" d="M13,8.4c-2.6,0-4.8,2-4.8,4.6c0,2.5,2.1,4.6,4.8,4.6s4.8-2,4.8-4.6C17.8,10.5,15.6,8.4,13,8.4z M13,16.3
	c-1.9,0-3.5-1.5-3.5-3.3c0-1.8,1.6-3.3,3.5-3.3c1.9,0,3.5,1.5,3.5,3.3C16.5,14.8,14.9,16.3,13,16.3z"/>
<path class="st0" d="M13,10.1"/>
</svg>
