<?xml version="1.0" encoding="utf-8"?>
<!-- Generator: Adobe Illustrator 19.0.0, SVG Export Plug-In . SVG Version: 6.00 Build 0)  -->
<svg version="1.1" id="图层_1" xmlns="http://www.w3.org/2000/svg" xmlns:xlink="http://www.w3.org/1999/xlink" x="0px" y="0px"
	 viewBox="-296.2 394.8 62.5 52.9" style="enable-background:new -296.2 394.8 62.5 52.9;" xml:space="preserve">
<style type="text/css">
	.st0{fill:#fff;}
</style>
<path class="st0" d="M-234.8,439.1L-234.8,439.1z"/>
<path class="st0" d="M-244.5,439.5c-2.8-6.8-8.6-11.7-15.4-13.2c3.6-2.6,6.2-7.7,6.8-13.9c-1.4-0.7-2.9-1.1-3-1.1
	c-8.4-1.8-15.9-0.4-18.1,0c-0.8,0.2-2.2,0.5-3,0.8c0.6,6.5,3.3,11.9,7.1,14.4c-6.4,1.8-11.7,6.5-14.4,13l-0.1,0.2
	c-0.3,1.1-0.7,3.8,0.7,5.8c0.6,0.8,1.7,1.7,3.7,1.9c1.9,0.1,7.1,0.3,15.7,0.4h0.1h0c8.5-0.1,13.7-0.3,15.6-0.4
	c2-0.1,3.1-1.1,3.7-1.9c1.5-2,1-4.7,0.7-5.8L-244.5,439.5L-244.5,439.5z"/>
<path class="st0" d="M-244.1,410.2c0.5,0.2,1.2,0.5,1.8,0.8c0.6-3.7,0.4-6.1,0.4-6.3c-0.3-5.6-5.7-7.6-8.5-7.9l-3-0.1
	c0,0,2.6,6.7,3.1,12.2C-249.6,409-246.1,409.3-244.1,410.2L-244.1,410.2z"/>
<path class="st0" d="M-233.9,439.1c-2.2-7-7.1-9.6-10.3-11.3c-0.5-0.3-1-0.5-1.4-0.8c-0.6-0.3-1.2-0.6-1.7-0.9
	c-0.3-0.1-0.7-0.3-0.9-0.5c3.2-4.7,4.8-9.3,5.6-12.9l-1.8-0.7c-1.2-0.6-4.2-1.1-5.9-1.2c0,0.2,0,0.4,0,0.6c-0.4,6-2.1,8.6-4.2,12.2
	c-0.4,0.7-0.8,1.2-0.8,1.7c0,0.2,1.1,0.9,1.6,1.2c2.2,1.2,5.9,3.4,9,7.7c4.3,6,2.5,10.9,2.5,10.9s4.7,0,6-0.1
	c0.8-0.1,1.4-0.4,1.9-0.9C-233.7,443.1-233.5,441.5-233.9,439.1L-233.9,439.1z"/>
<path class="st0" d="M-285.8,410.2c-0.5,0.2-1.2,0.5-1.8,0.8c-0.6-3.7-0.4-6.1-0.4-6.3c0.3-5.6,5.7-7.6,8.5-7.9l3-0.1
	c0,0-2.6,6.7-3.1,12.2C-280.3,409-283.8,409.3-285.8,410.2L-285.8,410.2z"/>
<path class="st0" d="M-296,439.1c2.2-7,7.1-9.6,10.3-11.3c0.5-0.3,1-0.5,1.4-0.8c0.6-0.3,1.2-0.6,1.7-0.9c0.3-0.1,0.7-0.3,0.9-0.5
	c-3.2-4.7-4.8-9.3-5.6-12.9l1.8-0.7c1.2-0.6,4.2-1.1,5.9-1.2c0,0.2,0,0.4,0,0.6c0.4,6,2.1,8.6,4.2,12.2c0.4,0.7,0.8,1.2,0.8,1.7
	c0,0.2-1.1,0.9-1.6,1.2c-2.2,1.2-5.9,3.4-9,7.7c-4.3,6-2.5,10.9-2.5,10.9s-4.7,0-6-0.1c-0.8-0.1-1.4-0.4-1.9-0.9
	C-296.2,443.1-296.4,441.5-296,439.1L-296,439.1z"/>
<path class="st0" d="M-274.9,408.5c2.9-0.6,10.5-1.9,19.3,0l0,0c0.1,0,1.2,0.3,2.5,0.8c0-4.7-1.2-9.1-3.3-12.5l-0.3-0.4l-0.5-0.2
	c-5.2-1.9-11.2-1.9-16.4,0l-0.5,0.2l-0.3,0.4c-2.1,3.3-3.2,7.6-3.3,12.2c0,0.1,0,0.1,0,0.2C-276.3,408.9-275.1,408.6-274.9,408.5
	L-274.9,408.5L-274.9,408.5z M-267.4,401.4h1.5v-1.3c0-0.6,0.4-1,1-1c0.6,0,1,0.5,1,1v1.3h1.2c0.6,0,1,0.5,1,1c0,0.6-0.5,1-1,1h-1.2
	v0.8c0,0.3-0.2,0.6-0.4,0.8c-0.2,0.2-0.4,0.4-0.7,0.4c-0.4,0-0.7-0.3-0.8-0.7c-0.1-0.1-0.1-0.3-0.1-0.5v-0.8h-1.5c-0.6,0-1-0.5-1-1
	C-268.4,401.9-268,401.4-267.4,401.4L-267.4,401.4z"/>
</svg>
