<?xml version="1.0" encoding="utf-8"?>
<!-- Generator: Adobe Illustrator 19.0.0, SVG Export Plug-In . SVG Version: 6.00 Build 0)  -->
<svg version="1.1" id="图层_1" xmlns="http://www.w3.org/2000/svg" xmlns:xlink="http://www.w3.org/1999/xlink" x="0px" y="0px"
	 viewBox="-110.9 9.3 50 48.3" style="enable-background:new -110.9 9.3 50 48.3;" xml:space="preserve">
<style type="text/css">
	.st0{fill:#FFB000;}
</style>
<path class="st0" d="M-74.1,57.1l-11.7-5.9l-11.8,5.9c-1.2,0.6-2.7,0.5-3.8-0.3c-1.1-0.8-1.7-2.3-1.4-3.6l2.4-12.7l-9.3-8.7
	c-1-1-1.4-2.4-1-3.8c0.5-1.4,1.5-2.4,3-2.5l12.9-2.4l5.8-11.8c0.6-1.3,1.9-2.1,3.2-2.1c1.4,0,2.7,0.8,3.2,2.1l5.8,11.8l12.9,2.3
	c1.4,0.2,2.5,1.2,2.9,2.5c0.4,1.4,0.1,2.8-0.9,3.8l-9.3,8.8l2.3,12.7c0.3,1.4-0.4,2.8-1.4,3.6c-0.6,0.5-1.3,0.7-2.1,0.7
	C-72.9,57.6-73.6,57.4-74.1,57.1L-74.1,57.1z"/>
</svg>
