<?xml version="1.0" encoding="utf-8"?>
<!-- Generator: Adobe Illustrator 19.0.0, SVG Export Plug-In . SVG Version: 6.00 Build 0)  -->
<svg version="1.1" id="图层_1" xmlns="http://www.w3.org/2000/svg" xmlns:xlink="http://www.w3.org/1999/xlink" x="0px" y="0px"
	 viewBox="-281 404.9 32 32" style="enable-background:new -281 404.9 32 32;" xml:space="preserve">
<style type="text/css">
	.st0{fill:#33a9fc;}
</style>
<path class="st0" d="M-259,404.9h-12c-2.2,0-4,1.8-4,4v24c0,2.2,1.8,4,4,4h12c2.2,0,4-1.8,4-4v-24C-255,406.7-256.8,404.9-259,404.9
	z M-265,434.9c-1.1,0-2-0.9-2-2c0-1.1,0.9-2,2-2s2,0.9,2,2C-263,434-263.9,434.9-265,434.9z M-257,428.9h-16v-20c0-1.1,0.9-2,2-2h12
	c1.1,0,2,0.9,2,2V428.9z"/>
</svg>
