<?xml version="1.0" encoding="utf-8"?>
<!-- Generator: Adobe Illustrator 19.0.0, SVG Export Plug-In . SVG Version: 6.00 Build 0)  -->
<svg version="1.1" id="图层_1" xmlns="http://www.w3.org/2000/svg" xmlns:xlink="http://www.w3.org/1999/xlink" x="0px" y="0px"
	 viewBox="-281 404.9 32 32" style="enable-background:new -281 404.9 32 32;" xml:space="preserve">
<style type="text/css">
	.st0{fill:#E5E5E5;}
</style>
<path class="st0" d="M-265,406.9c-7.7,0-14,6.3-14,14s6.3,14,14,14s14-6.3,14-14C-251,413.1-257.3,406.9-265,406.9z M-265.1,428.4
	c-3.1,0-5.7-2-6.7-4.7l0,0c-0.1-0.1-0.1-0.3-0.1-0.4c0-0.5,0.4-0.9,0.9-0.9c0.4,0,0.8,0.3,0.9,0.7l0,0c0.7,2,2.7,3.5,5,3.5
	c2.9,0,5.3-2.4,5.3-5.3s-2.4-5.3-5.3-5.3c-0.6,0-1.2,0.1-1.8,0.3l0.7,1.3c0.1,0.1,0.1,0.2,0.1,0.3c0,0.3-0.3,0.5-0.5,0.5l0,0l0,0
	l-4.7-0.2c-0.2,0-0.3-0.1-0.4-0.3c-0.1-0.1-0.1-0.3,0-0.5l2.5-4c0.1-0.1,0.3-0.2,0.4-0.2c0.2,0,0.3,0.1,0.4,0.3l0.6,1.1
	c0.8-0.3,1.7-0.5,2.7-0.5c3.9,0,7.2,3.2,7.2,7.2C-257.9,425.2-261.1,428.4-265.1,428.4z"/>
</svg>
