<?xml version="1.0" standalone="no"?><!DOCTYPE svg PUBLIC "-//W3C//DTD SVG 1.1//EN" "http://www.w3.org/Graphics/SVG/1.1/DTD/svg11.dtd"><svg t="1512633580814" class="icon" style="" viewBox="0 0 1024 1024" version="1.1" xmlns="http://www.w3.org/2000/svg" p-id="3709" xmlns:xlink="http://www.w3.org/1999/xlink" width="200" height="200"><defs><style type="text/css"></style></defs><path d="M822.904425 582.032119c-20.641046-4.68771-40.639421 8.09008-45.251523 28.504301C751.001003 727.880385 636.832582 816.379813 512.079011 816.379813s-238.921992-88.499428-265.536087-205.805589c-4.612102-20.376417-24.648281-33.154207-45.251523-28.504301-20.338613 4.612102-33.116403 24.875106-28.504301 45.213719C204.844987 768.557611 328.540044 873.917673 474.274898 889.681988l0 58.331746L364.756384 948.013734c-20.905674 0-37.804113 16.898438-37.804113 37.804113s16.898438 37.804113 37.804113 37.804113l294.683058 0c20.905674 0 37.804113-16.898438 37.804113-37.804113s-16.898438-37.804113-37.804113-37.804113L549.883123 948.013734l0-58.331746c145.734854-15.764315 269.429911-121.124377 301.525603-262.398346C856.020828 606.907225 843.243038 586.682025 822.904425 582.032119z" p-id="3710" fill="#02cd8b"></path><path d="M452.575337 455.917599l0-60.48658 294.720862 0L747.2962 295.174512 452.575337 295.174512l0-60.48658 294.683058 0C746.955963 105.019825 641.822725 0 512.041206 0 382.146275 0 276.861822 105.322258 276.861822 235.217189l0 286.252741c0 129.932735 105.284454 235.254993 235.179385 235.254993 129.932735 0 235.254993-105.322258 235.254993-235.254993L747.2962 455.917599 452.575337 455.917599z" p-id="3711" fill="#02cd8b"></path></svg>