<?xml version="1.0" encoding="utf-8"?>
<!-- Generator: Adobe Illustrator 19.0.0, SVG Export Plug-In . SVG Version: 6.00 Build 0)  -->
<svg xmlns="http://www.w3.org/2000/svg" width="38" height="36" viewBox="0 0 38 36"><path d="M29.05 25.23a15.81 15.81 0 0 0 3.004-9.294c0-8.8-7.17-15.934-16.017-15.934C7.192.002.02 7.136.02 15.936c0 8.802 7.172 15.937 16.017 15.937a16 16 0 0 0 10.772-4.143l8.873 8.232 2.296-2.45-8.927-8.282zM16.2 28.933c-7.19 0-13.04-5.788-13.04-12.903 0-7.113 5.85-12.904 13.04-12.904 7.19 0 12.9 5.79 12.9 12.904 0 7.115-5.71 12.903-12.9 12.903z" fill="#bbb" fill-rule="evenodd"/></svg>
