<?xml version="1.0" encoding="utf-8"?>
<!-- Generator: Adobe Illustrator 19.0.0, SVG Export Plug-In . SVG Version: 6.00 Build 0)  -->
<svg version="1.1" id="图层_1" xmlns="http://www.w3.org/2000/svg" xmlns:xlink="http://www.w3.org/1999/xlink" x="0px" y="0px"
	 viewBox="-165.5 348.5 140.9 144.8" style="enable-background:new -165.5 348.5 140.9 144.8;" xml:space="preserve">
<style type="text/css">
	.st0{fill:#bbb;}
</style>
<path class="st0" d="M-26.5,480.9L-26.5,480.9L-26.5,480.9L-26.5,480.9c1.3,1.5,1.9,3.2,1.9,5c0,2-0.7,3.8-2.2,5.3
	c-1.3,1.3-3.1,2.2-5.2,2.2c0,0-0.1,0-0.1,0c-0.9,0-1.7-0.1-2.5-0.4c-1.2-0.4-2.2-1.1-3-2l0,0.2l-40-40.2
	c-9.6,6.8-20.3,10.2-32.2,10.2c-1.2,0-2.4-0.1-3.6-0.2c-2.4-0.2-4.7-0.6-6.8-1.2c-6.7-0.5-15.6-4.2-22.9-9.9c-4.4-2.6-10.5-9-15-17
	c-3.7-6.2-6.2-13.5-7-21.3c0.4,4.8-0.5-0.6-0.5-6.2c0,1.9,0,0.7,0-0.5c0-3.4,0.3-6.7,0.9-9.9c1.4-8.8,5-16.9,10.2-23.7
	c2.6-4.8,10.8-12.2,20.7-16.7c-5.1,2.1,0.2-0.8,6.1-2.9c5.4-1.9,11.6-3.1,18-3.1c0,0,0,0,0,0c2.6,0,5.1,0.2,7.4,0.5
	c6.4,0.9,12.5,2.8,18.3,5.8c9.4,4.9,17,12.2,22.1,21.1c-1.9-4.2,2,2.1,4.6,9.3c2.6,7.2,3.8,14.5,3.5,22
	c-0.4,12.4-4.7,23.5-12.8,33.5l40.1,40.2L-26.5,480.9L-26.5,480.9z M-62.1,407c0-0.7,0.1-1.6,0.1-2.4c0-6.1-1.2-12-3.4-17.3
	c-2.6-6.8-6.8-12.9-12.1-17.7c4.1,4,1.4,1-1.8-1.7c-5.9-5-13.1-8.5-21.1-10.2c5,0.9-1.8-0.8-8.9-0.8c-1.9,0-3.8,0.1-5.7,0.3
	c-0.3,0-0.8,0-1.4,0.2l-0.9,0.1c-8.7,1.4-16.4,5.1-22.7,10.4c-4.7,2.9-10.9,10.9-14.1,20.3c-0.4-1.3-2.6,6-3,14.1
	c-0.4,8.1,1.1,15.6,4.4,22.5c4.1,9,10.7,16.2,18.9,20.9c0,1.1,8.4,5,17.7,6.2c0.3,0.6,7.3,1,14.3-0.2c6.1-1.1,11.4-3.2,16.3-6.1
	c1.7-0.3,7.8-5,12.6-10.8c-1.9,3.1,3.4-3.5,6.8-11c-4.9,8.7-2.9,5.6-1.2,2.3v0c3.1-6,5-13,5.1-20.4L-62.1,407z"/>
</svg>
