<?xml version="1.0" encoding="utf-8"?>
<!-- Generator: Adobe Illustrator 19.0.0, SVG Export Plug-In . SVG Version: 6.00 Build 0)  -->
<svg version="1.1" id="图层_1" xmlns="http://www.w3.org/2000/svg" xmlns:xlink="http://www.w3.org/1999/xlink" x="0px" y="0px"
	 viewBox="-3.1 11 30 30.1" style="enable-background:new -3.1 11 30 30.1;" xml:space="preserve">
<style type="text/css">
	.st0{fill:#999999;}
</style>
<g>
	<path class="st0" d="M9.2,35.4c-1.7,0-3.3-0.3-4.8-0.9c-1.4-0.6-2.8-1.5-3.8-2.6c-1.1-1.1-2-2.4-2.6-3.8c-0.7-1.6-1-3.2-1-4.8
		c0-1.7,0.3-3.3,0.9-4.8c0.6-1.4,1.5-2.8,2.6-3.8s2.4-2,3.8-2.6c1.6-0.7,3.2-1,4.8-1s3.3,0.3,4.8,0.9c1.4,0.6,2.8,1.5,3.8,2.6
		s2,2.4,2.6,3.8c0.7,1.5,0.9,3.1,0.9,4.8s-0.3,3.3-0.9,4.8c-0.6,1.4-1.5,2.8-2.6,3.8c-1.1,1.1-2.4,2-3.8,2.6
		C12.4,35,10.8,35.4,9.2,35.4L9.2,35.4z M9.2,12.7c-5.8,0-10.4,4.7-10.4,10.4S3.4,33.6,9.2,33.6s10.4-4.7,10.4-10.4
		S14.9,12.7,9.2,12.7L9.2,12.7z"/>
	<path class="st0" d="M24.3,41c-0.8,0-1.4-0.3-1.9-0.8L17,35.1l1.3-1.3l5.3,5.1c0.2,0.2,0.4,0.3,0.7,0.3s0.5-0.1,0.7-0.3
		c0.2-0.2,0.3-0.4,0.3-0.7c0-0.3-0.1-0.5-0.3-0.7l0,0l-5.1-5.3l1.3-1.3l5.1,5.3c0.5,0.5,0.8,1.3,0.8,1.9c0,0.8-0.3,1.4-0.8,2
		C25.7,40.8,25,41,24.3,41L24.3,41z"/>
</g>
</svg>
