<?xml version="1.0" encoding="utf-8"?>
<!-- Generator: Adobe Illustrator 19.0.0, SVG Export Plug-In . SVG Version: 6.00 Build 0)  -->
<svg version="1.1" id="图层_1" xmlns="http://www.w3.org/2000/svg" xmlns:xlink="http://www.w3.org/1999/xlink" x="0px" y="0px"
	 viewBox="-349 -8 50 50" style="enable-background:new -349 -8 50 50;" xml:space="preserve">
<style type="text/css">
	.st0{fill:#D7D7D7;}
</style>
<g id="XMLID_2_">
	<path id="XMLID_3_" class="st0" d="M-307.5,22.7l7.2-7.4c1.2-1.2,1.6-3,1.1-4.7c-0.6-1.6-1.9-2.8-3.6-3.1l-9.3-1.4
		c-1.6-0.1-2.9-1.1-3.5-2.4l-4.2-9C-320.6-7-322.2-8-324-8s-3.4,1-4.1,2.7l-4.2,9.1c-0.6,1.3-1.9,2.2-3.4,2.3l-9.3,1.4
		c-1.7,0.3-3.1,1.4-3.7,3.1c-0.5,1.6-0.1,3.4,1.1,4.6l7.3,7.5l0,0c0.7,0.7,1.1,1.8,1.1,2.9c0,0.2,0,0.3,0,0.5l-1.8,10.6
		c-0.3,1.7,0.4,3.5,1.9,4.5c1.4,1,3.4,1.1,4.9,0.3l8-4.3c0.7-0.4,1.4-0.6,2.2-0.6c0.7,0,1.4,0.2,2,0.5l8.2,4.4
		c0.7,0.4,1.5,0.6,2.2,0.6c0.9,0,1.9-0.3,2.6-0.8c1.4-1,2.2-2.7,1.9-4.5l-1.6-10.1v-0.1c-0.1-0.3-0.1-0.6-0.1-0.9
		C-308.7,24.5-308.2,23.4-307.5,22.7L-307.5,22.7L-307.5,22.7z"/>
</g>
</svg>
