<?xml version="1.0" encoding="utf-8"?>
<!-- Generator: Adobe Illustrator 19.0.0, SVG Export Plug-In . SVG Version: 6.00 Build 0)  -->
<svg version="1.1" id="图层_1" xmlns="http://www.w3.org/2000/svg" xmlns:xlink="http://www.w3.org/1999/xlink" x="0px" y="0px"
	 viewBox="0 0 50 50" style="enable-background:new 0 0 50 50;" xml:space="preserve">
<style type="text/css">
	.st0{fill:#33a9fc;}
</style>
<path class="st0" d="M32.5,3.4L32.5,3.4c-24.1-3-31,8.2-32.3,16.8c-1.3,8.2,3.3,15.5,10,18.6h0c9,4.1,5.8,11.1,5.8,11.1
	c3.4-1.3,5.4-3,6.8-4.7c2.3-3,5.7-4.9,9.4-4.9l0,0c8.8,0,16.6-6.3,17.7-15.1C51.2,14.6,43,5.5,32.5,3.4z M16.2,22.5
	c0,2.7-2.2,4.9-4.9,4.9s-4.9-2.2-4.9-4.9s2.2-4.9,4.9-4.9S16.2,19.8,16.2,22.5z M30.3,22.5c0,2.7-2.2,4.9-4.9,4.9s-4.9-2.2-4.9-4.9
	s2.2-4.9,4.9-4.9S30.3,19.8,30.3,22.5z M43.6,22.5c0,2.7-2.2,4.9-4.9,4.9s-4.9-2.2-4.9-4.9s2.2-4.9,4.9-4.9
	C41.4,17.6,43.6,19.8,43.6,22.5z"/>
</svg>
