<?xml version="1.0" encoding="utf-8"?>
<!-- Generator: Adobe Illustrator 19.0.0, SVG Export Plug-In . SVG Version: 6.00 Build 0)  -->
<svg version="1.1" id="图层_1" xmlns="http://www.w3.org/2000/svg" xmlns:xlink="http://www.w3.org/1999/xlink" x="0px" y="0px"
	 viewBox="-117 -16.7 100 100" style="enable-background:new -117 -16.7 100 100;" xml:space="preserve">
<style type="text/css">
	.st0{fill:url(#SVGID_1_);}
	.st1{fill:#FFFFFF;}
	.st2{fill:#CCFFEB;}
	.st3{fill:none;}
</style>
<linearGradient id="SVGID_1_" gradientUnits="userSpaceOnUse" x1="-110.2973" y1="8.2869" x2="-23.6803" y2="58.2952">
	<stop  offset="2.067916e-006" style="stop-color:#02CD8B"/>
	<stop  offset="1" style="stop-color:#B4E658"/>
</linearGradient>
<circle class="st0" cx="-67" cy="33.3" r="50"/>
<circle class="st1" cx="-76" cy="71.4" r="2"/>
<circle class="st1" cx="-27.8" cy="39.6" r="1.4"/>
<circle class="st1" cx="-95.3" cy="8.4" r="2.3"/>
<g>
	<path class="st2" d="M-66.3,32.8l7.9-21.1c0,0,1.1-8.7-7.9-9.4c0,0-8.3-0.5-8,10.1L-66.3,32.8z"/>
	<path class="st2" d="M-66.1,33l20.5-9.2c0,0,6.9-5.4,1-12.3c0,0-5.5-6.2-12.7,1.5L-66.1,33z"/>
	<path class="st2" d="M-65.7,33.2l21,8.2c0,0,8.7,1.2,9.5-7.8c0,0,0.6-8.3-10-8.1L-65.7,33.2z"/>
	<path class="st2" d="M-65.8,33.4l9,20.6c0,0,5.3,7,12.2,1.2c0,0,6.3-5.4-1.3-12.8L-65.8,33.4z"/>
	<path class="st2" d="M-66.6,32.9l-20.4-9.4c0,0-6.9-5.4-0.9-12.3c0,0,5.6-6.2,12.7,1.6L-66.6,32.9z"/>
	<path class="st2" d="M-66.7,33.2L-87.8,41c0,0-8.7,1-9.3-8c0,0-0.4-8.3,10.1-7.9L-66.7,33.2z"/>
	<path class="st2" d="M-66.9,33.6L-76,54.2c0,0-5.3,6.9-12.3,1.1c0,0-6.2-5.5,1.4-12.7L-66.9,33.6z"/>
	<path class="st2" d="M-66.6,33.7l8.1,21c0,0,1.1,8.7-7.9,9.4c0,0-8.3,0.5-8-10L-66.6,33.7z"/>
</g>
<g>
	<path class="st3" d="M-87,42.5l20-8.9l-9.2,20.6c0,0-0.7,0.9-1.9,1.7c1.2,0.6,2.4,1.1,3.7,1.5c-0.2-1-0.3-2.1-0.3-3.3l7.8-20.4
		l8.1,21c0,0,0.2,1.2-0.1,2.8c1.3-0.4,2.6-0.9,3.8-1.5c-1.3-0.9-2-1.9-2-1.9l-9-20.6l19.9,9.1c0.9,0.8,1.6,1.7,2.1,2.5
		c0.6-1.2,1.1-2.4,1.5-3.6c-1.4,0.2-2.4,0.1-2.4,0.1l-21-8.2l20.5-7.7c1.1,0,2.1,0.1,3,0.2c-0.4-1.3-0.9-2.6-1.6-3.9
		c-0.9,1.2-1.7,1.9-1.7,1.9L-66.2,33l8.8-20c0.8-0.9,1.6-1.5,2.4-2.1c-1.2-0.6-2.3-1.1-3.6-1.5c0.2,1.4,0.1,2.4,0.1,2.4l-7.9,21.1
		l-8-20.4c0-1.2,0.1-2.2,0.2-3.1c-1.2,0.4-2.4,0.8-3.5,1.4c0.7,0.5,1.5,1.2,2.3,2.1l8.6,20.1l-20.4-9.4c0,0-0.8-0.7-1.6-1.8
		c-0.6,1.2-1.1,2.4-1.5,3.6c0.9-0.2,2-0.3,3.2-0.2l20.3,8.1L-87.9,41c0,0-1.2,0.1-2.6-0.1c0.4,1.4,0.9,2.7,1.6,4
		C-88.5,44.1-87.8,43.3-87,42.5z"/>
	<path class="st1" d="M-66.5,32.8l7.9-21.1c0,0,0.1-1-0.1-2.4C-61.1,8.6-63.7,8-66.4,8c-2.7,0-5.3,0.5-7.7,1.3
		c-0.2,0.9-0.3,1.9-0.2,3.1L-66.5,32.8z"/>
	<path class="st1" d="M-66.2,33l20.5-9.2c0,0,0.9-0.7,1.7-1.9c-2.4-4.7-6.3-8.6-11-11c-0.8,0.5-1.6,1.2-2.4,2.1L-66.2,33z"/>
	<path class="st1" d="M-65.8,33.2l21,8.2c0,0,1,0.1,2.4-0.1c0.8-2.5,1.4-5.1,1.4-7.9c0-2.7-0.5-5.2-1.3-7.7c-0.9-0.2-1.8-0.3-3-0.2
		L-65.8,33.2z"/>
	<path class="st1" d="M-65.9,33.4l9,20.6c0,0,0.7,1,2,1.9c4.7-2.4,8.6-6.3,11-11c-0.5-0.8-1.2-1.6-2.1-2.5L-65.9,33.4z"/>
	<path class="st1" d="M-87.2,23.5l20.4,9.4l-8.6-20.1c-0.8-0.9-1.6-1.5-2.3-2.1c-4.8,2.4-8.7,6.2-11.2,10.9
		C-88,22.8-87.2,23.5-87.2,23.5z"/>
	<path class="st1" d="M-87.9,41l21.1-7.8l-20.3-8.1c-1.2,0-2.3,0-3.2,0.2c-0.9,2.6-1.4,5.2-1.4,8.1c0,2.6,0.5,5.1,1.2,7.5
		C-89.1,41.1-87.9,41-87.9,41z"/>
	<path class="st1" d="M-76.2,54.2l9.2-20.6l-20,8.9c-0.8,0.8-1.5,1.6-2,2.3c2.4,4.8,6.3,8.6,11,11.1C-76.8,55-76.2,54.2-76.2,54.2z"
		/>
	<path class="st1" d="M-58.6,54.7l-8.1-21l-7.8,20.4c0,1.3,0.1,2.4,0.3,3.3c2.5,0.8,5.1,1.4,7.8,1.4c2.7,0,5.3-0.5,7.7-1.3
		C-58.5,55.9-58.6,54.7-58.6,54.7z"/>
</g>
</svg>
