<?xml version="1.0" encoding="utf-8"?>
<!-- Generator: Adobe Illustrator 19.0.0, SVG Export Plug-In . SVG Version: 6.00 Build 0)  -->
<svg version="1.1" id="图层_1" xmlns="http://www.w3.org/2000/svg" xmlns:xlink="http://www.w3.org/1999/xlink" x="0px" y="0px"
	 viewBox="0 0 50 50" style="enable-background:new 0 0 50 50;" xml:space="preserve">
<style type="text/css">
	.st0{fill:#FFC176;}
	.st1{fill:#FFB56C;}
	.st2{fill-rule:evenodd;clip-rule:evenodd;fill:#FFB56C;}
</style>
<path class="st0" d="M47.2,25.6c-0.2-4-1.3-7.7-3.2-11c-1.2-2.2-2.7-4.1-4.6-5.8l0,0l0,0C39.7,6.5,39,4,37.3,2.2
	C36,0.8,34.2,0,32.4,0c-0.8,0-1.5,0.7-1.6,1.6c0,0.9,0.7,1.6,1.5,1.7c1.1,0,2.1,0.5,2.9,1.3c0.6,0.6,0.9,1.3,1.1,2.1
	c1.1,0.7,2.1,1.4,3.1,2.2c-0.2,1.5-0.9,3-2,4.2c-2.8,3-7.4,3-10.2,0.1c-0.6-0.6-0.6-1.7,0-2.3s1.6-0.6,2.2,0c1.6,1.7,4.3,1.7,5.9,0
	c1.1-1.1,1.4-2.7,1.1-4.2C33.8,5.1,31,4.1,28,3.8c-0.1,0-0.2,0-0.3,0c-0.8-0.1-1.6-0.1-2.4-0.1C13.9,3.6,4.4,13,3.5,24.9
	C1.4,26.2,0,28.7,0,31.4c0,4,2.9,7.2,6.6,7.4c3.9,6.9,11,11.2,18.7,11.2S40,45.8,44,39c3.4-0.5,6-3.6,6-7.4
	C50,29.2,48.9,27,47.2,25.6L47.2,25.6z"/>
<path class="st1" d="M26.4,50c0,0-1,0-2.8-0.5c-2.4-0.7-6.2-1.7-9.2-4.3c-2.5-2.2-4.1-4-5-5c-0.8-0.9-1.5-1.5-2.7-1.5l0,0
	c0,0,3.2,5.2,6.7,7.4c3.4,2,4.3,2.5,6.5,3.1c0.3,0.1,0.9,0.3,1.5,0.4c0.9,0.1,1.8,0.1,1.1,0.2C22.1,49.8,25.3,50.1,26.4,50z"/>
<path class="st1" d="M27.9,49.8c0,0,3.3-0.6,4.2-1c0.9-0.4,2.2-0.9,2.7-1.2c0.5-0.2,2.4-1.4,2.6-1.6c0.2-0.2,2.4-1.9,2.4-2
	c0,0,1.4-1.5,1.8-1.9c0.1-0.1,0.1-0.1,0.2-0.2l1.6-2.2L44,39l0,0c-0.8,0-1.5,0.4-2,1c-0.4,0.6-0.9,1.3-1.4,1.8c-0.9,1-1.8,2-1.8,2
	S38,45,35.2,46.6s-1.8,1.3-3.4,1.9s-2.1,0.9-2.1,0.9L29,49.5L27.9,49.8z"/>
<ellipse transform="matrix(-0.2311 -0.9729 0.9729 -0.2311 -27.2294 43.066)" class="st1" cx="3.4" cy="32.3" rx="4.2" ry="2"/>
<ellipse transform="matrix(-0.2311 0.9729 -0.9729 -0.2311 88.8748 -5.6771)" class="st1" cx="46.7" cy="32.3" rx="4.2" ry="2"/>
<path class="st1" d="M35,22.8c0.8,0,1.6,0.4,2.1,0.9c0.6,0.6,0.9,1.4,0.9,2.3c0,1.8-1.4,3.2-3.1,3.2c-1.7,0-3.1-1.5-3.1-3.2
	C32,24.3,33.3,22.8,35,22.8L35,22.8z"/>
<path class="st1" d="M16.8,22.8c0.8,0,1.6,0.4,2.1,0.9c0.6,0.6,0.9,1.4,0.9,2.3c0,1.8-1.4,3.2-3.1,3.2s-3.1-1.5-3.1-3.2
	C13.7,24.3,15.1,22.8,16.8,22.8L16.8,22.8z"/>
<path class="st2" d="M37.1,40.6c-0.1,0.2-0.2,0.4-0.3,0.6c-2.1,3.9-6.1,6.3-10.4,6.3c-4.6,0-8.7-2.7-10.7-6.9
	c-0.3-0.6-0.1-1.4,0.6-1.7c0.6-0.3,1.4-0.1,1.7,0.6c1.6,3.3,4.9,5.5,8.5,5.5c3.5,0,6.6-1.9,8.3-5c0.1-0.2,0.2-0.3,0.2-0.5
	c0.3-0.6,1.1-0.9,1.7-0.6C37.2,39.2,37.4,39.9,37.1,40.6L37.1,40.6z"/>
</svg>
