<?xml version="1.0" encoding="utf-8"?>
<!-- Generator: Adobe Illustrator 19.0.0, SVG Export Plug-In . SVG Version: 6.00 Build 0)  -->
<svg version="1.1" id="图层_1" xmlns="http://www.w3.org/2000/svg" xmlns:xlink="http://www.w3.org/1999/xlink" x="0px" y="0px"
	 viewBox="0 0 50 50" style="enable-background:new 0 0 50 50;" xml:space="preserve">
<style type="text/css">
	.st0{fill-rule:evenodd;clip-rule:evenodd;fill:#EFABFF;}
	.st1{fill-rule:evenodd;clip-rule:evenodd;fill:#C978DD;}
	.st2{fill-rule:evenodd;clip-rule:evenodd;fill:#EB97FF;}
</style>
<g>
	<path class="st0" d="M32.7,3.8c0.6-1.1,1.1-1.9,1.5-2.4c0.4-0.5,0.7-0.9,0.9-1c0.2-0.2,0.5-0.2,0.9-0.1c0.4,0.1,0.7,0.4,0.9,0.8
		c0.2,0.4,0.3,1,0.3,1.8c0,0.8-0.2,1.9-0.4,3.3c-0.1,0.7-0.4,1.5-0.7,2.4c-0.4,0.9-0.8,1.8-1.3,2.7c-0.5,0.9-0.9,1.7-1.4,2.4
		c-0.4,0.7-0.8,1.3-1,1.7c-0.3,0.4-0.7,0.9-1.2,1.7l-1.6,2.1c-0.6,0.8-1.3,1.7-2,2.6c0.4,0.6,0.8,1.2,1.2,1.8c0.3,0.5,0.6,1,0.9,1.5
		c0.3,0.5,0.5,0.9,0.7,1.2c0.6,0.9,1.4,1.8,2.5,2.7c1.1,0.9,2.2,1.6,3.2,2.1c0.5,0.3,1.3,0.6,2.4,0.9c1,0.3,2.1,0.8,3.1,1.5
		c1,0.7,1.9,1.6,2.6,2.7c0.7,1.2,1,2.7,0.9,4.7c-0.1,1.6-0.4,2.9-1.1,4c-0.6,1.1-1.4,2-2.4,2.7c-1,0.7-2,1.2-3.2,1.4
		c-1.2,0.3-2.4,0.3-3.5,0.2c-1.2-0.2-2.3-0.5-3.3-1.2c-1-0.6-1.9-1.4-2.5-2.5c-0.6-1-1.1-2-1.3-3c-0.2-1-0.3-2-0.3-3s0.1-2,0.2-3.1
		c0.2-1,0.3-2.1,0.5-3.2c0.1-0.6,0.2-1.1,0.1-1.5c0-0.4-0.1-0.8-0.2-1.1c-0.1-0.3-0.2-0.6-0.3-0.8l-0.4-0.6
		c-0.1-0.2-0.4-0.5-0.6-0.9c-0.3-0.4-0.6-0.8-0.9-1.2c-0.4-0.5-0.7-0.9-1.1-1.4L23.7,27c-0.3,0.4-0.6,0.7-0.9,1.2
		c-0.3,0.4-0.6,0.8-0.9,1.2c-0.6,0.8-0.9,1.5-1,2s0,1.1,0.2,1.8c0.1,0.4,0.2,1,0.4,2c0.2,0.9,0.2,2,0.2,3.3
		c-0.1,1.2-0.3,2.5-0.6,3.9C20.7,43.7,20,45,19,46.2c-0.9,1-1.8,1.8-2.9,2.3c-1.1,0.5-2.2,0.8-3.3,0.8c-1.1,0-2.2-0.1-3.3-0.5
		s-2.1-0.9-2.9-1.7c-0.9-0.7-1.6-1.6-2.1-2.6c-0.5-1-0.8-2.2-0.9-3.4c-0.1-1.9,0.2-3.5,1-4.7c0.7-1.2,1.6-2.2,2.6-3
		c1-0.8,2.1-1.4,3.2-1.8c1.1-0.4,2.1-0.8,2.9-1.1c0.7-0.3,1.4-0.6,1.9-0.8c0.5-0.3,1-0.5,1.3-0.8c0.4-0.3,0.7-0.5,0.9-0.8
		c0.2-0.3,0.5-0.6,0.8-0.9s0.6-0.8,1-1.3c0.4-0.6,0.8-1.1,1.2-1.7c0.4-0.6,0.9-1.3,1.3-2.1c-0.3-0.4-0.6-0.8-1-1.3
		c-0.3-0.4-0.7-0.9-1.2-1.5c-0.5-0.6-1-1.2-1.6-2c-0.6-0.7-1.2-1.6-1.8-2.7c-0.6-1-1.2-2-1.7-3c-0.5-1-1-1.9-1.4-2.8
		c-0.4-0.9-0.7-1.5-0.8-1.9c-0.1-0.4-0.3-0.9-0.4-1.5c-0.1-0.6-0.2-1.2-0.3-1.8c0-0.6,0-1.2,0.1-1.7c0.1-0.5,0.3-0.9,0.6-1.1
		c0.3-0.2,0.6-0.3,0.8-0.2c0.2,0,0.4,0.1,0.6,0.3c0.2,0.2,0.3,0.4,0.5,0.6c0.2,0.3,0.4,0.6,0.6,0.9c0.1,0.2,0.3,0.5,0.7,1
		c0.3,0.5,0.7,1.1,1.2,1.9c0.5,0.7,1,1.5,1.6,2.4l1.7,2.7c1.4,2.1,2.9,4.5,4.6,7.1c1.2-2.1,2.4-4.1,3.5-5.9L29.6,9
		c0.5-0.8,0.9-1.5,1.3-2.2c0.4-0.7,0.8-1.3,1.1-1.8C32.2,4.5,32.5,4.1,32.7,3.8L32.7,3.8z M12.4,36c-1.3,0-2.4,0.5-3.3,1.4
		c-0.9,0.9-1.4,2-1.4,3.3s0.5,2.4,1.4,3.3c0.9,0.9,2,1.4,3.3,1.4c1.3,0,2.4-0.5,3.3-1.4c0.9-0.9,1.4-2,1.4-3.3s-0.5-2.4-1.4-3.3
		C14.8,36.5,13.7,36,12.4,36L12.4,36z M36.3,36c-1.3,0-2.4,0.5-3.3,1.4c-0.9,0.9-1.4,2-1.4,3.3c0,0.6,0.1,1.2,0.4,1.8
		c0.2,0.6,0.6,1.1,1,1.5c0.4,0.4,0.9,0.8,1.5,1c0.6,0.2,1.2,0.4,1.8,0.4c1.3,0,2.4-0.5,3.3-1.4c0.9-0.9,1.4-2,1.4-3.3
		s-0.5-2.4-1.4-3.3C38.6,36.5,37.5,36,36.3,36L36.3,36z"/>
</g>
<circle class="st1" cx="24.3" cy="22.4" r="2.3"/>
<circle class="st2" cx="24.3" cy="22.4" r="1.8"/>
</svg>
