<?xml version="1.0" encoding="utf-8"?>
<!-- Generator: Adobe Illustrator 19.0.0, SVG Export Plug-In . SVG Version: 6.00 Build 0)  -->
<svg version="1.1" id="图层_1" xmlns="http://www.w3.org/2000/svg" xmlns:xlink="http://www.w3.org/1999/xlink" x="0px" y="0px"
	 viewBox="-98 24.4 20 20" style="enable-background:new -98 24.4 20 20;" xml:space="preserve">
<style type="text/css">
	.st0{fill:#D7D7D7;}
</style>
<path class="st0" d="M-88,24.4c-5.6,0-10,4.5-10,10c0,5.5,4.5,10,10,10s10-4.5,10-10C-78,28.9-82.4,24.4-88,24.4z M-88,43.4
	c-4.9,0-9-4-9-9s4-9,9-9s9,4,9,9S-83,43.4-88,43.4z M-81.5,34.8h-6v-6.1c0-0.3-0.2-0.5-0.5-0.5s-0.5,0.2-0.5,0.5v6.7
	c0,0.3,0.2,0.5,0.5,0.5h6.5c0.3,0,0.5-0.2,0.5-0.5C-81.1,35-81.3,34.8-81.5,34.8z"/>
</svg>
