<?xml version="1.0" encoding="utf-8"?>
<!-- Generator: Adobe Illustrator 21.0.0, SVG Export Plug-In . SVG Version: 6.00 Build 0)  -->
<svg version="1.1" id="图层_1" xmlns="http://www.w3.org/2000/svg" xmlns:xlink="http://www.w3.org/1999/xlink" x="0px" y="0px"
	 viewBox="0 0 26 26" style="enable-background:new 0 0 26 26;" xml:space="preserve">
<style type="text/css">
	.st0{fill:#8C8C8C;}
</style>
<path class="st0" d="M13,0.5C6.1,0.5,0.5,6.1,0.5,13S6.1,25.5,13,25.5S25.5,19.9,25.5,13S19.9,0.5,13,0.5z M13,24.3
	c-6.2,0-11.2-5-11.2-11.2S6.8,1.9,13,1.9s11.2,5,11.2,11.2S19.3,24.3,13,24.3z M21.1,13.5h-7.6V5.9c0-0.3-0.3-0.6-0.6-0.6
	c-0.3,0-0.6,0.3-0.6,0.6v8.3c0,0.3,0.3,0.6,0.6,0.6h8.2c0.3,0,0.6-0.3,0.6-0.6C21.7,13.8,21.4,13.5,21.1,13.5z"/>
</svg>
