<?xml version="1.0" encoding="utf-8"?>
<!-- Generator: Adobe Illustrator 21.0.0, SVG Export Plug-In . SVG Version: 6.00 Build 0)  -->
<svg version="1.1" id="图层_1" xmlns="http://www.w3.org/2000/svg" xmlns:xlink="http://www.w3.org/1999/xlink" x="0px" y="0px"
	 viewBox="0 0 44 40.3" style="enable-background:new 0 0 44 40.3;" xml:space="preserve">
<style type="text/css">
	.st0{fill:#D7D7D7;}
</style>
<path class="st0" d="M22,40.3c-1.2,0-2.2-0.8-3.3-1.9L2.9,21.6l-0.2-0.3c-1.3-2-2.7-4.3-2.7-7.9C0,6,5.4,0.1,12,0.1
	c3.7,0,7.1,1.6,10,4.6C24.8,1.6,28.3,0,32,0c6.6,0,12,5.9,12,13.2c0,3.3-0.9,5.9-2.9,8.6L41.1,22L28,35.5l-2.7,2.8
	C24.1,39.5,23.1,40.3,22,40.3z M4.5,20.5L20,37c0.9,0.9,1.5,1.3,1.9,1.3s1-0.4,2-1.3l2-2.1l13.7-14.2c1.7-2.4,2.5-4.5,2.5-7.4
	C42.1,7,37.6,1.9,32,1.9c-3.4,0-6.6,1.6-9.2,4.7l-0.1,0.1l-0.7,0.7l-0.7-0.8C18.6,3.6,15.4,2,12,2C6.4,2,1.9,7.1,1.9,13.3
	c0,3,1.2,5,2.4,6.9L4.5,20.5z"/>
</svg>
