<?xml version="1.0" encoding="utf-8"?>
<!-- Generator: Adobe Illustrator 19.0.0, SVG Export Plug-In . SVG Version: 6.00 Build 0)  -->
<svg version="1.1" id="图层_1" xmlns="http://www.w3.org/2000/svg" xmlns:xlink="http://www.w3.org/1999/xlink" x="0px" y="0px"
	 viewBox="0 0 50 50" style="enable-background:new 0 0 50 50;" xml:space="preserve">
<style type="text/css">
	.st0{fill-rule:evenodd;clip-rule:evenodd;fill:#FFC176;}
</style>
<path class="st0" d="M28.8,23.4c0.8-1.6,1.6-3,2.9-4.1c0.3-0.3,0.7-0.5,1.1-0.7c-1.3-0.1-2.4-0.1-3.5,0.2c-0.2,1.6-0.7,3.4-1.5,5.2
	c0.2,0.1,0.4,0.3,0.6,0.4c0.1-0.2,0.3-0.5,0.4-0.7L28.8,23.4L28.8,23.4z M12,28.5c-1.7,1.5-2.1,3.9-1.2,6.4
	c1.2,3.1,4.8,6.7,11.2,6.7c4.3,0,6.3-2.5,7.2-4.6c1.6-3.6,1-8.8-1.3-11.3c-0.4-0.4-0.9-0.8-1.3-1l0,0l-0.2-0.1
	c-0.1,0-0.3-0.1-0.4-0.1c-0.3,0-0.6-0.1-0.9-0.1c-0.6,0-1.2,0.1-1.9,0.2c0.6-0.3,1.1-0.6,1.8-0.8c0.3-0.1,0.6-0.2,1-0.2
	c0.2,0,0.3,0,0.5-0.1l0,0c0.9-1.9,1.4-3.8,1.6-5.4c0.2-1.9-0.2-3.4-1.2-4.5c-0.1,0-0.2,0-0.3,0c-0.2,0-0.4,0-0.6-0.1
	c-0.4-0.1-0.8-0.1-1.2-0.2c-0.8-0.2-1.6-0.5-2.3-1c0.8,0.3,1.6,0.4,2.3,0.4c0.4,0,0.8,0,1.2-0.1c0.1,0,0.3,0,0.4-0.1l0.6-0.1
	c1.1-0.2,2-0.9,2.8-1.8c1.8-2,2.3-5,1.3-7.2C30.1,1.3,27.6,0,24,0c-4.8,0-10,3-10.1,7.5c0.1,0.2,0.2,0.4,0.4,0.6
	c0.2,0.3,0.4,0.5,0.6,0.8c0.4,0.5,1,0.9,1.6,1.2c-0.7-0.1-1.4-0.4-2-0.7C14.3,9.2,14,9,13.7,8.8c-0.2-0.1-0.3-0.3-0.5-0.4
	c-1.2,0.4-3.5,2.9-4.6,6.3c-0.9,2.8-1.7,8.3,3.3,12.8c0.2,0,0.3,0,0.5,0c0.4,0,0.7,0,1.1,0c0.7,0.1,1.4,0.2,2.1,0.3
	c-0.7,0.1-1.4,0.2-2.1,0.3c-0.3,0.1-0.7,0.2-1,0.3C12.4,28.4,12.2,28.4,12,28.5L12,28.5L12,28.5z M35.7,18.5
	C35.7,18.5,35.7,18.5,35.7,18.5L35.7,18.5l0.1-0.6c1,0.2,2,0.5,2.9,0.8c0.3-0.5,0.5-1.1,0.6-1.7c-3.3-0.5-6.7-2.3-9-4.9
	c-0.6,0.6-1.3,1.1-2.1,1.4c0.7,1.1,1.1,2.5,1.1,4.1c1.9-0.4,3.9-0.2,6.5,0.4L35.7,18.5L35.7,18.5L35.7,18.5z M36.8,49.9
	c0.1-1.3,0.2-2.7,0.3-4c0.7-9.6,1.3-18.6-5.1-25.2c-0.8,0.8-1.4,1.8-2,2.9c6.5,6.9,5.8,17.1,5.2,26.1l0,0.1
	C35.7,50,36.3,50.1,36.8,49.9L36.8,49.9z M18.8,14c-0.6,0-1.1,0.5-1.1,1.1s0.5,1.1,1.1,1.1s1.1-0.5,1.1-1.1S19.4,14,18.8,14z
	 M18.4,20.7c-0.7,0-1.3,0.6-1.3,1.3s0.6,1.3,1.3,1.3s1.3-0.6,1.3-1.3S19.2,20.7,18.4,20.7z M23.8,17.4c-0.5,0-0.8,0.4-0.8,0.8
	s0.4,0.8,0.8,0.8s0.8-0.4,0.8-0.8S24.3,17.4,23.8,17.4z"/>
</svg>
