<?xml version="1.0" encoding="utf-8"?>
<!-- Generator: Adobe Illustrator 19.0.0, SVG Export Plug-In . SVG Version: 6.00 Build 0)  -->
<svg version="1.1" id="图层_1" xmlns="http://www.w3.org/2000/svg" xmlns:xlink="http://www.w3.org/1999/xlink" x="0px" y="0px"
	 viewBox="-269.4 397.9 149 46" style="enable-background:new -269.4 397.9 149 46;" xml:space="preserve">
<style type="text/css">
	.st0{fill:#33a9fc;}
</style>
<path class="st0" d="M-237.4,408.3h21.8v4.4h-21.8C-237.4,412.7-237.4,408.3-237.4,408.3z"/>
<path class="st0" d="M-237.4,416.2h21.8v4.4h-21.8C-237.4,420.6-237.4,416.2-237.4,416.2z"/>
<path class="st0" d="M-237.3,424.2h13.8v4.4h-13.8V424.2z"/>
<path class="st0" d="M-248.4,423.5c4.4,0,7.4-5.8,7.4-8.9c0-3.1,0-8.7-7.4-8.7c-7.3,0-7.4,5.5-7.4,8.7S-252.8,423.5-248.4,423.5
	L-248.4,423.5L-248.4,423.5L-248.4,423.5z"/>
<path class="st0" d="M-248.4,423.5"/>
<path class="st0" d="M-203.1,425.4c-2.1-2.1-4.8-3.2-7.8-3.2c-3.1,0-5.7,1.1-7.8,3.2c-2.1,2.1-3.2,4.6-3.2,7.6s1.1,5.6,3.2,7.7
	c2.1,2.1,4.8,3.2,7.8,3.2c3,0,5.7-1.1,7.8-3.2c2.1-2.1,3.2-4.7,3.2-7.7S-201,427.5-203.1,425.4L-203.1,425.4L-203.1,425.4z
	 M-211.6,438c-0.6,0.5-1.5,0.5-2.1,0l-4.7-4.5c-1.4-1.2,0.7-3.4,2.1-2l3.6,3.5l7.1-6.8c0.5-0.7,1.5-0.6,2.1,0c0.6,0.5,0.6,1.5,0,2
	L-211.6,438L-211.6,438z"/>
<path class="st0" d="M-219.8,441.8c-0.8-0.8-1.4-1.6-1.9-2.5h-41c-1.2,0-2.1-0.9-2.1-2v-32.7c0-1.1,0.9-2,2.1-2h49.8
	c1.2,0,2.1,0.9,2.1,2v16.4c1.6,0,3.1,0.3,4.5,0.8l0-21.4c0-1.4-1.1-2.5-2.4-2.5h-58.1c-1.4,0-2.4,1.1-2.4,2.5v40.9
	c0,1.4,1.1,2.5,2.4,2.5h50C-218,443.3-218.9,442.6-219.8,441.8z"/>
<path class="st0" d="M-208.3,397.9v23.2c2.4,0.5,4.5,1.6,6.2,3.3c2.4,2.4,3.6,5.2,3.6,8.6c0,3.4-1.2,6.3-3.6,8.7
	c-0.9,0.9-2,1.6-3.1,2.2h84.8v-46H-208.3z M-156,409.7c0.9,1.7,1.6,3.4,2.1,5.4h-3.2c-0.4-1.7-1-3.5-2-5.4H-156z M-183.7,409.6
	c0.9,1.9,1.5,3.7,2,5.4h-3.3c-0.4-1.6-1-3.4-1.9-5.4H-183.7z M-188.3,419.3V417h6.1v11.8c0.6-0.3,1.6-0.8,2.9-1.6
	c-1,0.6-0.9,0.6,0.4-0.2v2.7c-1.9,1.3-4.1,2.4-6.8,3.3v-13.8H-188.3z M-163.5,434.1c-4.5-3.9-7.2-8.1-8-12.8
	c-0.9,4.7-3.6,9-8.1,12.8v-2.6c4.3-5.5,6.4-12.2,6.2-20.1v-1.7h3.7v1.7c-0.1,7.8,1.9,14.5,6.1,20.1V434.1z M-160.4,419.3V417h5.6
	v11.7c0.8-0.3,1.7-0.8,2.8-1.5v2.5c-1.4,1.2-3.4,2.3-6.1,3.3v-13.8H-160.4z M-134.9,433.1h-18.6v-2h2.7v-14.1h3.2V431h3.1l0-18h-7.6
	v-2.3h16.8v2.3h-5.7v6.7h4.9v2.3h-4.9v9h6.1V433.1z"/>
<path class="st0" d="M-239.9,425.9c-1.8-0.9-3.6-1.7-3.6-1.7l-3.5,6.4l-0.5-1.5l1-1.9l-1.9-1.9l-1.9,1.9l1,1.9l-0.6,1.6l-3.4-6.4
	c0,0-5.4,2.4-7.3,3.9c-1.9,1.5-2.7,5.9-2.7,5.9h23.7L-239.9,425.9L-239.9,425.9z M-254.6,430.4h-4.4v-1h4.4V430.4z M-256.2,427.7
	v4.3h-1v-4.3H-256.2z"/>
</svg>
