<?xml version="1.0" encoding="utf-8"?>
<!-- Generator: Adobe Illustrator 21.0.0, SVG Export Plug-In . SVG Version: 6.00 Build 0)  -->
<svg version="1.1" id="图层_1" xmlns="http://www.w3.org/2000/svg" xmlns:xlink="http://www.w3.org/1999/xlink" x="0px" y="0px"
	 viewBox="0 0 227 239" style="enable-background:new 0 0 227 239;" xml:space="preserve">
<style type="text/css">
	.st0{fill:#6DD0FC;}
	.st1{fill:#A4ECFF;}
	.st2{fill:#33A9FC;}
	.st3{fill:#52E355;}
	.st4{fill:#90FC95;}
	.st5{fill:#FFE76E;}
	.st6{fill:#D4FFD4;}
	.st7{fill:#FFBDBD;}
	.st8{fill:#BBF1FF;}
	.st9{fill:#FFF4C5;}
</style>
<g>
	<rect x="60" y="105.5" class="st0" width="107.1" height="108"/>
	<rect x="60" y="105.5" class="st1" width="97.9" height="96.8"/>
	<path class="st2" d="M167,215.5H60c-1.1,0-2-0.9-2-2v-108c0-1.1,0.9-2,2-2H167c1.1,0,2,0.9,2,2v108
		C169,214.6,168.1,215.5,167,215.5z M62,211.5H165v-104H62V211.5z"/>
	<path class="st2" d="M167,107.5c-1.1,0-2-0.9-2-2c0-0.5,0.2-0.9,0.5-1.3l49.6-60c0.7-0.8,2-0.9,2.8-0.2c0.8,0.7,0.9,1.9,0.2,2.7
		l-49.6,60C168.2,107.2,167.6,107.5,167,107.5z"/>
	<path class="st2" d="M60,107.5c-0.6,0-1.1-0.3-1.5-0.7l-49.6-60C8.2,46,8.2,44.7,9,44s2.1-0.7,2.8,0.2c0,0,0.1,0.1,0.1,0.1l49.6,60
		c0.7,0.8,0.6,2.1-0.3,2.8C60.9,107.3,60.4,107.5,60,107.5z"/>
	<polygon class="st3" points="93,105.5 93,151.8 99.8,144.8 106.7,151.8 113.5,144.8 120.3,151.8 127.2,144.8 134,151.8 134,105.5 	
		"/>
	<polygon class="st4" points="93,105.5 93,142.1 99.8,135.1 106.7,142.1 113.5,135.1 120.3,142.1 127.2,135.1 134,142.1 134,105.5 	
		"/>
	<path class="st2" d="M134,153.8c-0.5,0-1-0.2-1.4-0.6l-5.4-5.6l-5.4,5.6c-0.8,0.8-2,0.8-2.8,0l-5.4-5.6l-5.4,5.6
		c-0.8,0.8-2,0.8-2.8,0l-5.4-5.6l-5.4,5.6c-0.8,0.8-2,0.8-2.8,0c-0.4-0.4-0.6-0.9-0.6-1.4v-46.3c0-1.1,0.9-2,2-2h41c1.1,0,2,0.9,2,2
		v46.3C136,152.9,135.1,153.8,134,153.8L134,153.8z M113.5,142.8c0.5,0,1,0.2,1.4,0.6l5.4,5.6l5.4-5.6c0.8-0.8,2-0.8,2.8,0l3.4,3.5
		v-39.4H95v39.4l3.4-3.5c0.8-0.8,2-0.8,2.8,0l5.4,5.6l5.4-5.6C112.4,143,113,142.8,113.5,142.8L113.5,142.8z"/>
	<polygon class="st5" points="158.4,25.5 134,62.5 146.7,62.5 133.3,91.8 167,54.7 149.8,54.7 	"/>
	<path class="st2" d="M133.3,93.8c-1.1,0-2-0.9-2-2c0-0.3,0.1-0.6,0.2-0.8l12-26.4H134c-1.1,0-2-0.9-2-2c0-0.4,0.1-0.8,0.3-1.1
		l24.4-37c0.6-0.9,1.8-1.2,2.8-0.5c0.7,0.5,1,1.4,0.8,2.2l-7.8,26.7H167c1.1,0,2,0.9,2,2c0,0.5-0.2,1-0.5,1.3l-33.7,37
		C134.4,93.5,133.9,93.8,133.3,93.8z M137.7,60.5h8.9c1.1,0,2,0.9,2,2c0,0.3-0.1,0.6-0.2,0.8l-8,17.7l22.1-24.3h-12.7
		c-1.1,0-2-0.9-2-2c0-0.2,0-0.4,0.1-0.6l4.8-16.5L137.7,60.5z"/>
	<polygon class="st5" points="68.6,25.5 93,62.5 80.3,62.5 93.7,91.8 60,54.7 77.2,54.7 	"/>
	<path class="st2" d="M93.7,93.8c-0.6,0-1.1-0.2-1.5-0.7l-33.7-37c-0.8-0.8-0.7-2.1,0-2.8c0.4-0.4,0.9-0.6,1.4-0.6h14.5l-7.8-26.7
		c-0.3-1.1,0.3-2.2,1.4-2.5c0.8-0.2,1.7,0.1,2.2,0.8l24.4,37c0.6,0.9,0.3,2.2-0.6,2.8c-0.3,0.2-0.7,0.3-1.1,0.3h-9.5l12,26.4
		c0.5,1,0,2.2-1,2.6C94.2,93.7,93.9,93.7,93.7,93.8L93.7,93.8z M64.5,56.8l22.1,24.3l-8.1-17.7c-0.5-1-0.1-2.2,0.9-2.7
		c0.3-0.1,0.6-0.2,0.9-0.2h8.9l-15-22.8l4.8,16.5c0.3,1.1-0.3,2.2-1.3,2.5c-0.2,0.1-0.4,0.1-0.6,0.1L64.5,56.8z"/>
	<ellipse class="st6" cx="204.2" cy="153" rx="5" ry="5"/>
	<ellipse class="st6" cx="124.9" cy="4" rx="4" ry="4"/>
	<ellipse class="st6" cx="45.6" cy="142" rx="3" ry="3"/>
	<ellipse class="st6" cx="62.4" cy="237" rx="2" ry="2"/>
	<ellipse class="st6" cx="23.8" cy="163" rx="1" ry="1"/>
	<ellipse class="st7" cx="27.8" cy="134" rx="5" ry="5"/>
	<ellipse class="st7" cx="46.6" cy="181" rx="4" ry="4"/>
	<ellipse class="st7" cx="207.2" cy="116" rx="3" ry="3"/>
	<ellipse class="st7" cx="220.1" cy="177" rx="2" ry="2"/>
	<ellipse class="st7" cx="167.5" cy="236" rx="1" ry="1"/>
	<ellipse class="st8" cx="186.4" cy="51" rx="5" ry="5"/>
	<ellipse class="st8" cx="23.8" cy="113" rx="4" ry="4"/>
	<ellipse class="st8" cx="204.2" cy="207" rx="3" ry="3"/>
	<ellipse class="st8" cx="137.8" cy="43" rx="2" ry="2"/>
	<ellipse class="st8" cx="45.6" cy="25" rx="1" ry="1"/>
	<ellipse class="st9" cx="222" cy="96" rx="5" ry="5"/>
	<ellipse class="st9" cx="4" cy="62" rx="4" ry="4"/>
	<ellipse class="st9" cx="53.5" cy="41" rx="3" ry="3"/>
	<ellipse class="st9" cx="210.1" cy="45" rx="2" ry="2"/>
	<ellipse class="st9" cx="121.9" cy="234" rx="1" ry="1"/>
</g>
</svg>
