<?xml version="1.0" encoding="utf-8"?>
<!-- Generator: Adobe Illustrator 19.0.0, SVG Export Plug-In . SVG Version: 6.00 Build 0)  -->
<svg version="1.1" id="图层_1" xmlns="http://www.w3.org/2000/svg" xmlns:xlink="http://www.w3.org/1999/xlink" x="0px" y="0px"
	 viewBox="1 -1 40 40" style="enable-background:new 1 -1 40 40;" xml:space="preserve">
<style type="text/css">
	.st0{fill:#6E6E6E;}
</style>
<path class="st0" d="M21,39C10,39,1,30,1,19S10-1,21-1s20,9,20,20S32,39,21,39z M21,0.6C10.8,0.6,2.5,8.9,2.5,19.1
	S10.8,37.6,21,37.6c10.2,0,18.5-8.3,18.5-18.5S31.2,0.6,21,0.6z"/>
<path class="st0" d="M23.9,19.8c0,1.1,0.9,1.9,1.9,1.9s1.9-0.9,1.9-1.9s-0.9-1.9-1.9-1.9S23.9,18.7,23.9,19.8z M25.8,19.1
	c0.4,0,0.7,0.3,0.7,0.7c0,0.4-0.3,0.7-0.7,0.7s-0.7-0.3-0.7-0.7C25.1,19.4,25.4,19.1,25.8,19.1z M30.8,17.4v-3.7
	c0-1.8-1.5-3.2-3.2-3.2H14.5c-1.8,0-3.2,1.5-3.2,3.2v12.2c0,1.8,1.5,3.3,3.2,3.3h13.1c1.8,0,3.2-1.5,3.2-3.3v-3.5v-0.2L30.8,17.4
	L30.8,17.4z M27.5,27.9H14.4c-1.1,0-2-0.9-2-2V13.7c0-1.1,0.9-2,2-2h13.1c1.1,0,2,0.9,2,2v2.4h-4.6c-2,0-3.7,1.7-3.7,3.7
	s1.7,3.7,3.7,3.7h4.6v2.4C29.5,27,28.6,27.9,27.5,27.9z M29.5,22.2h-4.6c-1.3,0-2.4-1.1-2.4-2.4s1.1-2.4,2.4-2.4h4.6V22.2z"/>
</svg>
