<?xml version="1.0" encoding="utf-8"?>
<!-- Generator: Adobe Illustrator 19.0.0, SVG Export Plug-In . SVG Version: 6.00 Build 0)  -->
<svg version="1.1" id="图层_1" xmlns="http://www.w3.org/2000/svg" xmlns:xlink="http://www.w3.org/1999/xlink" x="0px" y="0px"
	 viewBox="-81.7 94.8 27.8 17.8" style="enable-background:new -81.7 94.8 27.8 17.8;" xml:space="preserve">
<style type="text/css">
	.st0{fill:#D7D7D7;}
	.st1{fill:#D8D8D8;}
	.st2{fill:#FFFFFF;}
</style>
<path class="st0" d="M-61.3,110.9h-10.1c-0.6,0-1.1-0.5-1.1-1.1v-14c0-0.6,0.5-1.1,1.1-1.1h10.8c0.2,0,0.4,0.2,0.4,0.4v14.7
	C-60.2,110.4-60.7,110.9-61.3,110.9z M-71.4,95.3c-0.3,0-0.5,0.2-0.5,0.5v14c0,0.3,0.2,0.5,0.5,0.5h10.1c0.3,0,0.5-0.2,0.5-0.5V95.3
	H-71.4z"/>
<path class="st0" d="M-61.8,110.9h-10.4c-1.3,0-2.3-1-2.3-2.3s1-2.3,2.3-2.3h10.6v0.5c-0.9,0.1-1.6,0.8-1.6,1.7
	c0,0.9,0.7,1.7,1.6,1.7v0.5C-61.7,110.9-61.7,110.9-61.8,110.9z M-72.2,106.9c-1,0-1.7,0.8-1.7,1.7s0.8,1.7,1.7,1.7h9.3
	c-0.5-0.4-0.8-1.1-0.8-1.7c0-0.7,0.3-1.3,0.8-1.7H-72.2z"/>
<path class="st0" d="M-71.2,97.5c0-0.1,0.1-0.1,0.1-0.1h4.6c0.1,0,0.1,0.1,0.1,0.1v0.4c0,0.1-0.1,0.1-0.1,0.1H-71
	c-0.1,0-0.1-0.1-0.1-0.1L-71.2,97.5L-71.2,97.5z M-71.2,99.2c0-0.1,0.1-0.1,0.1-0.1h5.8c0.1,0,0.1,0.1,0.1,0.1v0.4
	c0,0.1-0.1,0.1-0.1,0.1H-71c-0.1,0-0.1-0.1-0.1-0.1V99.2z M-71.2,100.9c0-0.1,0.1-0.1,0.1-0.1h5.8c0.1,0,0.1,0.1,0.1,0.1v0.4
	c0,0.1-0.1,0.1-0.1,0.1H-71c-0.1,0-0.1-0.1-0.1-0.1V100.9z M-71.2,102.6c0-0.1,0.1-0.1,0.1-0.1h8.1c0.1,0,0.1,0.1,0.1,0.1v0.4
	c0,0.1-0.1,0.1-0.1,0.1H-71c-0.1,0-0.1-0.1-0.1-0.1L-71.2,102.6L-71.2,102.6z"/>
<path class="st1" d="M-62.8,103.5c-0.1-0.1-0.1-0.2,0-0.3l0.3-0.3c0.1-0.1,0.2-0.1,0.3,0l0.6,0.6c0.1,0.1,0.1,0.2,0,0.3l-0.3,0.3
	c-0.1,0.1-0.2,0.1-0.3,0L-62.8,103.5z"/>
<path class="st0" d="M-62.1,104.2c-0.1,0-0.1,0-0.2-0.1l-0.6-0.6c-0.1-0.1-0.1-0.3,0-0.4l0.3-0.3c0.1-0.1,0.3-0.1,0.4,0l0.6,0.6
	c0.1,0.1,0.1,0.3,0,0.4l-0.3,0.3C-62,104.2-62,104.2-62.1,104.2z M-62.3,103C-62.4,103-62.4,103-62.3,103l-0.4,0.4c0,0,0,0.1,0,0.1
	l0.6,0.6c0,0,0.1,0,0.1,0l0.3-0.3c0,0,0-0.1,0-0.1L-62.3,103C-62.3,103-62.3,103-62.3,103z"/>
<path class="st2" d="M-61.5,103.3C-61.5,103.3-61.6,103.4-61.5,103.3l-0.9,0.8c0,0,0,0,0,0.1c0,0,0,0,0,0.1l2,2c0,0,0,0,0.1,0
	c0,0,0,0,0.1,0l0.8-0.8c0,0,0-0.1,0-0.1L-61.5,103.3C-61.5,103.4-61.5,103.3-61.5,103.3z"/>
<path class="st0" d="M-59.3,105.2l-2-2c-0.1-0.1-0.3-0.1-0.4,0l-0.8,0.8c0,0-0.1,0.1-0.1,0.2c0,0.1,0,0.1,0.1,0.2l2,2
	c0,0,0.1,0.1,0.2,0.1c0.1,0,0.1,0,0.2-0.1l0.8-0.8C-59.2,105.5-59.2,105.3-59.3,105.2z M-61.7,104.5l0.4-0.4l1.1,1.1l-0.4,0.4
	L-61.7,104.5z M-60.6,105.7l-0.2,0.2l-1.1-1.1l0.2-0.2L-60.6,105.7z M-61.2,104l0.2-0.2l1.1,1.1l-0.2,0.2L-61.2,104z M-62.4,104.2
	C-62.4,104.2-62.4,104.2-62.4,104.2l0.8-0.9c0,0,0,0,0.1,0s0,0,0.1,0l0.4,0.4l-0.2,0.2l-0.1,0.1l-0.4,0.4l-0.1,0.1l-0.2,0.2
	L-62.4,104.2C-62.4,104.3-62.4,104.3-62.4,104.2z M-59.4,105.5l-0.8,0.8c0,0,0,0-0.1,0c0,0,0,0-0.1,0l-0.4-0.4l0.9-0.9l0.4,0.4
	C-59.4,105.4-59.4,105.4-59.4,105.5z"/>
<path class="st2" d="M-68,101.1c0,1.8,1.4,3.2,3.2,3.2s3.2-1.4,3.2-3.2c0,0,0,0,0,0c0-1.8-1.4-3.2-3.2-3.2S-68,99.3-68,101.1
	L-68,101.1z"/>
<path class="st0" d="M-64.8,104.4c-1.8,0-3.3-1.5-3.3-3.3c0-1.8,1.5-3.3,3.3-3.3c1.8,0,3.3,1.5,3.3,3.3
	C-61.5,102.9-63,104.4-64.8,104.4z M-64.8,98c-1.7,0-3.1,1.4-3.1,3.1s1.4,3.1,3.1,3.1c1.7,0,3.1-1.4,3.1-3.1
	C-61.8,99.4-63.1,98-64.8,98z"/>
<path class="st0" d="M-64.8,103.7c-1.5,0-2.7-1.2-2.7-2.7c0-1.5,1.2-2.7,2.7-2.7c1.5,0,2.7,1.2,2.7,2.7S-63.3,103.7-64.8,103.7z
	 M-64.8,98.7c-1.3,0-2.4,1.1-2.4,2.4c0,1.3,1.1,2.4,2.4,2.4c1.3,0,2.4-1.1,2.4-2.4C-62.4,99.8-63.5,98.7-64.8,98.7z"/>
<path class="st2" d="M-67.3,101.1c0,1.4,1.1,2.5,2.5,2.5c1.4,0,2.5-1.1,2.5-2.5v0c0-1.4-1.1-2.5-2.5-2.5
	C-66.2,98.6-67.3,99.7-67.3,101.1L-67.3,101.1z"/>
<path class="st0" d="M-65.1,102.2c0,0.1,0.1,0.2,0.2,0.2c0.1,0,0.2-0.1,0.2-0.2s-0.1-0.2-0.2-0.2S-65.1,102.1-65.1,102.2
	 M-64.9,99.6c-0.5,0-0.9,0.4-0.9,0.9c0,0.1,0.1,0.2,0.2,0.2c0.1,0,0.2-0.1,0.2-0.2c0-0.3,0.2-0.6,0.6-0.6c0.3,0,0.6,0.3,0.6,0.6
	s-0.2,0.6-0.6,0.6c-0.1,0-0.2,0.1-0.2,0.2v0.4c0,0.1,0.1,0.2,0.2,0.2c0.1,0,0.2-0.1,0.2-0.2v-0.2c0.4-0.1,0.7-0.5,0.7-0.9
	C-64,100-64.4,99.6-64.9,99.6"/>
<path class="st0" d="M-79.1,112.5h-0.5c-0.1,0-0.2-0.1-0.2-0.2c0-0.1,0.1-0.2,0.2-0.2h0.5c0.1,0,0.2,0.1,0.2,0.2
	C-78.9,112.4-79,112.5-79.1,112.5z M-55.9,112.5h-2.2c-0.1,0-0.2-0.1-0.2-0.2c0-0.1,0.1-0.2,0.2-0.2h2.2c0.1,0,0.2,0.1,0.2,0.2
	C-55.7,112.4-55.8,112.5-55.9,112.5z M-59,112.5h-16.8c-0.1,0-0.2-0.1-0.2-0.2c0-0.1,0.1-0.2,0.2-0.2H-59c0.1,0,0.2,0.1,0.2,0.2
	C-58.8,112.4-58.9,112.5-59,112.5z M-76.7,112.5h-1.5c-0.1,0-0.2-0.1-0.2-0.2c0-0.1,0.1-0.2,0.2-0.2h1.5c0.1,0,0.2,0.1,0.2,0.2
	C-76.5,112.4-76.6,112.5-76.7,112.5z M-80,111.2h-1.4c-0.1,0-0.3-0.1-0.3-0.3c0-0.1,0.1-0.3,0.3-0.3h1.4c0.1,0,0.3,0.1,0.3,0.3
	C-79.8,111.1-79.9,111.2-80,111.2z M-55.5,111.2H-57c-0.1,0-0.3-0.1-0.3-0.3c0-0.1,0.1-0.3,0.3-0.3h1.4c0.1,0,0.3,0.1,0.3,0.3
	C-55.3,111.1-55.4,111.2-55.5,111.2z M-57.9,111.2h-20c-0.1,0-0.3-0.1-0.3-0.3c0-0.1,0.1-0.3,0.3-0.3h20c0.1,0,0.3,0.1,0.3,0.3
	C-57.6,111.1-57.7,111.2-57.9,111.2z M-78.7,111.2h-0.5c-0.1,0-0.3-0.1-0.3-0.3c0-0.1,0.1-0.3,0.3-0.3h0.5c0.1,0,0.3,0.1,0.3,0.3
	C-78.4,111.1-78.5,111.2-78.7,111.2z M-54.2,111.2h-0.5c-0.1,0-0.3-0.1-0.3-0.3c0-0.1,0.1-0.3,0.3-0.3h0.5c0.1,0,0.3,0.1,0.3,0.3
	C-53.9,111.1-54,111.2-54.2,111.2z"/>
<path class="st0" d="M-60.4,99.2v-4.3l0.1,0c1.1,0.1,2,1,2,2.1c0,1.1-0.9,2-2,2.1L-60.4,99.2z M-60.1,95.1v3.7
	c0.9-0.1,1.6-0.9,1.6-1.9C-58.5,96.1-59.2,95.3-60.1,95.1z"/>
</svg>
