<?xml version="1.0" encoding="utf-8"?>
<!-- Generator: Adobe Illustrator 19.0.0, SVG Export Plug-In . SVG Version: 6.00 Build 0)  -->
<svg version="1.1" id="图层_1" xmlns="http://www.w3.org/2000/svg" xmlns:xlink="http://www.w3.org/1999/xlink" x="0px" y="0px"
	 viewBox="0 0 100 100" style="enable-background:new 0 0 100 100;" xml:space="preserve">
<style type="text/css">
	.st0{fill:#f2f2f2;}
	.st1{fill:#0099ff;}
</style>
<rect class="st0" width="100" height="100"/>
<g id="XMLID_6_">
	<path id="XMLID_7_" class="st1" d="M17.9,23c-3.2,0.6-5.7,3.6-5.7,6.8V42c0,3.2,2.6,5.8,5.8,5.7l17.3-0.2c3.2-0.1,5.8-2.7,5.8-5.9
		V24.7c0-3.2-2.5-5.4-5.7-4.8L17.9,23L17.9,23z M52.8,52.8c-3.2-0.1-5.8,2.5-5.8,5.7v18c0,3.2,2.5,6.3,5.7,7l29.3,6
		c3.2,0.6,5.7-1.4,5.7-4.7V59.3c0-3.2-2.6-5.9-5.8-5.9L52.8,52.8L52.8,52.8z M18,52.3c-3.2-0.1-5.8,2.5-5.8,5.7v12.2
		c0,3.2,2.5,6.3,5.7,6.8l17.5,3.1c3.2,0.6,5.7-1.6,5.7-4.7V58.4c0-3.2-2.6-5.9-5.8-5.9L18,52.3L18,52.3z M52.7,16.5
		c-3.2,0.6-5.7,3.8-5.7,7v18c0,3.2,2.6,5.8,5.8,5.7l29-0.5c3.2-0.1,5.8-2.7,5.8-5.9V15.2c0-3.2-2.5-5.3-5.7-4.7L52.7,16.5L52.7,16.5
		z"/>
</g>
</svg>
