<?xml version="1.0" encoding="utf-8"?>
<!-- Generator: Adobe Illustrator 19.0.0, SVG Export Plug-In . SVG Version: 6.00 Build 0)  -->
<svg version="1.1" id="图层_1" xmlns="http://www.w3.org/2000/svg" xmlns:xlink="http://www.w3.org/1999/xlink" x="0px" y="0px"
	 viewBox="-113 9 50 50" style="enable-background:new -113 9 50 50;" xml:space="preserve">
<style type="text/css">
	.st0{fill:#02CD8B;}
</style>
<path class="st0" d="M-91.2,9.2c3.9-0.3,7.9-0.2,11.6,1.2c3.7,1.4,7.2,3.6,9.9,6.5c4.9,5.2,7.2,12.5,6.6,19.6
	c-0.5,4.8-2.4,9.4-5.3,13.2c-2.6,3.5-6.2,5.9-10.1,7.6c-3.9,1.6-8.1,1.9-12.3,1.7c-7.9-0.8-15.4-5.7-19.2-12.8
	c-4.3-7.8-4.1-18,0.8-25.5C-105.4,14.3-98.5,10-91.2,9.2 M-89.9,12c-7.1,0.6-13.8,4.9-17.2,11.2c-1.9,3.4-3.2,7.4-2.8,11.3
	c-0.1,4.5,1.7,8.7,4.1,12.5c1.9-4.4,5.4-8.1,9.7-10.3c-0.8-1.1-1.5-2.3-2-3.6c-0.8-1.8-0.5-3.8-0.4-5.7c0.7-5.5,6.4-9.7,11.8-8.9
	c5.1,0.3,9.7,4.9,9.6,10.2c0.4,3-0.9,5.8-2.6,8.1c4.4,2,7.7,5.9,9.7,10.3c0.6-1,1.3-2.1,1.8-3.2c3.1-5.8,3.2-13.2,0.3-19.1
	C-71.8,16.4-81,11-89.9,12"/>
</svg>
