<?xml version="1.0" encoding="utf-8"?>
<!-- Generator: Adobe Illustrator 19.0.0, SVG Export Plug-In . SVG Version: 6.00 Build 0)  -->
<svg version="1.1" id="图层_1" xmlns="http://www.w3.org/2000/svg" xmlns:xlink="http://www.w3.org/1999/xlink" x="0px" y="0px"
	 viewBox="-8164.7 224.4 24 24" style="enable-background:new -8164.7 224.4 24 24;" xml:space="preserve">
<style type="text/css">
	.st0{fill:#54C610;}
</style>
<g>
	<path class="st0" d="M-8151,236.4c-0.3,0-0.6,0.3-0.6,0.6c0,0.3,0.3,0.6,0.6,0.6c0.5,0,0.7-0.3,0.7-0.6
		C-8150.3,236.7-8150.5,236.4-8151,236.4z"/>
	<path class="st0" d="M-8152.9,233.6c0.4,0,0.7-0.3,0.7-0.7c0-0.4-0.3-0.7-0.7-0.7c-0.4,0-0.9,0.3-0.9,0.7
		C-8153.8,233.3-8153.4,233.6-8152.9,233.6z"/>
	<path class="st0" d="M-8144.3,224.4h-16.8c-2,0-3.6,1.6-3.6,3.6v16.8c0,2,1.6,3.6,3.6,3.6h16.8c2,0,3.6-1.6,3.6-3.6V228
		C-8140.7,226-8142.3,224.4-8144.3,224.4z M-8155.2,239.7c-0.7,0-1.3-0.2-2.1-0.3l-2.1,1l0.6-1.8c-1.5-1-2.4-2.4-2.4-4
		c0-2.8,2.7-5.1,5.9-5.1c2.9,0,5.5,1.8,6,4.2c-0.2,0-0.4,0-0.6,0c-2.8,0-5.1,2.1-5.1,4.7c0,0.4,0.1,0.8,0.2,1.2
		C-8154.8,239.7-8155,239.7-8155.2,239.7z M-8146.4,241.8l0.4,1.5l-1.6-0.9c-0.6,0.1-1.2,0.3-1.8,0.3c-2.8,0-5.1-1.9-5.1-4.3
		c0-2.4,2.2-4.3,5.1-4.3c2.7,0,5.1,1.9,5.1,4.3C-8144.3,239.7-8145.2,240.9-8146.4,241.8z"/>
	<path class="st0" d="M-8147.7,236.4c-0.3,0-0.6,0.3-0.6,0.6c0,0.3,0.3,0.6,0.6,0.6c0.4,0,0.7-0.3,0.7-0.6
		C-8147,236.7-8147.3,236.4-8147.7,236.4z"/>
	<path class="st0" d="M-8157.1,232.1c-0.4,0-0.9,0.3-0.9,0.7c0,0.4,0.4,0.7,0.9,0.7s0.7-0.3,0.7-0.7
		C-8156.3,232.4-8156.6,232.1-8157.1,232.1z"/>
</g>
</svg>
