<?xml version="1.0" encoding="utf-8"?>
<!-- Generator: Adobe Illustrator 19.0.0, SVG Export Plug-In . SVG Version: 6.00 Build 0)  -->
<svg version="1.1" id="图层_1" xmlns="http://www.w3.org/2000/svg" xmlns:xlink="http://www.w3.org/1999/xlink" x="0px" y="0px"
	 viewBox="-19 26 60 50" style="enable-background:new -19 26 60 50;" xml:space="preserve">
<style type="text/css">
	.st0{fill:#8C8C8C;stroke:#8C8C8C;stroke-width:0.6;stroke-miterlimit:10;}
</style>
<path class="st0" d="M12,29.2c8.1,0,14.7,7.2,14.7,16.1v1.9c0,8.9-6.6,16.1-14.7,16.1H8.5c-6,0-8,5-9.2,8.1
	c-0.1,0.3-0.2,0.6-0.4,0.9c-0.4-0.6-0.9-1.4-1.3-2C-3.2,69-4,67.6-5.1,66.2c-2.4-3.3-5.4-5.9-5.5-6l-0.2-0.2l-0.3-0.1
	c-0.2-0.1-5.4-2.7-5.4-12.6v-1.9c0-8.9,6.6-16.1,14.7-16.1L12,29.2 M12,26.6H-1.7c-9.5,0-17.1,8.3-17.1,18.6v1.9
	c0,11.8,6.9,14.9,6.9,14.9s2.9,2.5,5.1,5.6c2.2,3,3.9,6.6,5.1,7.4c0.4,0.3,0.7,0.4,1,0.4c2.7,0,2.2-9.7,9.2-9.7h3.4
	c9.5,0,17.1-8.3,17.1-18.6v-1.9C29.1,35,21.4,26.6,12,26.6z"/>
<path class="st0" d="M30.9,45.6c-0.6,0-1.2,0.5-1.2,1.1c-0.1,0.7,0.4,1.3,1.1,1.4c4.4,0.5,7.5,4.1,7.5,8.8v1
	c-0.1,5.2-3.3,7.3-3.4,7.4l-0.1,0.1c-0.1,0.1-1.8,1.5-3.2,3.4c-0.6,0.8-1.1,1.6-1.5,2.3c-0.3,0.5-0.7,1.1-0.9,1.5
	c-0.1-0.2-0.3-0.6-0.4-0.8c-0.7-1.7-1.8-4.5-5.2-4.5h-2.3c-2.1,0-3,0-4.3-1.1c-0.2-0.2-0.5-0.3-0.8-0.3c-0.4,0-0.7,0.2-0.9,0.5
	c-0.4,0.5-0.4,1.3,0.2,1.8c2,1.7,3.7,1.7,5.8,1.7h2.3c1.6,0,2.2,1.1,2.9,2.9c0.5,1.2,1,2.6,2.5,2.6c0.4,0,0.8-0.1,1.2-0.4
	c0.7-0.4,1.2-1.3,1.9-2.4c0.4-0.7,0.9-1.4,1.4-2.1c1.1-1.4,2.5-2.7,2.7-2.9c0.7-0.5,4.4-3.2,4.5-9.5V57
	C40.7,50.9,36.7,46.2,30.9,45.6C31,45.6,30.9,45.6,30.9,45.6z M4.6,55.8c-6.2,0-11.3-4.2-11.3-9.4c0-0.7,0.5-1.3,1.2-1.3
	s1.2,0.6,1.2,1.3c0,3.8,4,6.8,8.8,6.8s8.8-3.1,8.8-6.8c0-0.7,0.5-1.3,1.2-1.3s1.2,0.6,1.2,1.3C15.9,51.6,10.9,55.8,4.6,55.8z"/>
</svg>
