<?xml version="1.0" encoding="utf-8"?>
<!-- Generator: Adobe Illustrator 19.0.0, SVG Export Plug-In . SVG Version: 6.00 Build 0)  -->
<svg version="1.1" id="图层_1" xmlns="http://www.w3.org/2000/svg" xmlns:xlink="http://www.w3.org/1999/xlink" x="0px" y="0px"
	 viewBox="-117.8 9.3 60 50" style="enable-background:new -117.8 9.3 60 50;" xml:space="preserve">
<style type="text/css">
	.st0{fill:#02CD8B;}
</style>
<path class="st0" d="M-67.6,29.6c-0.6,0-1.2,0.5-1.2,1.1c-0.1,0.7,0.4,1.3,1.1,1.4c4.4,0.5,7.5,4.1,7.5,8.8v1
	c-0.1,5.2-3.3,7.3-3.4,7.4l-0.1,0.1c-0.1,0.1-1.8,1.5-3.2,3.4c-0.6,0.8-1.1,1.6-1.5,2.3c-0.3,0.5-0.7,1.1-0.9,1.5
	c-0.1-0.2-0.3-0.6-0.4-0.8c-0.7-1.7-1.8-4.5-5.2-4.5h-2.3c-2.1,0-3,0-4.3-1.1c-0.2-0.2-0.5-0.3-0.8-0.3c-0.4,0-0.7,0.2-0.9,0.5
	c-0.4,0.5-0.4,1.3,0.2,1.8c2,1.7,3.7,1.7,5.8,1.7h2.3c1.6,0,2.2,1.1,2.9,2.9c0.5,1.2,1,2.6,2.5,2.6c0.4,0,0.8-0.1,1.2-0.4
	c0.7-0.4,1.2-1.3,1.9-2.4c0.4-0.7,0.9-1.4,1.4-2.1c1.1-1.4,2.5-2.7,2.7-2.9c0.7-0.5,4.4-3.2,4.5-9.5V41
	C-57.8,34.9-61.8,30.2-67.6,29.6C-67.5,29.6-67.6,29.6-67.6,29.6z"/>
<path class="st0" d="M-87,9.3h-13.7c-9.5,0-17.1,8.3-17.1,18.6v1.9c0,11.8,6.9,14.9,6.9,14.9s2.9,2.5,5.1,5.6c2.2,3,3.9,6.6,5.1,7.4
	c0.4,0.3,0.7,0.4,1,0.4c2.7,0,2.2-9.7,9.2-9.7h3.4c9.5,0,17.1-8.3,17.1-18.6v-1.9C-69.9,17.7-77.6,9.3-87,9.3z M-93.9,39.8
	c-6.2,0-11.3-4.2-11.3-9.4c0-0.7,0.5-1.3,1.2-1.3c0.7,0,1.2,0.6,1.2,1.3c0,3.8,4,6.8,8.8,6.8s8.8-3.1,8.8-6.8c0-0.7,0.5-1.3,1.2-1.3
	c0.7,0,1.2,0.6,1.2,1.3C-82.6,35.6-87.6,39.8-93.9,39.8z"/>
</svg>
