<?xml version="1.0" encoding="utf-8"?>
<!-- Generator: Adobe Illustrator 19.0.0, SVG Export Plug-In . SVG Version: 6.00 Build 0)  -->
<svg version="1.1" id="图层_1" xmlns="http://www.w3.org/2000/svg" xmlns:xlink="http://www.w3.org/1999/xlink" x="0px" y="0px"
	 viewBox="0 0 24 24" style="enable-background:new 0 0 24 24;" xml:space="preserve">
<style type="text/css">
	.st0{fill-rule:evenodd;clip-rule:evenodd;fill:#FFBA00;}
</style>
<g id="XMLID_2_">
	<path id="XMLID_3_" class="st0" d="M19.9,14.7l3.5-3.6c0.6-0.6,0.8-1.4,0.5-2.2c-0.3-0.8-0.9-1.4-1.8-1.5l-4.4-0.7
		c-0.7-0.1-1.4-0.5-1.7-1.2l-2-4.3C13.6,0.5,12.8,0,12,0c-0.8,0-1.6,0.5-2,1.3L8,5.6C7.7,6.2,7.1,6.7,6.3,6.8L1.9,7.4
		C1,7.6,0.4,8.1,0.1,8.9c-0.3,0.8-0.1,1.6,0.5,2.2l3.5,3.6c0,0,0,0,0,0c0.3,0.4,0.5,0.8,0.5,1.4c0,0.1,0,0.2,0,0.2l-0.8,5.1
		c-0.1,0.8,0.2,1.7,0.9,2.2c0.7,0.5,1.6,0.5,2.3,0.1l3.9-2.1c0.3-0.2,0.7-0.3,1.1-0.3c0.4,0,0.7,0.1,1,0.3l4,2.1
		c0.3,0.2,0.7,0.3,1.1,0.3c0.5,0,0.9-0.1,1.3-0.4c0.7-0.5,1-1.3,0.9-2.2l-0.8-4.8c0,0,0,0,0-0.1c0-0.1,0-0.3,0-0.4
		C19.3,15.6,19.6,15.1,19.9,14.7C19.9,14.7,19.9,14.7,19.9,14.7L19.9,14.7z"/>
</g>
</svg>
