<?xml version="1.0" encoding="utf-8"?>
<!-- Generator: Adobe Illustrator 19.0.0, SVG Export Plug-In . SVG Version: 6.00 Build 0)  -->
<svg version="1.1" id="图层_1" xmlns="http://www.w3.org/2000/svg" xmlns:xlink="http://www.w3.org/1999/xlink" x="0px" y="0px"
	 viewBox="0 0 32 32" style="enable-background:new 0 0 32 32;" xml:space="preserve">
<style type="text/css">
	.st0{fill:#33A9FC;}
</style>
<path id="XMLID_32_" class="st0" d="M10.6,6.2L9.9,5.7L10,6.5L9.3,7l0.8,0.2L10.4,8l0.5-0.7h0.8l-0.5-0.7l0.2-0.8L10.6,6.2z
	 M15.1,5.2l-0.4-0.8l-0.4,0.8l-0.8,0.1l0.6,0.6L14,6.7l0.8-0.4l0.7,0.4l-0.1-0.8L16,5.3L15.1,5.2z M7.3,10.4L7.9,11v-0.8l0.7-0.4
	L7.8,9.5L7.6,8.7L7.1,9.4L6.3,9.3L6.8,10l-0.3,0.8L7.3,10.4z M21.8,27.1l0.7,0.5l-0.1-0.8l0.7-0.5l-0.8-0.2L22,25.3L21.6,26h-0.8
	l0.5,0.6l-0.2,0.8L21.8,27.1z M25.1,22.7l-0.7-0.5V23l-0.7,0.5l0.8,0.3l0.2,0.8l0.5-0.7L26,24l-0.5-0.7l0.3-0.8L25.1,22.7z
	 M17.4,28.2l0.4,0.7l0.4-0.8L19,28l-0.6-0.6l0.1-0.8L17.8,27L17,26.6l0.2,0.8L16.6,28L17.4,28.2z M24.5,4.1L1.2,17.6
	c-0.8,0.4-1.1,1.3-0.7,2l5.1,8.8C6,29,6.9,29.2,7.7,28.8L31,15.3c0.8-0.4,1.1-1.3,0.7-2l-5.1-8.8C26.2,3.8,25.3,3.7,24.5,4.1z
	 M31.3,13.5c0.3,0.4,0,1.1-0.6,1.4L7.4,28.4c-0.6,0.3-1.2,0.2-1.5-0.2l-5.1-8.8c-0.3-0.4,0-1.1,0.6-1.4L24.7,4.5
	c0.6-0.3,1.2-0.2,1.5,0.2L31.3,13.5z M8.8,12.6c0.7-1.4,1.8-2.6,3.2-3.4s2.9-1.2,4.5-1.1c0.1,0,0.2-0.1,0.2-0.2
	c0-0.1-0.1-0.2-0.2-0.2c-1.7-0.1-3.3,0.3-4.8,1.2c-1.4,0.8-2.6,2.1-3.4,3.6c-0.1,0.1,0,0.2,0.1,0.3S8.7,12.7,8.8,12.6L8.8,12.6z
	 M23.4,20.2c-0.7,1.4-1.8,2.6-3.2,3.4c-1.4,0.8-2.9,1.2-4.5,1.1c-0.1,0-0.2,0.1-0.2,0.2c0,0.1,0.1,0.2,0.2,0.2l0,0
	c1.7,0.1,3.3-0.3,4.8-1.2c1.4-0.8,2.6-2.1,3.4-3.6c0.1-0.1,0-0.2-0.1-0.3S23.5,20.1,23.4,20.2z"/>
<path id="XMLID_23_" class="st0" d="M2.3,16.4c0.1,0,0.2-0.1,0.2-0.2l0,0C2.6,11.4,5.1,7,9.3,4.6c4.2-2.4,9.2-2.5,13.4-0.1
	c0.1,0.1,0.2,0,0.3-0.1c0.1-0.1,0-0.2-0.1-0.3c-4.4-2.4-9.5-2.4-13.8,0.1s-6.9,6.9-7,11.9C2.1,16.3,2.1,16.4,2.3,16.4L2.3,16.4z
	 M29.9,16.4c-0.1,0-0.2,0.1-0.2,0.2l0,0c-0.1,4.8-2.6,9.2-6.8,11.6c-4.2,2.4-9.2,2.5-13.4,0.1c-0.1-0.1-0.2,0-0.3,0.1
	c-0.1,0.1,0,0.2,0.1,0.3c4.4,2.4,9.5,2.4,13.8-0.1s6.9-6.9,7-11.9C30.1,16.5,30.1,16.4,29.9,16.4z M12.8,21.3c0,0.1-0.2,0.3-0.3,0.3
	l-3.6,2.1c-0.3,0.2-0.5,0.1-0.7-0.2L7,21.4l4.3-2.5l-1.6-2.8l-5.2,3l0.3,0.5l4.7-2.7l1.1,1.8l-3.8,2.2l-0.6-1l-0.5,0.3l2.1,3.7
	c0.3,0.5,0.7,0.7,1.3,0.4l3.9-2.2c0.3-0.2,0.4-0.4,0.5-0.6c0-0.3-0.1-0.9-0.6-1.8l-0.6,0.1C12.6,20.6,12.8,21.1,12.8,21.3z
	 M13.6,15.7l0.8-0.5l-0.3-0.5l-0.8,0.5l-0.7-1.3l-0.5,0.3l0.7,1.3l-1,0.6l0.3,0.5l1-0.6l0.9,1.6c-0.3,0.3-0.6,0.7-0.9,1l0.4,0.4
	c0.3-0.3,0.5-0.6,0.8-0.9l1,1.8c0.1,0.2,0.1,0.4-0.1,0.5s-0.4,0.2-0.6,0.3l0.4,0.4l0.6-0.4c0.4-0.2,0.5-0.6,0.2-1l-1.2-2.1
	c0.2-0.3,0.4-0.6,0.6-0.8l-0.3-0.5c-0.2,0.3-0.4,0.6-0.6,0.8C14.4,17.2,13.6,15.7,13.6,15.7z M18.7,14.7l-0.3-0.4l-2.7,1.5l-1.2-2
	l2.1-1.2c0.2,0.5,0.4,0.8,0.4,0.9c0,0.1,0,0.2-0.1,0.3S16.7,14,16.5,14l-0.4,0.2l0.4,0.4l0.5-0.3c0.4-0.3,0.6-0.5,0.6-0.8
	c-0.1-0.3-0.3-0.9-0.8-1.6l-3.1,1.8l3.5,6.1l0.5-0.3l-1.8-3.2l0.4-0.2c0.5,0.6,1.2,1.1,2,1.4c-0.1,0.5-0.3,1-0.6,1.5l0.5,0.3
	c0.3-0.5,0.6-1.1,0.7-1.6c0.5,0.1,1,0.2,1.7,0.2l0.1-0.6c-0.7,0-1.2,0-1.7-0.2C19.1,16.3,19,15.5,18.7,14.7z M18.5,16.9
	c-0.6-0.2-1.2-0.6-1.6-1.1l1.3-0.8C18.5,15.7,18.6,16.3,18.5,16.9z M24.2,8.7l-0.3-0.4l-2.7,1.6c0-0.3,0-0.5,0-0.8l-0.6,0.3
	c0,1-0.4,2.1-1.3,3.3l0.6,0.2c0.5-0.8,0.9-1.5,1.1-2.2l2.6-1.5c0,0.8-0.2,1.6-0.7,2.4c-0.4-0.1-1-0.1-1.8-0.2l-0.3,0.5
	c0.7,0,1.3,0,1.7,0.1c-0.6,0.8-1.4,1.8-2.5,2.7l0.5,0.3c0.4-0.4,0.8-0.8,1.2-1.2l1.4,2.5l0.5-0.3l-0.2-0.4l3.1-1.8l0.2,0.4l0.5-0.3
	L25.5,11l-2.9,1.7C23.8,11.3,24.2,10,24.2,8.7z M25.5,11.7l0.9,1.6l-3.1,1.8l-0.9-1.6L25.5,11.7z"/>
</svg>
