<?xml version="1.0" encoding="utf-8"?>
<!-- Generator: Adobe Illustrator 19.0.0, SVG Export Plug-In . SVG Version: 6.00 Build 0)  -->
<svg version="1.1" id="图层_1" xmlns="http://www.w3.org/2000/svg" xmlns:xlink="http://www.w3.org/1999/xlink" x="0px" y="0px"
	 viewBox="-8171 224.4 24 24" style="enable-background:new -8171 224.4 24 24;" xml:space="preserve">
<style type="text/css">
	.st0{fill:#1296DB;}
</style>
<path class="st0" d="M-8163.9,237.5c2.1,0,3.7,0.9,5.4,1.5c-1.7,2.1-3.5,3.8-5.4,3.8c-1.7,0-4.4-0.6-4.4-2.6
	C-8168.3,238.4-8165.9,237.5-8163.9,237.5L-8163.9,237.5z M-8147,226.5v19.8c0,1.2-0.9,2.1-2.1,2.1h-19.8c-1.2,0-2.1-0.9-2.1-2.1
	v-19.8c0-1.2,0.9-2.1,2.1-2.1h19.8C-8147.9,224.4-8147,225.3-8147,226.5L-8147,226.5z M-8147,240.5c-1.7-0.4-4.9-1.5-7.9-2.6
	c0.7-1.1,1.2-2.4,1.6-3.8l0.1-0.3c0.1-0.3,0.1-0.7,0.2-1h-4.8v-1.2h6v-1.2h-6V228h-2.4v2.4h-6v1.2h6v1.2h-4.8v1.2h9
	c-0.2,1.1-0.6,2.2-1.1,3.1c-0.4-0.1-4.2-1.3-6.7-1.3c-2,0-5.3,1.5-5.3,4.3c0,2.7,1.9,4.3,5.3,4.3c3.2,0,5.6-1.6,7.6-4.5
	c3.7,1.6,7.1,3.4,9.3,4.4V240.5L-8147,240.5z"/>
</svg>
