<?xml version="1.0" encoding="utf-8"?>
<!-- Generator: Adobe Illustrator 19.0.0, SVG Export Plug-In . SVG Version: 6.00 Build 0)  -->
<svg version="1.1" id="图层_1" xmlns="http://www.w3.org/2000/svg" xmlns:xlink="http://www.w3.org/1999/xlink" x="0px" y="0px"
	 viewBox="0 0 50 50" style="enable-background:new 0 0 50 50;" xml:space="preserve">
<style type="text/css">
	.st0{fill-rule:evenodd;clip-rule:evenodd;fill:#8C8C8C;}
</style>
<path class="st0" d="M49.4,19.6c0-0.1,0-0.1,0-0.2c0-0.1,0-0.1-0.1-0.2c0,0,0,0,0,0l0,0c-0.2-0.6-0.9-1.1-1.6-0.9
	c-0.8,0.1-1.3,0.9-1.2,1.6c0,0,0,0.1,0,0.1l0,0c1.6,7.2-0.3,15-5.9,20.6c-8.7,8.7-22.7,8.7-31.4,0C0.7,32,0.7,18,9.3,9.3
	C18,0.7,32,0.7,40.7,9.3c0.4,0.4,0.7,0.8,1.1,1.2l0.1,0c0,0.1,0.1,0.1,0.1,0.2c0.5,0.6,1.4,0.6,2,0.1c0.6-0.5,0.6-1.3,0.2-1.9l0,0
	c0,0,0,0,0,0c0,0,0-0.1,0-0.1c0,0-0.1,0-0.1-0.1c-0.4-0.5-0.8-1-1.3-1.4c-9.8-9.8-25.6-9.8-35.4,0c-9.8,9.8-9.8,25.6,0,35.4
	c9.8,9.8,25.6,9.8,35.4,0C49,36.4,51.2,27.7,49.4,19.6L49.4,19.6z"/>
<path class="st0" d="M14.8,14.8c1.4-2.3,3.7-4,6.5-4.7c2.6-0.6,5.3-0.2,7.5,1l0.7-1.2C27,8.6,24,8.1,21,8.8
	c-3.2,0.8-5.8,2.7-7.4,5.3L14.8,14.8L14.8,14.8z"/>
<path class="st0" d="M25.2,17.6c4.7,0,8.5,3.9,8.5,8.6c0,4.8-3.8,8.6-8.5,8.6c-4.7,0-8.5-3.9-8.5-8.6C16.7,21.4,20.5,17.6,25.2,17.6
	L25.2,17.6z M28.5,21.6c-0.1,0.3-0.2,0.6-0.4,0.8c-0.1,0.1-0.3,0.4-0.6,0.8L25.3,26l-2.5-3c-0.3-0.4-0.5-0.6-0.5-0.6
	c-0.2-0.2-0.3-0.5-0.3-0.7h-2.1l1,1.2v5.1c0,1.1-0.1,2.1-0.3,2.8h2c-0.2-0.8-0.3-1.7-0.3-2.6v-3.7l3,3.7l3-3.9v3.6
	c0,1.1-0.1,2.1-0.3,2.9h2c-0.2-0.8-0.3-1.7-0.3-2.9v-3.4c0-0.6,0-1.1,0.1-1.5c0.1-0.5,0.3-0.9,0.7-1.4H28.5z"/>
</svg>
