<?xml version="1.0" encoding="utf-8"?>
<!-- Generator: Adobe Illustrator 19.0.0, SVG Export Plug-In . SVG Version: 6.00 Build 0)  -->
<svg version="1.1" id="图层_1" xmlns="http://www.w3.org/2000/svg" xmlns:xlink="http://www.w3.org/1999/xlink" x="0px" y="0px"
	 viewBox="0 0 50 50" style="enable-background:new 0 0 50 50;" xml:space="preserve">
<style type="text/css">
	.st0{fill-rule:evenodd;clip-rule:evenodd;fill:#02CD8B;}
</style>
<path class="st0" d="M49.4,19.6c0-0.1,0-0.1,0-0.2c0-0.1,0-0.1-0.1-0.2c0,0,0,0,0,0l0,0c-0.2-0.6-0.9-1.1-1.6-0.9
	c-0.8,0.1-1.3,0.9-1.2,1.6c0,0,0,0.1,0,0.1l0,0c1.6,7.2-0.3,15-5.9,20.6c-8.7,8.7-22.7,8.7-31.4,0C0.7,32,0.7,18,9.3,9.3
	C18,0.7,32,0.7,40.7,9.3c0.4,0.4,0.7,0.8,1.1,1.2l0.1,0c0,0.1,0.1,0.1,0.1,0.2c0.5,0.6,1.4,0.6,2,0.1c0.6-0.5,0.6-1.3,0.2-1.9l0,0
	c0,0,0,0,0,0c0,0,0-0.1,0-0.1c0,0-0.1,0-0.1-0.1c-0.4-0.5-0.8-1-1.3-1.4c-9.8-9.8-25.6-9.8-35.4,0c-9.8,9.8-9.8,25.6,0,35.4
	c9.8,9.8,25.6,9.8,35.4,0C49,36.4,51.2,27.7,49.4,19.6L49.4,19.6z"/>
<g>
	<path class="st0" d="M29.3,22.1c0.1-0.4,0.3-0.8,0.6-1.2h-1.8c-0.1,0.3-0.2,0.5-0.4,0.8c-0.1,0.1-0.3,0.4-0.5,0.7l-2,2.5l-2.3-2.8
		c-0.3-0.4-0.5-0.6-0.5-0.6c-0.1-0.2-0.2-0.4-0.3-0.7h-2l0.9,1.1v4.7c0,1-0.1,1.9-0.3,2.6h1.9c-0.2-0.8-0.3-1.6-0.3-2.4v-3.4
		l2.8,3.4l2.8-3.5v3.3c0,1-0.1,1.9-0.3,2.7h1.9c-0.2-0.7-0.3-1.6-0.3-2.6v-3.1C29.1,22.9,29.2,22.4,29.3,22.1z"/>
	<path class="st0" d="M25,3.9C13.5,3.9,4.3,13.3,4.3,25c0,11.7,9.3,21.1,20.7,21.1S45.7,36.7,45.7,25C45.7,13.3,36.5,3.9,25,3.9z
		 M15.7,16.2l-1.1-0.7c1.4-2.4,3.8-4.2,6.8-4.9c2.8-0.6,5.5-0.2,7.8,1.1l-0.6,1.1c-2.1-1.1-4.5-1.5-6.9-0.9
		C19.1,12.5,17,14.1,15.7,16.2z M25,32.9c-4.3,0-7.8-3.5-7.8-7.9c0-4.4,3.5-7.9,7.8-7.9s7.8,3.5,7.8,7.9
		C32.8,29.4,29.3,32.9,25,32.9z"/>
</g>
</svg>
