<?xml version="1.0" encoding="utf-8"?>
<!-- Generator: Adobe Illustrator 19.0.0, SVG Export Plug-In . SVG Version: 6.00 Build 0)  -->
<svg version="1.1" id="图层_1" xmlns="http://www.w3.org/2000/svg" xmlns:xlink="http://www.w3.org/1999/xlink" x="0px" y="0px"
	 viewBox="-295.7 396.6 62.3 48.6" style="enable-background:new -295.7 396.6 62.3 48.6;" xml:space="preserve">
<style type="text/css">
	.st0{fill:#fff;}
</style>
<path class="st0" d="M-274.4,396.6h-14.4c-3.8,0-7,3-7,7l0,0v34.6c0,3.8,3,7,7,7h48.4c3.8,0,7-3,7-7l0,0v-34.6c0-3.8-3-7-7-7H-274.4
	 M-253.8,422.7l-14.9,10c-1.5,1.1-2.8,0.4-2.8-1.5v-20.6c0-1.9,1.3-2.6,2.8-1.5l14.9,10C-252.1,420-252.3,421.7-253.8,422.7z"/>
</svg>
