<?xml version="1.0" encoding="utf-8"?>
<!-- Generator: Adobe Illustrator 19.0.0, SVG Export Plug-In . SVG Version: 6.00 Build 0)  -->
<svg version="1.1" id="图层_1" xmlns="http://www.w3.org/2000/svg" xmlns:xlink="http://www.w3.org/1999/xlink" x="0px" y="0px"
	 viewBox="-117 -16.7 100 100" style="enable-background:new -117 -16.7 100 100;" xml:space="preserve">
<style type="text/css">
	.st0{fill:url(#SVGID_1_);}
	.st1{fill:#FFFFFF;}
	.st2{fill:#FFF1D2;}
</style>
<linearGradient id="SVGID_1_" gradientUnits="userSpaceOnUse" x1="-110.2973" y1="8.2869" x2="-23.6803" y2="58.2952">
	<stop  offset="1.240750e-006" style="stop-color:#FF9C00"/>
	<stop  offset="1" style="stop-color:#FFF000"/>
</linearGradient>
<circle class="st0" cx="-67" cy="33.3" r="50"/>
<path class="st1" d="M-53.5,38.2C-30.2,47-47.6,60-66.9,60c-20.2,0-35.5-13.5-13.5-21.9c0,6.8,2.5,13.1,9.7,13.1c0.1,4,7.4,4,7.5,0
	C-56,51.3-53.5,45-53.5,38.2z M-69.7,16h1.9V14c0-1.1,1.6-1.1,1.6,0V16h1.9c1.1,0,1.1,1.7,0,1.7h-1.9v2.1c0,1.1-1.6,1.1-1.6,0v-2.1
	h-1.9C-70.7,17.7-70.7,16-69.7,16z M-54,10.7c3.8,0.1,7.4,1.5,7.4,4.2c0,1.4-0.8,2.7-0.8,6v0c2.3,0.2,1.8,4.1-0.4,3.6
	c-0.7,2.8-2.2,5-4.2,6c2.1,0.2,4.2,0.6,6,1.1l0.9,0.3c4.4,1.6,7.4,4.4,7.4,7.5c0,1.8-0.9,3.4-2.5,4.8c-1.3-3-4.6-5.5-9.1-7.2
	l-1.2-0.4c-2.4-0.8-5-1.3-7.9-1.5c2.5-1.4,4.5-4.3,5.5-8c3,0.7,3.6-4.5,0.6-4.7v0c0-4.4,1.1-6.1,1.1-8C-51.3,12.9-52.4,11.7-54,10.7
	z M-93.7,44c-4-3.7-3.8-8.7,5-11.9l0.9-0.3c1.8-0.6,3.8-1,5.9-1.1c-1.9-1-3.4-3.3-4.2-6c-2.2,0.5-2.7-3.4-0.4-3.6l0,0
	c0-3.3-0.8-4.6-0.8-6c0-2.7,3.6-4.1,7.4-4.2c-1.6,0.9-2.7,2.2-2.7,3.9c0,1.8,1.1,3.6,1.1,8l0,0c-3,0.3-2.4,5.4,0.6,4.7
	c0.9,3.7,3,6.6,5.5,8c-2.8,0.2-5.5,0.8-7.8,1.5l-1.2,0.4C-89.6,39.2-92.5,41.5-93.7,44z M-58.8,36.8c-1.4-0.3-2.9-0.5-4.4-0.6
	l-0.6-0.1l0.6-0.3c1.4-0.8,2.6-2,3.6-3.5c1-1.5,1.8-3.4,2.3-5.4l0-0.2l0.2,0c1,0.2,1.7-0.2,2.1-0.8c0.2-0.3,0.4-0.8,0.4-1.2
	c0.1-0.4,0-0.9-0.1-1.3c-0.2-0.9-0.8-1.6-1.9-1.6l-0.2,0l0-0.2l0,0h0c0-3,0.4-4.9,0.8-6.5c0.2-1,0.4-1.8,0.4-2.6
	c0-2.9-2.9-4.8-6.6-5.6c-1.5-0.3-3-0.5-4.6-0.5c-1.6,0-3.2,0.2-4.6,0.5c-3.7,0.8-6.6,2.7-6.6,5.6c0,0.8,0.2,1.6,0.4,2.6
	c0.4,1.5,0.8,3.4,0.8,6.5h0l0,0l0,0.2l-0.2,0c-1,0.1-1.7,0.8-1.9,1.7c-0.1,0.4-0.1,0.8-0.1,1.3c0.1,0.4,0.2,0.8,0.4,1.2
	c0.4,0.7,1.1,1.1,2.1,0.9l0.2,0l0,0.2c0.5,2.1,1.3,3.9,2.3,5.4c1,1.5,2.2,2.7,3.6,3.5l0.6,0.3l-0.6,0.1c-1.5,0.1-3,0.3-4.4,0.6
	c-1.4,0.3-2.7,0.6-4,1c0,3,0.4,6,1.6,8.2c1.2,2.2,3.3,3.7,6.7,3.7h0.2c0.3-0.5,0.7-0.9,1.2-1.1c0.7-0.4,1.5-0.6,2.3-0.6
	c0.8,0,1.6,0.2,2.3,0.6c0.5,0.3,0.9,0.7,1.2,1.1h0.2c3.4,0,5.5-1.5,6.7-3.7c1.2-2.2,1.6-5.2,1.6-8.2C-56.1,37.5-57.4,37.1-58.8,36.8
	z M-66.9,10c3.5,0,6.4,3.1,6.4,6.8c0,3.8-2.8,6.8-6.4,6.8c-3.5,0-6.4-3.1-6.4-6.8S-70.5,10-66.9,10z"/>
<path class="st2" d="M-53.9,10.7c3.8,0.1,7.4,1.5,7.4,4.2c0,1.4-0.8,2.7-0.8,6v0c2.3,0.2,1.8,4.1-0.4,3.6c-0.7,2.8-2.2,5-4.2,6
	c2.1,0.2,4.2,0.6,6,1.1l0.9,0.3c4.4,1.6,7.4,4.4,7.4,7.5c0,1.8-0.9,3.4-2.5,4.8c-1.3-3-4.6-5.5-9.1-7.2l-1.2-0.4
	c-2.4-0.8-5-1.3-7.9-1.5c2.5-1.4,4.5-4.3,5.5-8c3,0.7,3.6-4.5,0.6-4.7v0c0-4.4,1.1-6.1,1.1-8C-51.2,12.9-52.3,11.7-53.9,10.7z
	 M-93.6,44c-4-3.7-3.8-8.7,5-11.9l0.9-0.3c1.8-0.6,3.8-1,5.9-1.1c-1.9-1-3.4-3.3-4.2-6c-2.2,0.5-2.7-3.4-0.4-3.6l0,0
	c0-3.3-0.8-4.6-0.8-6c0-2.7,3.6-4.1,7.4-4.2c-1.6,0.9-2.7,2.2-2.7,3.9c0,1.8,1.1,3.6,1.1,8l0,0c-3,0.3-2.4,5.4,0.6,4.7
	c0.9,3.7,3,6.6,5.5,8c-2.8,0.2-5.5,0.8-7.8,1.5l-1.2,0.4C-89.5,39.2-92.4,41.5-93.6,44z"/>
<circle class="st1" cx="-96.1" cy="65.7" r="1.4"/>
<circle class="st1" cx="-48.2" cy="71.9" r="2"/>
<circle class="st1" cx="-27.8" cy="39.6" r="1.4"/>
<circle class="st1" cx="-95.3" cy="8.4" r="2.3"/>
</svg>
