<?xml version="1.0" encoding="utf-8"?>
<!-- Generator: Adobe Illustrator 19.0.0, SVG Export Plug-In . SVG Version: 6.00 Build 0)  -->
<svg version="1.1" id="图层_1" xmlns="http://www.w3.org/2000/svg" xmlns:xlink="http://www.w3.org/1999/xlink" x="0px" y="0px"
	 viewBox="-113 9 50 50" style="enable-background:new -113 9 50 50;" xml:space="preserve">
<style type="text/css">
	.st0{fill:#02CD8B;}
</style>
<path class="st0" d="M-66.4,33.9c0-0.1,0.1-0.1,0.1-0.1c-0.4-0.6-0.6-0.9-0.6-1l-18.9-19.7c-0.6-0.6-1.3-0.9-2.1-0.9
	c-0.8,0-1.6,0.3-2.2,0.9L-109,32.8c-0.1,0.1-0.3,0.4-0.6,1l0.1,0.1l0.1,0.1h5.9v18.3c0,0.9,0.3,1.7,0.8,2.4c0.5,0.7,1.2,1.1,2.1,1.1
	h4.9V43c0-3.9,1.5-5.8,4.6-5.8h6.3c3.1,0,4.6,1.9,4.6,5.8v12.9h4.9c0.8,0,1.5-0.4,2.1-1.1c0.5-0.7,0.8-1.5,0.8-2.4V34h5.9
	C-66.5,34-66.5,34-66.4,33.9z"/>
<path class="st0" d="M-63.3,35.1c-0.6,1.3-1.6,2-3.3,2h-2.8v15.2c0,1.8-0.6,3.3-1.7,4.7c-1.1,1.3-2.6,2-4.3,2h-8V41.6
	c0-0.1,0-0.2,0-0.5s-0.1-0.4-0.2-0.4c-0.1-0.1-0.2-0.1-0.3-0.2c-0.1-0.1-0.2-0.2-0.4-0.2c-0.2,0-0.4-0.1-0.6-0.1h-6.3
	c-0.3,0-0.5,0-0.7,0.1c-0.2,0-0.3,0.1-0.4,0.2c-0.1,0.1-0.2,0.2-0.3,0.2c-0.1,0.1-0.1,0.2-0.1,0.4c0,0.2,0,0.4-0.1,0.5
	c0,0.1,0,0.3,0,0.6c0,0.3,0,0.6,0,0.7v16h-8.1c-1.7,0-3.1-0.7-4.3-2c-1.1-1.3-1.7-2.9-1.7-4.7V37.1h-2.8c-1.6,0-2.7-0.7-3.3-2
	c-0.6-1.4-0.1-2.9,1.4-4.5l18.9-19.7C-91.2,9.6-89.7,9-88,9s3.2,0.6,4.5,1.9l18.9,19.7C-63.1,32.2-62.6,33.7-63.3,35.1z"/>
</svg>
