<?xml version="1.0" encoding="utf-8"?>
<!-- Generator: Adobe Illustrator 19.0.0, SVG Export Plug-In . SVG Version: 6.00 Build 0)  -->
<svg version="1.1" id="图层_1" xmlns="http://www.w3.org/2000/svg" xmlns:xlink="http://www.w3.org/1999/xlink" x="0px" y="0px"
	 viewBox="-113 9 50 50" style="enable-background:new -113 9 50 50;" xml:space="preserve">
<style type="text/css">
	.st0{fill:#8C8C8C;}
</style>
<path class="st0" d="M-66.5,34h-5.9v18.3c0,0.9-0.3,1.7-0.8,2.4c-0.5,0.7-1.2,1.1-2.1,1.1h-4.9V43c0-3.9-1.5-5.8-4.6-5.8h-6.3
	c-3.1,0-4.6,1.9-4.6,5.8v12.9h-4.9c-0.8,0-1.5-0.4-2.1-1.1c-0.5-0.7-0.8-1.5-0.8-2.4V34h-5.9l-0.1-0.1l-0.1-0.1
	c0.3-0.6,0.5-0.9,0.6-1l18.9-19.7c0.6-0.6,1.3-0.9,2.2-0.9c0.8,0,1.4,0.3,2.1,0.9L-67,32.8c0,0.1,0.2,0.4,0.6,1c0,0-0.1,0-0.1,0.1
	C-66.5,34-66.5,34-66.5,34z M-64.7,30.6l-18.9-19.7C-84.8,9.6-86.3,9-88,9s-3.2,0.6-4.4,1.9l-18.9,19.7c-1.5,1.6-2,3.1-1.4,4.5
	c0.6,1.3,1.7,2,3.3,2h2.8v15.2c0,1.8,0.6,3.3,1.7,4.7c1.1,1.3,2.6,2,4.3,2h8.1V43c0-0.2,0-0.4,0-0.7c0-0.3,0-0.5,0-0.6
	c0-0.1,0-0.2,0.1-0.5c0-0.2,0.1-0.4,0.1-0.4c0.1-0.1,0.2-0.1,0.3-0.2c0.1-0.1,0.3-0.2,0.4-0.2c0.2,0,0.4-0.1,0.7-0.1h6.3
	c0.2,0,0.5,0,0.6,0.1c0.2,0,0.3,0.1,0.4,0.2c0.1,0.1,0.2,0.2,0.3,0.2c0.1,0.1,0.1,0.2,0.2,0.4s0,0.4,0,0.5V59h8c1.7,0,3.2-0.7,4.3-2
	c1.1-1.3,1.7-2.9,1.7-4.7V37.1h2.8c1.6,0,2.7-0.7,3.3-2C-62.6,33.7-63.1,32.2-64.7,30.6z"/>
</svg>
