<?xml version="1.0" encoding="utf-8"?>
<!-- Generator: Adobe Illustrator 19.0.0, SVG Export Plug-In . SVG Version: 6.00 Build 0)  -->
<svg version="1.1" id="图层_1" xmlns="http://www.w3.org/2000/svg" xmlns:xlink="http://www.w3.org/1999/xlink" x="0px" y="0px"
	 viewBox="0 0 50 50" style="enable-background:new 0 0 50 50;" xml:space="preserve">
<style type="text/css">
	.st0{fill-rule:evenodd;clip-rule:evenodd;fill:#02CD8B;}
</style>
<g>
	<path class="st0" d="M34.7,30.1l-1,0.2v4.2c1-0.9,1.5-2.2,1.2-3.6C34.9,30.6,34.8,30.3,34.7,30.1z"/>
	<path class="st0" d="M27.2,31.3c0,0.2,0,0.4,0,0.5c0,0.2,0,0.3,0.1,0.5c0.3,1.5,1.4,2.6,2.7,3v-4.4L27.2,31.3z"/>
	<path class="st0" d="M25,0C11.2,0,0,11.2,0,25c0,13.8,11.2,25,25,25c13.8,0,25-11.2,25-25C50,11.2,38.8,0,25,0z M26.2,12.9
		c2.2,2.7,3.3,4.2,3.4,4.7l-2.7,2.1c-0.1-0.1-0.3-0.4-0.6-0.8c-1.2-1.6-2.2-2.9-3-3.9L26.2,12.9z M40.5,38.1c-0.4,0.6-1.3,0.8-2,0.4
		l-2.9-2c-0.6,0.5-1.2,0.9-1.9,1.2v0.7H30v-0.2c-2.3-0.4-4.4-2-5.1-4.2c-0.2-0.5-0.4-1.3-0.4-2c0-0.1,0-0.2,0-0.3l-3,0.5l-0.4-2.6
		l-0.5,0.4l-0.4-0.5c-0.6-0.9-1.3-1.8-1.9-2.5v11.1h-3.5v-10c-0.2,0.3-0.4,0.8-0.8,1.5c-1,1.9-1.8,3.2-2.5,4.1
		c-0.4-0.6-1.1-1.4-2-2.5l-0.4-0.5c2.7-3.4,4.3-6.4,5-8.8H9.9v-3h4.9v-3.3c-1.2,0.1-2.4,0.2-3.8,0.4c-0.2-1-0.6-2-1.3-2.9
		c3.7-0.2,7.3-0.8,10.9-1.6c0.2,0.3,0.4,0.8,0.8,1.4c0.3,0.6,0.5,1.1,0.7,1.4c0.2,0.4,0.2,0.6,0,0.7c-1.3,0.1-2.5,0.2-3.9,0.4V19h4
		v3h-4v2.7l1.6-1.2c1.7,2,2.9,3.4,3.4,4.2l-1.3,1.1l3.1-0.5c0.3-0.7,0.8-1.3,1.4-1.8l-1,0.5c-0.7-1.6-1.7-3.4-2.9-5.2l3.2-1.9
		c1.1,1.7,2,3.5,2.8,5.3c0.4-0.1,0.8-0.2,1.3-0.3V11.3h2.5c1,0,1.5,0.2,1.5,0.5c0,0.1,0,0.2,0,0.4c-0.2,0.6-0.2,1.3-0.2,1.9v11.5
		c0.6,0.2,1.3,0.5,1.9,0.9c0.2,0.1,0.3,0.2,0.5,0.4l0.8-0.1L37,28c0.3,0.7,0.5,1.5,0.7,2.4c0.2,1.3,0.1,2.6-0.4,3.7l2.9,2
		C40.8,36.6,41,37.4,40.5,38.1z"/>
</g>
</svg>
